# "Generated by fontforge, http://fontforge.sourceforge.net"

name: lemon
family: lemon
foundry: artwiz
point-size: 10
weight: medium
dpi: 75 75
spacing: monospace
x-height: 6
ascent: 8
descent: 2
offset: -2 -3
tracking: -3
encoding: unicode
default-char: u+0034
converter: monobit v0.12
source-name: lemon-j.bdf
source-format: BDF v2.1
bdf.-FONT: -benis-lemon-abunai-abunai-medium-r-normal--10-110-75-75-m-50-ISO10646-1
bdf.FONTNAME-REGISTRY: ""
bdf.OPYRIGHT: "artwiz, fixed by aleczapka"
bdf.WEIGHT: 10
bdf.QUAD-WIDTH: 5
bdf.-ORIGINAL-FONT-NAME: "lime"
bdf.-GBDFED-INFO: "Edited with gbdfed 1.6."
bdf.CHARSET-COLLECTIONS: "ISO8859-2 ISO8859-5 ISO8859-7 ISO8859-9 ISO8859-4 ISO10646-1"

u+0020:
space:
    ..........
    ..........
    ..........
    ..........
    ..........
    ..........
    ..........
    ..........
    ..........
    ..........
    ..........
    ..........
    ..........

u+0021:
exclam:
    ..........
    ..........
    ..........
    ....@.....
    ....@.....
    ....@.....
    ....@.....
    ..........
    ....@.....
    ..........
    ..........
    ..........

u+0022:
quotedbl:
    ..........
    ..........
    ..........
    ..........
    ..........
    ..........
    ..........
    ...@.@....
    ...@.@....
    ...@.@....
    ..........
    ..........

u+0023:
numbersign:
    ..........
    ..........
    ..........
    ...@.@....
    ..@@.@@...
    ...@.@....
    ..@@.@@...
    ...@.@....
    ..........
    ..........
    ..........
    ..........

u+0024:
dollar:
    ..........
    ..........
    .....@....
    ....@@@...
    ...@.@....
    ....@@....
    ....@.@...
    ....@.@...
    ...@@@....
    ....@.....
    ..........
    ..........

u+0025:
percent:
    ..........
    ..........
    ..........
    ...@..@...
    ...@..@...
    .....@....
    ....@.....
    ...@..@...
    ...@..@...
    ..........
    ..........
    ..........

u+0026:
ampersand:
    ..........
    ..........
    ..........
    ...@......
    ..@.@.....
    ...@......
    ..@.@.@...
    ..@..@....
    ...@@.@...
    ..........
    ..........
    ..........

u+0027:
quotesingle:
    ..........
    ..........
    ..........
    ..........
    ..........
    ..........
    ..........
    ....@.....
    ....@.....
    ....@.....
    ..........
    ..........

u+0028:
parenleft:
    ..........
    ..........
    ......@...
    .....@....
    ....@.....
    ....@.....
    ....@.....
    ....@.....
    .....@....
    ......@...
    ..........
    ..........

u+0029:
parenright:
    ..........
    ..........
    ...@......
    ....@.....
    .....@....
    .....@....
    .....@....
    .....@....
    ....@.....
    ...@......
    ..........
    ..........

u+002a:
asterisk:
    ..........
    ..........
    ..........
    ...@..@...
    ....@@....
    ...@@@@...
    ....@@....
    ...@..@...
    ..........
    ..........
    ..........
    ..........

u+002b:
plus:
    ..........
    ..........
    ..........
    ..........
    ....@.....
    ....@.....
    ..@@@@@...
    ....@.....
    ....@.....
    ..........
    ..........
    ..........

u+002c:
comma:
    ..........
    ..........
    ....@.....
    ....@.....
    ...@......
    ..........
    ..........
    ..........
    ..........
    ..........
    ..........
    ..........

u+002d:
hyphen:
    ..........
    ..........
    ..........
    ..........
    ..........
    ..........
    ...@@@@...
    ..........
    ..........
    ..........
    ..........
    ..........

u+002e:
period:
    ..........
    ..........
    ..........
    ....@.....
    ....@.....
    ..........
    ..........
    ..........
    ..........
    ..........
    ..........
    ..........

u+002f:
slash:
    ..........
    ..........
    ......@...
    ......@...
    .....@....
    .....@....
    ....@.....
    ....@.....
    ...@......
    ...@......
    ..........
    ..........

u+0030:
zero:
    ..........
    ..........
    ..........
    ....@@....
    ...@..@...
    ...@.@@...
    ...@@.@...
    ...@..@...
    ....@@....
    ..........
    ..........
    ..........

u+0031:
one:
    ..........
    ..........
    ..........
    ....@.....
    ...@@.....
    ....@.....
    ....@.....
    ....@.....
    ....@.....
    ..........
    ..........
    ..........

u+0032:
two:
    ..........
    ..........
    ..........
    ...@@@....
    ......@...
    ......@...
    ....@@....
    ...@......
    ...@@@@...
    ..........
    ..........
    ..........

u+0033:
three:
    ..........
    ..........
    ..........
    ...@@@....
    ......@...
    ....@@....
    ......@...
    ......@...
    ...@@@....
    ..........
    ..........
    ..........

u+0034:
four:
    ..........
    ..........
    ..........
    ...@..@...
    ...@..@...
    ...@..@...
    ....@@@...
    ......@...
    ......@...
    ..........
    ..........
    ..........

u+0035:
five:
    ..........
    ..........
    ..........
    ...@@@@...
    ...@......
    ...@@@....
    ......@...
    ......@...
    ...@@@....
    ..........
    ..........
    ..........

u+0036:
six:
    ..........
    ..........
    ..........
    ....@@....
    ...@......
    ...@@@....
    ...@..@...
    ...@..@...
    ....@@....
    ..........
    ..........
    ..........

u+0037:
seven:
    ..........
    ..........
    ..........
    ...@@@@...
    ......@...
    .....@....
    .....@....
    ....@.....
    ....@.....
    ..........
    ..........
    ..........

u+0038:
eight:
    ..........
    ..........
    ..........
    ....@@....
    ...@..@...
    ....@@....
    ...@..@...
    ...@..@...
    ....@@....
    ..........
    ..........
    ..........

u+0039:
nine:
    ..........
    ..........
    ..........
    ....@@....
    ...@..@...
    ...@..@...
    ....@@@...
    ......@...
    ....@@....
    ..........
    ..........
    ..........

u+003a:
colon:
    ..........
    ..........
    ..........
    ....@.....
    ....@.....
    ..........
    ....@.....
    ....@.....
    ..........
    ..........
    ..........
    ..........

u+003b:
semicolon:
    ..........
    ..........
    ....@.....
    ....@.....
    ..........
    ....@.....
    ....@.....
    ...@......
    ..........
    ..........
    ..........
    ..........

u+003c:
less:
    ..........
    ..........
    ..........
    .....@....
    ....@.....
    ...@......
    ....@.....
    .....@....
    ..........
    ..........
    ..........
    ..........

u+003d:
equal:
    ..........
    ..........
    ..........
    ..........
    ..........
    ...@@@....
    ..........
    ...@@@....
    ..........
    ..........
    ..........
    ..........

u+003e:
greater:
    ..........
    ..........
    ..........
    ....@.....
    .....@....
    ......@...
    .....@....
    ....@.....
    ..........
    ..........
    ..........
    ..........

u+003f:
question:
    ..........
    ..........
    ..........
    ...@@@....
    ...@.@....
    .....@....
    ....@.....
    ..........
    ....@.....
    ..........
    ..........
    ..........

u+0040:
at:
    ..........
    ..........
    ..........
    ....@@....
    ...@..@...
    ...@.@@...
    ...@.@@...
    ...@......
    ....@@@...
    ..........
    ..........
    ..........

u+0041:
A:
    ..........
    ..........
    ..........
    ....@@....
    ...@..@...
    ...@..@...
    ...@@@@...
    ...@..@...
    ...@..@...
    ..........
    ..........
    ..........

u+0042:
B:
    ..........
    ..........
    ..........
    ...@@@....
    ...@..@...
    ...@@@....
    ...@..@...
    ...@..@...
    ...@@@....
    ..........
    ..........
    ..........

u+0043:
C:
    ..........
    ..........
    ..........
    ....@@@...
    ...@......
    ...@......
    ...@......
    ...@......
    ....@@@...
    ..........
    ..........
    ..........

u+0044:
D:
    ..........
    ..........
    ..........
    ...@@@....
    ...@..@...
    ...@..@...
    ...@..@...
    ...@..@...
    ...@@@....
    ..........
    ..........
    ..........

u+0045:
E:
    ..........
    ..........
    ..........
    ...@@@@...
    ...@......
    ...@@@....
    ...@......
    ...@......
    ...@@@@...
    ..........
    ..........
    ..........

u+0046:
F:
    ..........
    ..........
    ..........
    ...@@@@...
    ...@......
    ...@@@....
    ...@......
    ...@......
    ...@......
    ..........
    ..........
    ..........

u+0047:
G:
    ..........
    ..........
    ..........
    ....@@@...
    ...@......
    ...@......
    ...@.@@...
    ...@..@...
    ....@@@...
    ..........
    ..........
    ..........

u+0048:
H:
    ..........
    ..........
    ..........
    ...@..@...
    ...@..@...
    ...@@@@...
    ...@..@...
    ...@..@...
    ...@..@...
    ..........
    ..........
    ..........

u+0049:
I:
    ..........
    ..........
    ..........
    ...@@@....
    ....@.....
    ....@.....
    ....@.....
    ....@.....
    ...@@@....
    ..........
    ..........
    ..........

u+004a:
J:
    ..........
    ..........
    ..........
    ....@@@...
    ......@...
    ......@...
    ......@...
    ...@..@...
    ....@@....
    ..........
    ..........
    ..........

u+004b:
K:
    ..........
    ..........
    ..........
    ...@..@...
    ...@.@....
    ...@@.....
    ...@.@....
    ...@..@...
    ...@..@...
    ..........
    ..........
    ..........

u+004c:
L:
    ..........
    ..........
    ..........
    ...@......
    ...@......
    ...@......
    ...@......
    ...@......
    ...@@@@...
    ..........
    ..........
    ..........

u+004d:
M:
    ..........
    ..........
    ..........
    ...@..@...
    ...@@@@...
    ...@..@...
    ...@..@...
    ...@..@...
    ...@..@...
    ..........
    ..........
    ..........

u+004e:
N:
    ..........
    ..........
    ..........
    ...@..@...
    ...@@.@...
    ...@@.@...
    ...@.@@...
    ...@.@@...
    ...@..@...
    ..........
    ..........
    ..........

u+004f:
O:
    ..........
    ..........
    ..........
    ....@@....
    ...@..@...
    ...@..@...
    ...@..@...
    ...@..@...
    ....@@....
    ..........
    ..........
    ..........

u+0050:
P:
    ..........
    ..........
    ..........
    ...@@@....
    ...@..@...
    ...@..@...
    ...@@@....
    ...@......
    ...@......
    ..........
    ..........
    ..........

u+0051:
Q:
    ..........
    ..........
    ....@@....
    ...@..@...
    ...@..@...
    ...@..@...
    ...@..@...
    ....@@....
    .....@@...
    ..........
    ..........
    ..........

u+0052:
R:
    ..........
    ..........
    ..........
    ...@@@....
    ...@..@...
    ...@..@...
    ...@@@....
    ...@..@...
    ...@..@...
    ..........
    ..........
    ..........

u+0053:
S:
    ..........
    ..........
    ..........
    ....@@@...
    ...@......
    ....@@....
    ......@...
    ......@...
    ...@@@....
    ..........
    ..........
    ..........

u+0054:
T:
    ..........
    ..........
    ..........
    ..@@@@@...
    ....@.....
    ....@.....
    ....@.....
    ....@.....
    ....@.....
    ..........
    ..........
    ..........

u+0055:
U:
    ..........
    ..........
    ..........
    ...@..@...
    ...@..@...
    ...@..@...
    ...@..@...
    ...@..@...
    ....@@@...
    ..........
    ..........
    ..........

u+0056:
V:
    ..........
    ..........
    ..........
    ...@..@...
    ...@..@...
    ...@..@...
    ....@@....
    ....@@....
    ....@@....
    ..........
    ..........
    ..........

u+0057:
W:
    ..........
    ..........
    ..........
    ...@..@...
    ...@..@...
    ...@..@...
    ...@..@...
    ...@@@@...
    ...@..@...
    ..........
    ..........
    ..........

u+0058:
X:
    ..........
    ..........
    ..........
    ...@..@...
    ...@..@...
    ....@@....
    ...@..@...
    ...@..@...
    ...@..@...
    ..........
    ..........
    ..........

u+0059:
Y:
    ..........
    ..........
    ..........
    ..@...@...
    ..@...@...
    ...@.@....
    ....@.....
    ....@.....
    ....@.....
    ..........
    ..........
    ..........

u+005a:
Z:
    ..........
    ..........
    ..........
    ...@@@@...
    ......@...
    .....@....
    ....@.....
    ...@......
    ...@@@@...
    ..........
    ..........
    ..........

u+005b:
bracketleft:
    ..........
    ..........
    ...@@@....
    ...@......
    ...@......
    ...@......
    ...@......
    ...@......
    ...@......
    ...@@@....
    ..........
    ..........

u+005c:
backslash:
    ..........
    ..........
    ...@......
    ...@......
    ....@.....
    ....@.....
    .....@....
    .....@....
    ......@...
    ......@...
    ..........
    ..........

u+005d:
bracketright:
    ..........
    ..........
    ...@@@....
    .....@....
    .....@....
    .....@....
    .....@....
    .....@....
    .....@....
    ...@@@....
    ..........
    ..........

u+005e:
asciicircum:
    ..........
    ..........
    ..........
    ..........
    ..........
    ..........
    ..........
    ....@.....
    ...@.@....
    ..@...@...
    ..........
    ..........

u+005f:
underscore:
    ..........
    ..........
    ...@@@@...
    ..........
    ..........
    ..........
    ..........
    ..........
    ..........
    ..........
    ..........
    ..........

u+0060:
grave:
    ..........
    ..........
    ..........
    ..........
    ..........
    ..........
    ..........
    ....@.....
    ....@.....
    .....@....
    ..........
    ..........

u+0061:
a:
    ..........
    ..........
    ..........
    ....@@@...
    ...@..@...
    ...@..@...
    ...@.@@...
    ....@.@...
    ..........
    ..........
    ..........
    ..........

u+0062:
b:
    ..........
    ..........
    ..........
    ...@......
    ...@......
    ...@@@....
    ...@..@...
    ...@..@...
    ...@..@...
    ...@@@....
    ..........
    ..........

u+0063:
c:
    ..........
    ..........
    ..........
    ....@@@...
    ...@......
    ...@......
    ...@......
    ....@@@...
    ..........
    ..........
    ..........
    ..........

u+0064:
d:
    ..........
    ..........
    ..........
    ......@...
    ......@...
    ....@@@...
    ...@..@...
    ...@..@...
    ...@.@@...
    ....@.@...
    ..........
    ..........

u+0065:
e:
    ..........
    ..........
    ..........
    ....@@....
    ...@..@...
    ...@@@@...
    ...@......
    ....@@@...
    ..........
    ..........
    ..........
    ..........

u+0066:
f:
    ..........
    ..........
    ..........
    .....@@...
    ....@.....
    ....@@@...
    ....@.....
    ....@.....
    ....@.....
    ....@.....
    ..........
    ..........

u+0067:
g:
    ..........
    ....@@@...
    ...@..@...
    ...@..@...
    ...@.@@...
    ....@.@...
    ......@...
    ....@@....
    ..........
    ..........
    ..........
    ..........

u+0068:
h:
    ..........
    ..........
    ..........
    ...@......
    ...@......
    ...@@@....
    ...@..@...
    ...@..@...
    ...@..@...
    ...@..@...
    ..........
    ..........

u+0069:
i:
    ..........
    ..........
    ..........
    .....@....
    ..........
    ....@@....
    .....@....
    .....@....
    .....@....
    .....@....
    ..........
    ..........

u+006a:
j:
    ..........
    .....@....
    ..........
    ....@@....
    .....@....
    .....@....
    .....@....
    .....@....
    .....@....
    ...@@.....
    ..........
    ..........

u+006b:
k:
    ..........
    ..........
    ..........
    ...@......
    ...@......
    ...@..@...
    ...@.@....
    ...@@@....
    ...@..@...
    ...@..@...
    ..........
    ..........

u+006c:
l:
    ..........
    ..........
    ..........
    ....@@....
    .....@....
    .....@....
    .....@....
    .....@....
    .....@....
    .....@....
    ..........
    ..........

u+006d:
m:
    ..........
    ..........
    ..........
    ...@..@...
    ...@@@@...
    ...@..@...
    ...@..@...
    ...@..@...
    ..........
    ..........
    ..........
    ..........

u+006e:
n:
    ..........
    ..........
    ..........
    ...@@@....
    ...@..@...
    ...@..@...
    ...@..@...
    ...@..@...
    ..........
    ..........
    ..........
    ..........

u+006f:
o:
    ..........
    ..........
    ..........
    ....@@....
    ...@..@...
    ...@..@...
    ...@..@...
    ....@@....
    ..........
    ..........
    ..........
    ..........

u+0070:
p:
    ..........
    ...@@@....
    ...@..@...
    ...@..@...
    ...@..@...
    ...@@@....
    ...@......
    ...@......
    ..........
    ..........
    ..........
    ..........

u+0071:
q:
    ..........
    ....@@@...
    ...@..@...
    ...@..@...
    ...@..@...
    ....@@@...
    ......@...
    ......@...
    ..........
    ..........
    ..........
    ..........

u+0072:
r:
    ..........
    ..........
    ..........
    ...@.@@...
    ...@@.....
    ...@......
    ...@......
    ...@......
    ..........
    ..........
    ..........
    ..........

u+0073:
s:
    ..........
    ..........
    ..........
    ....@@@...
    ...@......
    ....@@....
    ......@...
    ...@@@....
    ..........
    ..........
    ..........
    ..........

u+0074:
t:
    ..........
    ..........
    ..........
    ....@.....
    ...@@@....
    ....@.....
    ....@.....
    ....@.....
    .....@....
    ..........
    ..........
    ..........

u+0075:
u:
    ..........
    ..........
    ..........
    ...@..@...
    ...@..@...
    ...@..@...
    ...@..@...
    ....@@@...
    ..........
    ..........
    ..........
    ..........

u+0076:
v:
    ..........
    ..........
    ..........
    ...@..@...
    ...@..@...
    ...@..@...
    ....@@....
    ....@@....
    ..........
    ..........
    ..........
    ..........

u+0077:
w:
    ..........
    ..........
    ..........
    ...@..@...
    ...@..@...
    ...@..@...
    ...@@@@...
    ...@..@...
    ..........
    ..........
    ..........
    ..........

u+0078:
x:
    ..........
    ..........
    ..........
    ...@..@...
    ...@..@...
    ....@@....
    ...@..@...
    ...@..@...
    ..........
    ..........
    ..........
    ..........

u+0079:
y:
    ..........
    ...@..@...
    ...@..@...
    ...@..@...
    ...@..@...
    ....@@@...
    ......@...
    ....@@....
    ..........
    ..........
    ..........
    ..........

u+007a:
z:
    ..........
    ..........
    ..........
    ...@@@@...
    .....@....
    ....@.....
    ...@......
    ...@@@@...
    ..........
    ..........
    ..........
    ..........

u+007b:
braceleft:
    ..........
    ..........
    .....@....
    ....@.....
    ....@.....
    ...@@.....
    ...@@.....
    ....@.....
    ....@.....
    .....@....
    ..........
    ..........

u+007c:
bar:
    ..........
    ....@.....
    ....@.....
    ....@.....
    ....@.....
    ....@.....
    ....@.....
    ....@.....
    ....@.....
    ....@.....
    ....@.....
    ..........

u+007d:
braceright:
    ..........
    ..........
    ....@.....
    .....@....
    .....@....
    .....@@...
    .....@@...
    .....@....
    .....@....
    ....@.....
    ..........
    ..........

u+007e:
asciitilde:
    ..........
    ..........
    ..........
    ..........
    ...@......
    ..@.@.@...
    ..@.@.@...
    .....@....
    ..........
    ..........
    ..........
    ..........

u+0095:
uni0095:
    ..........
    ..........
    ..........
    ..........
    ....@@....
    ...@@@@...
    ...@@@@...
    ....@@....
    ..........
    ..........
    ..........
    ..........

u+00a1:
exclamdown:
    ..........
    ..........
    ..........
    ....@.....
    ..........
    ...@@.....
    ....@.....
    ....@.....
    ....@@....
    ..........
    ..........
    ..........

u+00a2:
cent:
    ..........
    ..........
    .....@....
    ...@@@....
    ..@.@.....
    ..@.@.....
    ..@.@.....
    ...@@@....
    ...@......
    ..........
    ..........
    ..........

u+00a3:
sterling:
    ..........
    ..........
    ..........
    ....@@....
    ...@......
    ...@......
    ..@@@.....
    ...@......
    ...@..@...
    ..@@@@....
    ..........
    ..........

u+00a4:
currency:
    ..........
    ..........
    ..........
    ..@...@...
    ...@@@....
    ...@.@....
    ...@.@....
    ...@@@....
    ..@...@...
    ..........
    ..........
    ..........

u+00a5:
yen:
    ..........
    ..........
    ..@...@...
    ..@...@...
    ...@.@....
    ....@.....
    ..@@@@@...
    ....@.....
    ..@@@@@...
    ....@.....
    ....@.....
    ..........

u+00a6:
brokenbar:
    ..........
    ..........
    ..........
    ..........
    ...@@.....
    ..........
    ..........
    ..........
    ..........
    ..........
    ..........
    ..........

u+00a7:
section:
    ..........
    ..........
    ....@@....
    ...@..@...
    ....@.....
    ...@@@....
    ..@...@...
    ...@@@....
    ....@.....
    ..@..@....
    ...@@.....
    ..........

u+00a8:
dieresis:
    ..........
    ..........
    ..........
    ..........
    ..........
    ..........
    ..........
    ..........
    ...@.@....
    ..........
    ..........
    ..........

u+00a9:
copyright:
    ..........
    ..........
    ..........
    ....@@@...
    ...@...@..
    ..@.@@@...
    ..@.@.....
    ..@.@@@...
    ...@...@..
    ....@@@...
    ..........
    ..........

u+00aa:
ordfeminine:
    ..........
    ..........
    ..........
    ..........
    ..........
    ..........
    ..........
    ....@@@...
    ...@..@...
    ...@..@...
    ....@@@...
    ..........

u+00ab:
guillemotleft:
    ..........
    ..........
    ..........
    ..........
    ..........
    ....@.@...
    ...@.@....
    ....@.@...
    ..........
    ..........
    ..........
    ..........

u+00ac:
logicalnot:
    ..........
    ..........
    ..........
    ..........
    ..@@@@@...
    ......@...
    ......@...
    ..........
    ..........
    ..........
    ..........
    ..........

u+00ae:
registered:
    ..........
    ..........
    ..........
    ...@@@....
    ..@...@...
    .@.@@@.@..
    .@.@@..@..
    .@.@.@.@..
    ..@...@...
    ...@@@....
    ..........
    ..........

u+00af:
macron:
    ..........
    ..........
    ..........
    ..........
    ..........
    ..........
    ..........
    ..........
    ..........
    ...@@@....
    ..........
    ..........

u+00b0:
degree:
    ..........
    ..........
    ..........
    ..........
    ..........
    ...@......
    ..@.@.....
    ...@......
    ..........
    ..........
    ..........
    ..........

u+00b1:
plusminus:
    ..........
    ..........
    ..........
    ....@.....
    ...@@@....
    ....@.....
    ..........
    ...@@@....
    ..........
    ..........
    ..........
    ..........

u+00b2:
uni00B2:
    ..........
    ..........
    ..........
    ..........
    ..........
    ...@@.....
    .....@....
    ....@.....
    ...@......
    ...@@@....
    ..........
    ..........

u+00b3:
uni00B3:
    ..........
    ..........
    ..........
    ..........
    ..........
    ...@@.....
    .....@....
    ...@@.....
    .....@....
    ...@@.....
    ..........
    ..........

u+00b4:
acute:
    ..........
    ..........
    ..........
    ..........
    ..........
    ..........
    ..........
    ..........
    ..........
    ....@.....
    ...@......
    ..........

u+00b5:
uni00B5:
    ..........
    ..........
    ..@..@....
    ..@..@....
    ..@..@....
    ..@..@....
    ..@@@.....
    ..@.......
    ..........
    ..........
    ..........
    ..........

u+00b6:
paragraph:
    ..........
    ..........
    ..........
    ...@@@@...
    ..@.@.@...
    ..@.@.@...
    ...@@.@...
    ....@.@...
    ....@.@...
    ..........
    ..........
    ..........

u+00b7:
periodcentered:
    ..........
    ..........
    ..........
    ..........
    ..........
    ....@@....
    ....@@....
    ..........
    ..........
    ..........
    ..........
    ..........

u+00b8:
cedilla:
    ..........
    ..........
    ..........
    ..........
    ....@.....
    .....@....
    ...@@@....
    ..........
    ..........
    ..........
    ..........
    ..........

u+00b9:
uni00B9:
    ..........
    ..........
    ..........
    ..........
    ..........
    ....@.....
    ...@@.....
    ....@.....
    ....@.....
    ..........
    ..........
    ..........

u+00ba:
ordmasculine:
    ..........
    ..........
    ..........
    ..........
    ..........
    ..........
    ..........
    ...@@.....
    ..@..@....
    ..@..@....
    ...@@.....
    ..........

u+00bb:
guillemotright:
    ..........
    ..........
    ..........
    ..........
    ..........
    ...@.@....
    ....@.@...
    ...@.@....
    ..........
    ..........
    ..........
    ..........

u+00bc:
onequarter:
    ..........
    ..........
    ..........
    ....@.....
    ...@@.....
    ....@.....
    ....@.@...
    .....@@...
    ....@.@...
    ....@@@@..
    ......@...
    ..........

u+00bd:
onehalf:
    ..........
    ..........
    ..........
    ..........
    ....@.....
    ...@@.....
    ....@.....
    ....@@@...
    .......@..
    ......@...
    .....@@@..
    ..........

u+00be:
threequarters:
    ..........
    ..........
    ..........
    ..@@......
    ....@.....
    ...@......
    ....@.@...
    ..@@.@@...
    ....@.@...
    ....@@@@..
    ......@...
    ..........

u+00bf:
questiondown:
    ..........
    ..........
    ..........
    .....@....
    ..........
    .....@....
    ....@.....
    ....@.@...
    ....@@@...
    ..........
    ..........
    ..........

u+00c0:
Agrave:
    ..........
    ..........
    ..........
    ....@.....
    .....@....
    ....@@....
    ...@..@...
    ...@..@...
    ...@@@@...
    ...@..@...
    ...@..@...
    ..........

u+00c1:
Aacute:
    ..........
    ..........
    ..........
    .....@....
    ....@.....
    ....@@....
    ...@..@...
    ...@..@...
    ...@@@@...
    ...@..@...
    ...@..@...
    ..........

u+00c2:
Acircumflex:
    ..........
    ..........
    ..........
    .....@....
    ....@.@...
    ..........
    ....@@....
    ...@..@...
    ...@..@...
    ...@@@@...
    ...@..@...
    ...@..@...

u+00c3:
Atilde:
    ..........
    ..........
    ..........
    ....@.@...
    ...@.@....
    ....@@....
    ...@..@...
    ...@..@...
    ...@@@@...
    ...@..@...
    ...@..@...
    ..........

u+00c4:
Adieresis:
    ..........
    ..........
    ..........
    ...@..@...
    ..........
    ....@@....
    ...@..@...
    ...@..@...
    ...@@@@...
    ...@..@...
    ...@..@...
    ..........

u+00c5:
Aring:
    ..........
    ..........
    ..........
    ....@@....
    ...@..@...
    ....@@....
    ...@..@...
    ...@..@...
    ...@@@@...
    ...@..@...
    ...@..@...
    ..........

u+00c6:
AE:
    ..........
    ..........
    ..........
    ...@@@@@..
    ..@..@....
    ..@..@@...
    ..@@@@....
    ..@..@....
    ..@..@@@..
    ..........
    ..........
    ..........

u+00c7:
Ccedilla:
    ..........
    ...@@@....
    ..@.......
    ..@.......
    ..@.......
    ..@.......
    ...@@@....
    ....@.....
    ...@......
    ..........
    ..........
    ..........

u+00c8:
Egrave:
    ..........
    ..........
    ..........
    ....@.....
    .....@....
    ...@@@@...
    ...@......
    ...@@@....
    ...@......
    ...@......
    ...@@@@...
    ..........

u+00c9:
Eacute:
    ..........
    ..........
    ..........
    .....@....
    ....@.....
    ...@@@@...
    ...@......
    ...@@@....
    ...@......
    ...@......
    ...@@@@...
    ..........

u+00ca:
Ecircumflex:
    ..........
    ..........
    ..........
    ....@.....
    ...@.@....
    ...@@@@...
    ...@......
    ...@@@....
    ...@......
    ...@......
    ...@@@@...
    ..........

u+00cb:
Edieresis:
    ..........
    ..........
    ..........
    ...@.@....
    ..........
    ...@@@@...
    ...@......
    ...@@@....
    ...@......
    ...@......
    ...@@@@...
    ..........

u+00cc:
Igrave:
    ..........
    ..........
    ..........
    ...@......
    ....@.....
    ..........
    ...@@@....
    ....@.....
    ....@.....
    ....@.....
    ....@.....
    ...@@@....

u+00cd:
Iacute:
    ..........
    ..........
    ..........
    .....@....
    ....@.....
    ..........
    ...@@@....
    ....@.....
    ....@.....
    ....@.....
    ....@.....
    ...@@@....

u+00ce:
Icircumflex:
    ..........
    ..........
    ..........
    ....@.....
    ...@.@....
    ..........
    ...@@@....
    ....@.....
    ....@.....
    ....@.....
    ....@.....
    ...@@@....

u+00cf:
Idieresis:
    ..........
    ..........
    ..........
    ...@.@....
    ..........
    ...@@@....
    ....@.....
    ....@.....
    ....@.....
    ....@.....
    ...@@@....
    ..........

u+00d0:
Eth:
    ..........
    ..........
    ..........
    ...@@@....
    ...@..@...
    ..@@@.@...
    ...@..@...
    ...@..@...
    ...@@@....
    ..........
    ..........
    ..........

u+00d1:
Ntilde:
    ..........
    ..........
    ..........
    ....@.@...
    ...@.@....
    ..........
    ...@@@....
    ...@..@...
    ...@..@...
    ...@..@...
    ...@..@...
    ..........

u+00d2:
Ograve:
    ..........
    ..........
    ..........
    ...@......
    ....@.....
    ..........
    ....@@....
    ...@..@...
    ...@..@...
    ...@..@...
    ....@@....
    ..........

u+00d3:
Oacute:
    ..........
    ..........
    ..........
    .....@....
    ....@.....
    ..........
    ....@@....
    ...@..@...
    ...@..@...
    ...@..@...
    ....@@....
    ..........

u+00d4:
Ocircumflex:
    ..........
    ..........
    ..........
    ....@.....
    ...@.@....
    ..........
    ....@@....
    ...@..@...
    ...@..@...
    ...@..@...
    ....@@....
    ..........

u+00d5:
Otilde:
    ..........
    ..........
    ..........
    ....@.@...
    ...@.@....
    ..........
    ....@@....
    ...@..@...
    ...@..@...
    ...@..@...
    ....@@....
    ..........

u+00d6:
Odieresis:
    ..........
    ..........
    ..........
    ...@..@...
    ..........
    ....@@....
    ...@..@...
    ...@..@...
    ...@..@...
    ....@@....
    ..........
    ..........

u+00d7:
multiply:
    ..........
    ..........
    ..........
    ..........
    ..........
    ...@.@....
    ....@.....
    ...@.@....
    ..........
    ..........
    ..........
    ..........

u+00d8:
Oslash:
    ..........
    ..........
    ......@...
    ....@@....
    ...@.@@...
    ...@.@@...
    ...@@.@...
    ...@@.@...
    ....@@....
    ...@......
    ..........
    ..........

u+00d9:
Ugrave:
    ..........
    ..........
    ..........
    ...@......
    ....@.....
    ...@..@...
    ...@..@...
    ...@..@...
    ...@..@...
    ...@..@...
    ....@@@...
    ..........

u+00da:
Uacute:
    ..........
    ..........
    ..........
    ......@...
    .....@....
    ...@..@...
    ...@..@...
    ...@..@...
    ...@..@...
    ...@..@...
    ....@@@...
    ..........

u+00db:
Ucircumflex:
    ..........
    ..........
    ..........
    .....@....
    ....@.@...
    ..........
    ...@..@...
    ...@..@...
    ...@..@...
    ...@..@...
    ...@..@...
    ....@@@...

u+00dc:
Udieresis:
    ..........
    ..........
    ..........
    ....@.@...
    ..........
    ...@..@...
    ...@..@...
    ...@..@...
    ...@..@...
    ...@..@...
    ....@@@...
    ..........

u+00dd:
Yacute:
    ..........
    ..........
    ..........
    .....@....
    ....@.....
    ..@...@...
    ...@.@....
    ....@.....
    ....@.....
    ....@.....
    ....@.....
    ..........

u+00de:
Thorn:
    ..........
    ..........
    ...@......
    ...@......
    ...@@@....
    ...@..@...
    ...@..@...
    ...@@@....
    ...@......
    ..........
    ..........
    ..........

u+00df:
germandbls:
    ..........
    ..........
    ....@@....
    ...@..@...
    ...@.@....
    ...@..@...
    ...@..@...
    ...@.@....
    ...@......
    ..........
    ..........
    ..........

u+00e0:
agrave:
    ..........
    ..........
    ..........
    ...@......
    ....@.....
    ..........
    ....@@@...
    ...@..@...
    ...@..@...
    ...@.@@...
    ....@.@...
    ..........

u+00e1:
aacute:
    ..........
    ..........
    ..........
    .....@....
    ....@.....
    ..........
    ....@@@...
    ...@..@...
    ...@..@...
    ...@.@@...
    ....@.@...
    ..........

u+00e2:
acircumflex:
    ..........
    ..........
    ..........
    ....@.....
    ...@.@....
    ..........
    ....@@@...
    ...@..@...
    ...@..@...
    ...@.@@...
    ....@.@...
    ..........

u+00e3:
atilde:
    ..........
    ..........
    ..........
    ....@.@...
    ...@.@....
    ..........
    ....@@@...
    ...@..@...
    ...@..@...
    ...@.@@...
    ....@.@...
    ..........

u+00e4:
adieresis:
    ..........
    ..........
    ..........
    ...@..@...
    ..........
    ....@@@...
    ...@..@...
    ...@..@...
    ...@.@@...
    ....@.@...
    ..........
    ..........

u+00e5:
aring:
    ..........
    ..........
    ..........
    .....@....
    ..........
    ....@@@...
    ...@..@...
    ...@..@...
    ...@.@@...
    ....@.@...
    ..........
    ..........

u+00e6:
ae:
    ..........
    ..........
    ..........
    ....@@@...
    ...@.@.@..
    ...@.@@@..
    ...@.@....
    ....@.@@..
    ..........
    ..........
    ..........
    ..........

u+00e7:
ccedilla:
    ..........
    ....@@@...
    ...@......
    ...@......
    ...@......
    ....@@@...
    .....@....
    ....@.....
    ..........
    ..........
    ..........
    ..........

u+00e8:
egrave:
    ..........
    ..........
    ..........
    ...@......
    ....@.....
    ..........
    ....@@....
    ...@..@...
    ...@@@@...
    ...@......
    ....@@@...
    ..........

u+00e9:
eacute:
    ..........
    ..........
    ..........
    .....@....
    ....@.....
    ..........
    ....@@....
    ...@..@...
    ...@@@@...
    ...@......
    ....@@@...
    ..........

u+00ea:
ecircumflex:
    ..........
    ..........
    ..........
    ....@.....
    ...@.@....
    ..........
    ....@@....
    ...@..@...
    ...@@@@...
    ...@......
    ....@@@...
    ..........

u+00eb:
edieresis:
    ..........
    ..........
    ..........
    ...@.@....
    ..........
    ....@@....
    ...@..@...
    ...@@@@...
    ...@......
    ....@@@...
    ..........
    ..........

u+00ec:
igrave:
    ..........
    ..........
    ..........
    ....@.....
    .....@....
    ..........
    ....@@....
    .....@....
    .....@....
    .....@....
    .....@....
    ..........

u+00ed:
iacute:
    ..........
    ..........
    ..........
    ......@...
    .....@....
    ..........
    ....@@....
    .....@....
    .....@....
    .....@....
    .....@....
    ..........

u+00ee:
icircumflex:
    ..........
    ..........
    ..........
    .....@....
    ....@.@...
    ..........
    ....@@....
    .....@....
    .....@....
    .....@....
    .....@....
    ..........

u+00ef:
idieresis:
    ..........
    ..........
    ..........
    ....@.@...
    ..........
    ....@@....
    .....@....
    .....@....
    .....@....
    .....@....
    ..........
    ..........

u+00f0:
eth:
    ..........
    ..........
    ..........
    ...@.@....
    ....@@....
    ...@..@...
    ....@@@...
    ...@..@...
    ...@..@...
    ...@..@...
    ....@@....
    ..........

u+00f1:
ntilde:
    ..........
    ..........
    ..........
    ....@.@...
    ...@.@....
    ..........
    ...@@@....
    ...@..@...
    ...@..@...
    ...@..@...
    ...@..@...
    ..........

u+00f2:
ograve:
    ..........
    ..........
    ..........
    ...@......
    ....@.....
    ..........
    ....@@....
    ...@..@...
    ...@..@...
    ...@..@...
    ....@@....
    ..........

u+00f3:
oacute:
    ..........
    ..........
    ..........
    ......@...
    .....@....
    ..........
    ....@@....
    ...@..@...
    ...@..@...
    ...@..@...
    ....@@....
    ..........

u+00f4:
ocircumflex:
    ..........
    ..........
    ..........
    ....@.....
    ...@.@....
    ..........
    ....@@....
    ...@..@...
    ...@..@...
    ...@..@...
    ....@@....
    ..........

u+00f5:
otilde:
    ..........
    ..........
    ..........
    ....@.@...
    ...@.@....
    ..........
    ....@@....
    ...@..@...
    ...@..@...
    ...@..@...
    ....@@....
    ..........

u+00f6:
odieresis:
    ..........
    ..........
    ..........
    ...@..@...
    ..........
    ....@@....
    ...@..@...
    ...@..@...
    ...@..@...
    ....@@....
    ..........
    ..........

u+00f7:
divide:
    ..........
    ..........
    ..........
    ..........
    ....@.....
    ..........
    ..@@@@@...
    ..........
    ....@.....
    ..........
    ..........
    ..........

u+00f8:
oslash:
    ..........
    ..........
    ......@...
    ....@@....
    ...@.@@...
    ...@..@...
    ...@@.@...
    ....@@....
    ...@......
    ..........
    ..........
    ..........

u+00f9:
ugrave:
    ..........
    ..........
    ..........
    ...@......
    ....@.....
    ..........
    ...@..@...
    ...@..@...
    ...@..@...
    ...@..@...
    ....@@@...
    ..........

u+00fa:
uacute:
    ..........
    ..........
    ..........
    .....@....
    ....@.....
    ..........
    ...@..@...
    ...@..@...
    ...@..@...
    ...@..@...
    ....@@@...
    ..........

u+00fb:
ucircumflex:
    ..........
    ..........
    ..........
    ....@.....
    ...@.@....
    ..........
    ...@..@...
    ...@..@...
    ...@..@...
    ...@..@...
    ....@@@...
    ..........

u+00fc:
udieresis:
    ..........
    ..........
    ..........
    ...@.@....
    ..........
    ...@..@...
    ...@..@...
    ...@..@...
    ...@..@...
    ....@@@...
    ..........
    ..........

u+00fd:
yacute:
    ..........
    .....@....
    ....@.....
    ..........
    ...@..@...
    ...@..@...
    ...@..@...
    ...@..@...
    ....@@@...
    ......@...
    ....@@....
    ..........

u+00fe:
thorn:
    ..........
    ...@......
    ...@......
    ...@@@....
    ...@..@...
    ...@..@...
    ...@..@...
    ...@@@....
    ...@......
    ...@......
    ..........
    ..........

u+00ff:
ydieresis:
    ..........
    ....@.@...
    ..........
    ...@..@...
    ...@..@...
    ...@..@...
    ...@..@...
    ....@@@...
    ......@...
    ....@@....
    ..........
    ..........

u+0100:
Amacron:
    ..........
    ..........
    ..........
    ...@@@@...
    ..........
    ....@@....
    ...@..@...
    ...@..@...
    ...@@@@...
    ...@..@...
    ...@..@...
    ..........

u+0101:
amacron:
    ..........
    ..........
    ..........
    ...@@@@...
    ..........
    ....@@@...
    ...@..@...
    ...@..@...
    ...@.@@...
    ....@.@...
    ..........
    ..........

u+0102:
Abreve:
    ..........
    ..........
    ..........
    ...@..@...
    ....@@....
    ..........
    ....@@....
    ...@..@...
    ...@..@...
    ...@@@@...
    ...@..@...
    ...@..@...

u+0103:
abreve:
    ..........
    ..........
    ..........
    ...@..@...
    ....@@....
    ..........
    ....@@@...
    ...@..@...
    ...@..@...
    ...@.@@...
    ....@.@...
    ..........

u+0104:
Aogonek:
    ..........
    ..........
    ....@@....
    ...@..@...
    ...@..@...
    ...@@@@...
    ...@..@...
    ...@..@...
    .......@..
    ..........
    ..........
    ..........

u+0105:
aogonek:
    ..........
    ..........
    ....@@@...
    ...@..@...
    ...@..@...
    ...@.@@...
    ....@.@...
    .......@..
    ..........
    ..........
    ..........
    ..........

u+0106:
Cacute:
    ..........
    ..........
    ..........
    .....@....
    ....@.....
    ..........
    ....@@@...
    ...@......
    ...@......
    ...@......
    ...@......
    ....@@@...

u+0107:
cacute:
    ..........
    ..........
    ..........
    .....@....
    ....@.....
    ..........
    ....@@@...
    ...@......
    ...@......
    ...@......
    ....@@@...
    ..........

u+0108:
Ccircumflex:
    ..........
    ..........
    ..........
    .....@....
    ....@.@...
    ..........
    ....@@@...
    ...@......
    ...@......
    ...@......
    ...@......
    ....@@@...

u+0109:
ccircumflex:
    ..........
    ..........
    ..........
    .....@....
    ....@.@...
    ..........
    ....@@@...
    ...@......
    ...@......
    ...@......
    ....@@@...
    ..........

u+010a:
Cdotaccent:
    ..........
    ..........
    ..........
    .....@....
    ..........
    ....@@@...
    ...@......
    ...@......
    ...@......
    ...@......
    ....@@@...
    ..........

u+010b:
cdotaccent:
    ..........
    ..........
    ..........
    .....@....
    ..........
    ....@@@...
    ...@......
    ...@......
    ...@......
    ....@@@...
    ..........
    ..........

u+010c:
Ccaron:
    ..........
    ..........
    ..........
    ....@.@...
    .....@....
    ..........
    ....@@@...
    ...@......
    ...@......
    ...@......
    ...@......
    ....@@@...

u+010d:
ccaron:
    ..........
    ..........
    ..........
    ....@.@...
    .....@....
    ..........
    ....@@@...
    ...@......
    ...@......
    ...@......
    ....@@@...
    ..........

u+010e:
Dcaron:
    ..........
    ..........
    ..........
    ...@.@....
    ....@.....
    ..........
    ...@@@....
    ...@..@...
    ...@..@...
    ...@..@...
    ...@..@...
    ...@@@....

u+010f:
dcaron:
    ..........
    ..........
    ..........
    ........@.
    ......@.@.
    ......@@..
    ....@@@...
    ...@..@...
    ...@..@...
    ...@.@@...
    ....@.@...
    ..........

u+0110:
Dcroat:
    ..........
    ..........
    ..........
    ...@@@....
    ...@..@...
    ..@@@.@...
    ...@..@...
    ...@..@...
    ...@@@....
    ..........
    ..........
    ..........

u+0111:
dcroat:
    ..........
    ..........
    ..........
    .....@@@..
    ......@...
    ....@@@...
    ...@..@...
    ...@..@...
    ...@.@@...
    ....@.@...
    ..........
    ..........

u+0112:
Emacron:
    ..........
    ..........
    ..........
    ....@@....
    ..........
    ...@@@@...
    ...@......
    ...@@@....
    ...@......
    ...@......
    ...@@@@...
    ..........

u+0113:
emacron:
    ..........
    ..........
    ..........
    ...@@@@...
    ..........
    ....@@....
    ...@..@...
    ...@@@@...
    ...@......
    ....@@@...
    ..........
    ..........

u+0114:
Ebreve:
    ..........
    ..........
    ..........
    ...@..@...
    ....@@....
    ..........
    ...@@@@...
    ...@......
    ...@@@....
    ...@......
    ...@......
    ...@@@@...

u+0115:
ebreve:
    ..........
    ..........
    ..........
    ...@..@...
    ....@@....
    ..........
    ....@@....
    ...@..@...
    ...@@@@...
    ...@......
    ....@@@...
    ..........

u+0116:
Edotaccent:
    ..........
    ..........
    ..........
    ....@.....
    ..........
    ...@@@@...
    ...@......
    ...@@@....
    ...@......
    ...@......
    ...@@@@...
    ..........

u+0117:
edotaccent:
    ..........
    ..........
    ..........
    ....@.....
    ..........
    ....@@....
    ...@..@...
    ...@@@@...
    ...@......
    ....@@@...
    ..........
    ..........

u+0118:
Eogonek:
    ..........
    ..........
    ...@@@@...
    ...@......
    ...@@@....
    ...@......
    ...@......
    ...@@@@...
    .......@..
    ..........
    ..........
    ..........

u+0119:
eogonek:
    ..........
    ..........
    ....@@....
    ...@..@...
    ...@@@@...
    ...@......
    ....@@....
    ......@...
    ..........
    ..........
    ..........
    ..........

u+011a:
Ecaron:
    ..........
    ..........
    ..........
    ...@.@....
    ....@.....
    ..........
    ...@@@@...
    ...@......
    ...@@@....
    ...@......
    ...@......
    ...@@@@...

u+011b:
ecaron:
    ..........
    ..........
    ..........
    ...@.@....
    ....@.....
    ..........
    ....@@....
    ...@..@...
    ...@@@@...
    ...@......
    ....@@@...
    ..........

u+011c:
Gcircumflex:
    ..........
    ..........
    ..........
    .....@....
    ....@.@...
    ..........
    ....@@@...
    ...@......
    ...@......
    ...@.@@...
    ...@..@...
    ....@@@...

u+011d:
gcircumflex:
    ..........
    .....@....
    ....@.@...
    ..........
    ....@@@...
    ...@..@...
    ...@..@...
    ...@.@@...
    ....@.@...
    ......@...
    ....@@....
    ..........

u+011e:
Gbreve:
    ..........
    ..........
    ..........
    ...@..@...
    ....@@....
    ..........
    ....@@@...
    ...@......
    ...@......
    ...@.@@...
    ...@..@...
    ....@@@...

u+011f:
gbreve:
    ..........
    ...@..@...
    ....@@....
    ..........
    ....@@@...
    ...@..@...
    ...@..@...
    ...@.@@...
    ....@.@...
    ......@...
    ....@@....
    ..........

u+0120:
Gdotaccent:
    ..........
    ..........
    ..........
    .....@....
    ..........
    ....@@@...
    ...@......
    ...@......
    ...@.@@...
    ...@..@...
    ....@@@...
    ..........

u+0121:
gdotaccent:
    ..........
    .....@....
    ..........
    ....@@@...
    ...@..@...
    ...@..@...
    ...@.@@...
    ....@.@...
    ......@...
    ....@@....
    ..........
    ..........

u+0122:
Gcommaaccent:
    ..........
    ....@@@...
    ...@......
    ...@......
    ...@.@@...
    ...@..@...
    ....@@@...
    .....@....
    ....@.....
    ..........
    ..........
    ..........

u+0123:
gcommaaccent:
    ..........
    .....@....
    ....@.....
    ..........
    ....@@@...
    ...@..@...
    ...@..@...
    ...@.@@...
    ....@.@...
    ......@...
    ....@@....
    ..........

u+0124:
Hcircumflex:
    ..........
    ..........
    ..........
    .....@....
    ....@.@...
    ..........
    ...@..@...
    ...@..@...
    ...@@@@...
    ...@..@...
    ...@..@...
    ...@..@...

u+0125:
hcircumflex:
    ..........
    ..........
    ..........
    .....@....
    ....@.@...
    ...@......
    ...@......
    ...@@@....
    ...@..@...
    ...@..@...
    ...@..@...
    ...@..@...

u+0126:
Hbar:
    ..........
    ..........
    ..........
    ..@@@@@@..
    ...@..@...
    ...@@@@...
    ...@..@...
    ...@..@...
    ...@..@...
    ..........
    ..........
    ..........

u+0127:
hbar:
    ..........
    ..........
    ..........
    ..@@@@....
    ...@......
    ...@@@....
    ...@..@...
    ...@..@...
    ...@..@...
    ...@..@...
    ..........
    ..........

u+0128:
Itilde:
    ..........
    ..........
    ..........
    ...@.@....
    ..@.@.....
    ..........
    ...@@@....
    ....@.....
    ....@.....
    ....@.....
    ....@.....
    ...@@@....

u+0129:
itilde:
    ..........
    ..........
    ..........
    ....@.@...
    ...@.@....
    ..........
    ....@@....
    .....@....
    .....@....
    .....@....
    .....@....
    ..........

u+012a:
Imacron:
    ..........
    ..........
    ..........
    ...@@@....
    ..........
    ...@@@....
    ....@.....
    ....@.....
    ....@.....
    ....@.....
    ...@@@....
    ..........

u+012b:
imacron:
    ..........
    ..........
    ..........
    ....@@@...
    ..........
    ....@@....
    .....@....
    .....@....
    .....@....
    .....@....
    ..........
    ..........

u+012c:
Ibreve:
    ..........
    ..........
    ..........
    ...@.@....
    ....@.....
    ..........
    ...@@@....
    ....@.....
    ....@.....
    ....@.....
    ....@.....
    ...@@@....

u+012d:
ibreve:
    ..........
    ..........
    ..........
    ....@.@...
    .....@....
    ..........
    ....@@....
    .....@....
    .....@....
    .....@....
    .....@....
    ..........

u+012e:
Iogonek:
    ..........
    ...@@@....
    ....@.....
    ....@.....
    ....@.....
    ....@.....
    ...@@@....
    ...@......
    ....@.....
    ..........
    ..........
    ..........

u+012f:
iogonek:
    ..........
    .....@....
    ..........
    ....@@....
    .....@....
    .....@....
    .....@....
    ....@@....
    ....@.....
    .....@....
    ..........
    ..........

u+0130:
Idotaccent:
    ..........
    ..........
    ..........
    ....@.....
    ..........
    ...@@@....
    ....@.....
    ....@.....
    ....@.....
    ....@.....
    ...@@@....
    ..........

u+0131:
dotlessi:
    ..........
    ..........
    ..........
    ....@@....
    .....@....
    .....@....
    .....@....
    .....@....
    ..........
    ..........
    ..........
    ..........

u+0132:
IJ:
    ..........
    ..........
    ..........
    ...@@@@@@.
    ....@...@.
    ....@...@.
    ....@...@.
    ....@.@.@.
    ...@@@.@..
    ..........
    ..........
    ..........

u+0133:
ij:
    ..........
    ..........
    ....@..@..
    ..........
    ...@@.@@..
    ....@..@..
    ....@..@..
    ....@..@..
    ....@..@..
    .....@@...
    ..........
    ..........

u+0134:
Jcircumflex:
    ..........
    ..........
    ..........
    .....@....
    ....@.@...
    ..........
    ....@@@...
    ......@...
    ......@...
    ......@...
    ...@..@...
    ....@@....

u+0135:
jcircumflex:
    ..........
    .....@....
    ....@.@...
    ..........
    ....@@....
    .....@....
    .....@....
    .....@....
    .....@....
    .....@....
    ...@@.....
    ..........

u+0136:
Kcommaaccent:
    ..........
    ...@..@...
    ...@.@....
    ...@@.....
    ...@.@....
    ...@..@...
    ...@..@...
    ....@.....
    ...@......
    ..........
    ..........
    ..........

u+0137:
kcommaaccent:
    ..........
    ...@......
    ...@......
    ...@..@...
    ...@.@....
    ...@@@....
    ...@..@...
    ...@..@...
    ....@.....
    ...@......
    ..........
    ..........

u+0138:
kgreenlandic:
    ..........
    ..........
    ..........
    ...@..@...
    ...@.@....
    ...@@@....
    ...@..@...
    ...@..@...
    ..........
    ..........
    ..........
    ..........

u+0139:
Lacute:
    ..........
    ..........
    ..........
    ......@...
    .....@....
    ...@......
    ...@......
    ...@......
    ...@......
    ...@......
    ...@@@@...
    ..........

u+013a:
lacute:
    ..........
    ..........
    ..........
    .......@..
    ......@...
    ....@@....
    .....@....
    .....@....
    .....@....
    .....@....
    .....@....
    .....@....

u+013b:
Lcommaaccent:
    ..........
    ...@......
    ...@......
    ...@......
    ...@......
    ...@......
    ...@@@@...
    .....@....
    ....@.....
    ..........
    ..........
    ..........

u+013c:
lcommaaccent:
    ..........
    ....@@....
    .....@....
    .....@....
    .....@....
    .....@....
    .....@....
    .....@....
    ....@.....
    ...@......
    ..........
    ..........

u+013d:
Lcaron:
    ..........
    ..........
    ..........
    .....@@...
    ...@..@...
    ...@......
    ...@......
    ...@......
    ...@......
    ...@@@@...
    ..........
    ..........

u+013e:
lcaron:
    ..........
    ..........
    ......@@..
    .......@..
    ....@@....
    .....@....
    .....@....
    .....@....
    .....@....
    .....@....
    .....@....
    ......@...

u+013f:
Ldot:
    ..........
    ..........
    ..........
    ...@......
    ...@......
    ...@......
    ...@.@....
    ...@......
    ...@@@@...
    ..........
    ..........
    ..........

u+0140:
ldot:
    ..........
    ..........
    ..........
    ....@@....
    .....@....
    .....@....
    .....@....
    .....@.@..
    .....@....
    .....@....
    ..........
    ..........

u+0141:
Lslash:
    ..........
    ..........
    ..........
    ...@......
    ...@.@....
    ...@@.....
    ...@......
    ...@......
    ...@@@@...
    ..........
    ..........
    ..........

u+0142:
lslash:
    ..........
    ..........
    ..........
    ....@@....
    .....@....
    .....@....
    .....@@...
    ....@@....
    .....@....
    .....@....
    ..........
    ..........

u+0143:
Nacute:
    ..........
    ..........
    ..........
    .....@....
    ....@.....
    ..........
    ...@..@...
    ...@@.@...
    ...@@.@...
    ...@.@@...
    ...@.@@...
    ...@..@...

u+0144:
nacute:
    ..........
    ..........
    ..........
    .....@....
    ....@.....
    ..........
    ...@@@....
    ...@..@...
    ...@..@...
    ...@..@...
    ...@..@...
    ..........

u+0145:
Ncommaaccent:
    ..........
    ...@..@...
    ...@@.@...
    ...@@.@...
    ...@.@@...
    ...@.@@...
    ...@@.@...
    ....@.....
    ...@......
    ..........
    ..........
    ..........

u+0146:
ncommaaccent:
    ..........
    .....@....
    ....@.....
    ..........
    ...@@@....
    ...@..@...
    ...@..@...
    ...@..@...
    ...@@.@...
    ....@.....
    ...@......
    ..........

u+0147:
Ncaron:
    ..........
    ..........
    ..........
    ....@.@...
    .....@....
    ...@..@...
    ...@@.@...
    ...@@.@...
    ...@.@@...
    ...@.@@...
    ...@..@...
    ..........

u+0148:
ncaron:
    ..........
    ..........
    ..........
    ....@.@...
    .....@....
    ..........
    ...@@@....
    ...@..@...
    ...@..@...
    ...@..@...
    ...@..@...
    ..........

u+0149:
napostrophe:
    ..........
    ..........
    ..........
    ...@......
    ...@......
    ..........
    ...@@@....
    ...@..@...
    ...@..@...
    ...@..@...
    ...@..@...
    ..........

u+014a:
Eng:
    ..........
    ...@..@...
    ...@@.@...
    ...@@.@...
    ...@.@@...
    ...@.@@...
    ...@..@...
    ......@...
    ....@@....
    ..........
    ..........
    ..........

u+014b:
eng:
    ..........
    .....@....
    ....@.....
    ..........
    ...@@@....
    ...@..@...
    ...@..@...
    ...@..@...
    ...@..@...
    ......@...
    ....@@....
    ..........

u+014c:
Omacron:
    ..........
    ..........
    ..........
    ...@@@@...
    ..........
    ....@@....
    ...@..@...
    ...@..@...
    ...@..@...
    ...@..@...
    ....@@....
    ..........

u+014d:
omacron:
    ..........
    ..........
    ..........
    ...@@@@...
    ..........
    ....@@....
    ...@..@...
    ...@..@...
    ...@..@...
    ....@@....
    ..........
    ..........

u+014e:
Obreve:
    ..........
    ..........
    ..........
    ...@..@...
    ....@@....
    ..........
    ....@@....
    ...@..@...
    ...@..@...
    ...@..@...
    ...@..@...
    ....@@....

u+014f:
obreve:
    ..........
    ..........
    ..........
    ...@..@...
    ....@@....
    ..........
    ....@@....
    ...@..@...
    ...@..@...
    ...@..@...
    ....@@....
    ..........

u+0150:
Ohungarumlaut:
    ..........
    ..........
    ..........
    ....@.@...
    ...@.@....
    ..........
    ....@@....
    ...@..@...
    ...@..@...
    ...@..@...
    ...@..@...
    ....@@....

u+0151:
ohungarumlaut:
    ..........
    ..........
    ..........
    ....@.@...
    ...@.@....
    ..........
    ....@@....
    ...@..@...
    ...@..@...
    ...@..@...
    ....@@....
    ..........

u+0152:
OE:
    ..........
    ..........
    ..........
    ...@@@@@..
    ..@..@....
    ..@..@@...
    ..@..@....
    ..@..@....
    ...@@@@@..
    ..........
    ..........
    ..........

u+0153:
oe:
    ..........
    ..........
    ..........
    ....@@@...
    ...@.@.@..
    ...@.@@@..
    ...@.@....
    ....@@@@..
    ..........
    ..........
    ..........
    ..........

u+0154:
Racute:
    ..........
    ..........
    ..........
    .....@....
    ....@.....
    ...@@@....
    ...@..@...
    ...@..@...
    ...@@@....
    ...@..@...
    ...@..@...
    ..........

u+0155:
racute:
    ..........
    ..........
    ..........
    .....@....
    ....@.....
    ..........
    ...@.@@...
    ...@@.....
    ...@......
    ...@......
    ...@......
    ..........

u+0156:
Rcommaaccent:
    ..........
    ...@@@....
    ...@..@...
    ...@..@...
    ...@@@....
    ...@..@...
    ...@..@...
    ....@.....
    ...@......
    ..........
    ..........
    ..........

u+0157:
rcommaaccent:
    ..........
    ...@.@@...
    ...@@.....
    ...@......
    ...@......
    ...@......
    ....@.....
    ...@......
    ..........
    ..........
    ..........
    ..........

u+0158:
Rcaron:
    ..........
    ..........
    ..........
    ...@.@....
    ....@.....
    ...@@@....
    ...@..@...
    ...@..@...
    ...@@@....
    ...@..@...
    ...@..@...
    ..........

u+0159:
rcaron:
    ..........
    ..........
    ..........
    ...@.@....
    ....@.....
    ..........
    ...@.@@...
    ...@@.....
    ...@......
    ...@......
    ...@......
    ..........

u+015a:
Sacute:
    ..........
    ..........
    ..........
    .....@....
    ....@.....
    ..........
    ....@@@...
    ...@......
    ....@@....
    ......@...
    ......@...
    ...@@@....

u+015b:
sacute:
    ..........
    ..........
    ..........
    .....@....
    ....@.....
    ..........
    ....@@@...
    ...@......
    ....@@....
    ......@...
    ...@@@....
    ..........

u+015c:
Scircumflex:
    ..........
    ..........
    ..........
    .....@....
    ....@.@...
    ..........
    ....@@@...
    ...@......
    ....@@....
    ......@...
    ......@...
    ...@@@....

u+015d:
scircumflex:
    ..........
    ..........
    ..........
    .....@....
    ....@.@...
    ..........
    ....@@@...
    ...@......
    ....@@....
    ......@...
    ...@@@....
    ..........

u+015e:
Scedilla:
    ..........
    ....@@@...
    ...@......
    ....@@....
    ......@...
    ......@...
    ...@@@....
    .....@....
    .....@....
    ..........
    ..........
    ..........

u+015f:
scedilla:
    ..........
    ....@@@...
    ...@......
    ....@@....
    ......@...
    ...@@@....
    .....@....
    .....@....
    ..........
    ..........
    ..........
    ..........

u+0160:
Scaron:
    ..........
    ..........
    ..........
    ....@.@...
    .....@....
    ..........
    ....@@@...
    ...@......
    ....@@....
    ......@...
    ......@...
    ...@@@....

u+0161:
scaron:
    ..........
    ..........
    ..........
    ....@.@...
    .....@....
    ..........
    ....@@@...
    ...@......
    ....@@....
    ......@...
    ...@@@....
    ..........

u+0162:
Tcommaaccent:
    ..........
    ..........
    ..@@@@@...
    ....@.....
    ....@.....
    ....@.....
    ....@.....
    ....@.....
    ...@......
    ..........
    ..........
    ..........

u+0163:
tcommaaccent:
    ..........
    ..........
    ....@.....
    ...@@@....
    ....@.....
    ....@.....
    ....@.....
    .....@....
    ....@.....
    ..........
    ..........
    ..........

u+0164:
Tcaron:
    ..........
    ..........
    ..........
    ...@.@....
    ....@.....
    ..........
    ..@@@@@...
    ....@.....
    ....@.....
    ....@.....
    ....@.....
    ....@.....

u+0165:
tcaron:
    ..........
    ..........
    ..........
    .....@@...
    ......@...
    ....@.....
    ...@@@....
    ....@.....
    ....@.....
    ....@.....
    .....@....
    ..........

u+0166:
Tbar:
    ..........
    ..........
    ..........
    ..@@@@@...
    ....@.....
    ....@.....
    ...@@@....
    ....@.....
    ....@.....
    ..........
    ..........
    ..........

u+0167:
tbar:
    ..........
    ..........
    ..........
    ....@.....
    ...@@@....
    ....@.....
    ...@@@....
    ....@.....
    .....@....
    ..........
    ..........
    ..........

u+0168:
Utilde:
    ..........
    ..........
    ..........
    ....@.@...
    ...@.@....
    ..........
    ...@..@...
    ...@..@...
    ...@..@...
    ...@..@...
    ...@..@...
    ....@@@...

u+0169:
utilde:
    ..........
    ..........
    ..........
    ....@.@...
    ...@.@....
    ..........
    ...@..@...
    ...@..@...
    ...@..@...
    ...@..@...
    ....@@@...
    ..........

u+016a:
Umacron:
    ..........
    ..........
    ..........
    ...@@@@...
    ..........
    ...@..@...
    ...@..@...
    ...@..@...
    ...@..@...
    ...@..@...
    ....@@@...
    ..........

u+016b:
umacron:
    ..........
    ..........
    ..........
    ...@@@@...
    ..........
    ...@..@...
    ...@..@...
    ...@..@...
    ...@..@...
    ....@@@...
    ..........
    ..........

u+016c:
Ubreve:
    ..........
    ..........
    ..........
    ...@..@...
    ....@@....
    ..........
    ...@..@...
    ...@..@...
    ...@..@...
    ...@..@...
    ...@..@...
    ....@@@...

u+016d:
ubreve:
    ..........
    ..........
    ..........
    ...@..@...
    ....@@....
    ..........
    ...@..@...
    ...@..@...
    ...@..@...
    ...@..@...
    ....@@@...
    ..........

u+016e:
Uring:
    ..........
    ..........
    ..........
    .....@....
    ....@.@...
    .....@....
    ...@..@...
    ...@..@...
    ...@..@...
    ...@..@...
    ...@..@...
    ....@@@...

u+016f:
uring:
    ..........
    ..........
    ..........
    .....@....
    ....@.@...
    .....@....
    ...@..@...
    ...@..@...
    ...@..@...
    ...@..@...
    ....@@@...
    ..........

u+0170:
Uhungarumlaut:
    ..........
    ..........
    ..........
    ....@..@..
    ...@..@...
    ..........
    ...@..@...
    ...@..@...
    ...@..@...
    ...@..@...
    ...@..@...
    ....@@@...

u+0171:
uhungarumlaut:
    ..........
    ..........
    ..........
    ....@..@..
    ...@..@...
    ..........
    ...@..@...
    ...@..@...
    ...@..@...
    ...@..@...
    ....@@@...
    ..........

u+0172:
Uogonek:
    ..........
    ...@..@...
    ...@..@...
    ...@..@...
    ...@..@...
    ...@..@...
    ....@@@...
    ....@.....
    .....@....
    ..........
    ..........
    ..........

u+0173:
uogonek:
    ..........
    ...@..@...
    ...@..@...
    ...@..@...
    ...@..@...
    ....@@@...
    ....@.....
    .....@....
    ..........
    ..........
    ..........
    ..........

u+0174:
Wcircumflex:
    ..........
    ..........
    ..........
    .....@....
    ....@.@...
    ..........
    ...@..@...
    ...@..@...
    ...@..@...
    ...@..@...
    ...@@@@...
    ...@..@...

u+0175:
wcircumflex:
    ..........
    ..........
    ..........
    .....@....
    ....@.@...
    ..........
    ...@..@...
    ...@..@...
    ...@..@...
    ...@@@@...
    ...@..@...
    ..........

u+0176:
Ycircumflex:
    ..........
    ..........
    ..........
    ....@.....
    ...@.@....
    ..........
    ..@...@...
    ..@...@...
    ...@.@....
    ....@.....
    ....@.....
    ....@.....

u+0177:
ycircumflex:
    ..........
    .....@....
    ....@.@...
    ..........
    ...@..@...
    ...@..@...
    ...@..@...
    ...@..@...
    ....@@@...
    ......@...
    ....@@....
    ..........

u+0178:
Ydieresis:
    ..........
    ..........
    ..........
    ...@.@....
    ..........
    ..@...@...
    ..@...@...
    ...@.@....
    ....@.....
    ....@.....
    ....@.....
    ..........

u+0179:
Zacute:
    ..........
    ..........
    ..........
    .....@....
    ....@.....
    ..........
    ...@@@@...
    ......@...
    .....@....
    ....@.....
    ...@......
    ...@@@@...

u+017a:
zacute:
    ..........
    ..........
    ..........
    .....@....
    ....@.....
    ..........
    ...@@@@...
    .....@....
    ....@.....
    ...@......
    ...@@@@...
    ..........

u+017b:
Zdotaccent:
    ..........
    ..........
    ..........
    .....@....
    ..........
    ...@@@@...
    ......@...
    .....@....
    ....@.....
    ...@......
    ...@@@@...
    ..........

u+017c:
zdotaccent:
    ..........
    ..........
    ..........
    .....@....
    ..........
    ...@@@@...
    .....@....
    ....@.....
    ...@......
    ...@@@@...
    ..........
    ..........

u+017d:
Zcaron:
    ..........
    ..........
    ..........
    ....@.@...
    .....@....
    ..........
    ...@@@@...
    ......@...
    .....@....
    ....@.....
    ...@......
    ...@@@@...

u+017e:
zcaron:
    ..........
    ..........
    ..........
    ....@.@...
    .....@....
    ..........
    ...@@@@...
    .....@....
    ....@.....
    ...@......
    ...@@@@...
    ..........

u+017f:
longs:
    ..........
    ..........
    ..........
    .....@@...
    ....@.....
    ...@@.....
    ....@.....
    ....@.....
    ....@.....
    ....@.....
    ..........
    ..........

u+0180:
uni0180:
    ..........
    ..........
    ..........
    ..@@@.....
    ...@......
    ...@@@....
    ...@..@...
    ...@..@...
    ...@..@...
    ...@@@....
    ..........
    ..........

u+0181:
uni0181:
    ..........
    ..........
    ..........
    ..@@@@....
    ...@..@...
    ...@@@....
    ...@..@...
    ...@..@...
    ...@@@....
    ..........
    ..........
    ..........

u+0182:
uni0182:
    ..........
    ..........
    ..........
    ...@@@....
    ...@.@....
    ...@......
    ...@@@@...
    ...@...@..
    ...@...@..
    ...@...@..
    ...@@@@...
    ..........

u+0183:
uni0183:
    ..........
    ..........
    ..........
    ...@@@....
    ...@.@....
    ...@......
    ...@@@....
    ...@..@...
    ...@..@...
    ...@..@...
    ...@@@....
    ..........

u+0184:
uni0184:
    ..........
    ..........
    ..........
    ...@......
    ..@@......
    ...@@@@...
    ...@...@..
    ...@...@..
    ...@...@..
    ...@@@@...
    ..........
    ..........

u+0185:
uni0185:
    ..........
    ..........
    ..........
    ...@......
    ..@@......
    ...@@@....
    ...@..@...
    ...@..@...
    ...@..@...
    ...@@@....
    ..........
    ..........

u+0186:
uni0186:
    ..........
    ..........
    ..........
    ...@@@....
    ......@...
    ......@...
    ......@...
    ......@...
    ...@@@....
    ..........
    ..........
    ..........

u+0187:
uni0187:
    ..........
    ..........
    ..........
    .......@..
    ....@@@...
    ...@......
    ...@......
    ...@......
    ...@......
    ....@@@...
    ..........
    ..........

u+0188:
uni0188:
    ..........
    ..........
    ..........
    ....@@@...
    ...@......
    ...@......
    ...@......
    ....@@@...
    ..........
    ..........
    ..........
    ..........

u+0189:
uni0189:
    ..........
    ..........
    ..........
    ...@@@....
    ...@..@...
    ..@@@.@...
    ...@..@...
    ...@..@...
    ...@@@....
    ..........
    ..........
    ..........

u+018a:
uni018A:
    ..........
    ..........
    ..........
    ..@@@@....
    .@.@..@...
    ...@..@...
    ...@..@...
    ...@..@...
    ...@@@....
    ..........
    ..........
    ..........

u+018b:
uni018B:
    ..........
    ..........
    ..........
    .....@@@..
    .....@.@..
    .......@..
    ....@@@@..
    ...@...@..
    ...@...@..
    ...@..@@..
    ....@@.@..
    ..........

u+018c:
uni018C:
    ..........
    ..........
    ..........
    ....@@@...
    ....@.@...
    ......@...
    ....@@@...
    ...@..@...
    ...@..@...
    ...@.@@...
    ....@.@...
    ..........

u+018e:
uni018E:
    ..........
    ..........
    ..........
    ...@@@@...
    ..@...@...
    ....@@@...
    ......@...
    ......@...
    ...@@@@...
    ..........
    ..........
    ..........

u+018f:
uni018F:
    ..........
    ..........
    ..........
    ...@@@....
    ......@...
    ...@@@@...
    ...@..@...
    ....@@....
    ..........
    ..........
    ..........
    ..........

u+0190:
uni0190:
    ..........
    ..........
    ..........
    ....@@....
    ...@..@...
    ....@.....
    ...@......
    ...@..@...
    ....@@....
    ..........
    ..........
    ..........

u+0192:
florin:
    ..........
    ..........
    .....@@...
    ....@.....
    ....@@....
    ....@.....
    ....@.....
    ....@.....
    ....@.....
    ...@......
    ..........
    ..........

u+0193:
uni0193:
    ..........
    ..........
    ..........
    ....@@@.@@
    ...@...@.@
    ...@......
    ...@.@@...
    ...@..@...
    ....@@@...
    ..........
    ..........
    ..........

u+0197:
uni0197:
    ..........
    ..........
    ..........
    ...@@@....
    ..........
    ...@@@....
    ....@.....
    ....@.....
    ....@.....
    ....@.....
    ...@@@....
    ..........

u+019a:
uni019A:
    ..........
    ..........
    ..........
    ...@@.....
    ....@.....
    ....@.....
    ...@@@....
    ....@.....
    ....@.....
    ....@.....
    ..........
    ..........

u+019e:
uni019E:
    ..........
    ..........
    ...@@@....
    ...@..@...
    ...@..@...
    ...@..@...
    ...@..@...
    ......@...
    ..........
    ..........
    ..........
    ..........

u+019f:
uni019F:
    ..........
    ..........
    ..........
    ...@@.....
    ..@..@....
    ..@@@@....
    ..@..@....
    ...@@.....
    ..........
    ..........
    ..........
    ..........

u+01a0:
Ohorn:
    ..........
    ..........
    ..........
    ........@.
    ........@.
    ....@@.@..
    ...@..@...
    ...@..@...
    ...@..@...
    ...@..@...
    ....@@....
    ..........

u+01a1:
ohorn:
    ..........
    ..........
    ..........
    ........@.
    ........@.
    .......@..
    ....@@....
    ...@..@...
    ...@..@...
    ...@..@...
    ....@@....
    ..........

u+01a2:
uni01A2:
    ..........
    ..........
    ..........
    .......@..
    ....@@..@.
    ...@..@.@.
    ...@..@.@.
    ...@..@.@.
    ...@..@.@.
    ....@@..@.
    ..........
    ..........

u+01a3:
uni01A3:
    ..........
    ..........
    ..........
    .......@..
    ....@@..@.
    ...@..@.@.
    ...@..@.@.
    ...@..@.@.
    ....@@..@.
    ..........
    ..........
    ..........

u+01a4:
uni01A4:
    ..........
    ..........
    ..........
    .@@@@@....
    .@.@..@...
    ...@..@...
    ...@@@....
    ...@......
    ...@......
    ..........
    ..........
    ..........

u+01a5:
uni01A5:
    ..........
    .......@@.
    ......@.@.
    ...@@@....
    ...@..@...
    ...@..@...
    ...@..@...
    ...@@@....
    ...@......
    ...@......
    ..........
    ..........

u+01a7:
uni01A7:
    ..........
    ..........
    ..........
    ...@@@....
    ......@...
    ....@@....
    ...@......
    ...@......
    ....@@@...
    ..........
    ..........
    ..........

u+01a8:
uni01A8:
    ..........
    ..........
    ..........
    ...@@@....
    ......@...
    ....@@....
    ...@......
    ....@@@...
    ..........
    ..........
    ..........
    ..........

u+01a9:
uni01A9:
    ..........
    ..........
    ..........
    ..@@@@@...
    ...@..@...
    ....@.....
    ...@......
    ..@...@...
    ..@@@@@...
    ..........
    ..........
    ..........

u+01ab:
uni01AB:
    ..........
    ..........
    ....@.....
    ...@@@....
    ....@.....
    ....@.....
    ....@.....
    .....@....
    ....@.....
    ..........
    ..........
    ..........

u+01ac:
uni01AC:
    ..........
    ..........
    ..........
    ..@@@@@...
    ....@.@...
    ....@.....
    ....@.....
    ....@.....
    ....@.....
    ..........
    ..........
    ..........

u+01ae:
uni01AE:
    ..........
    ..........
    ..........
    ..@@@@@...
    ..@.@.@...
    ....@.....
    ....@.....
    ....@.....
    ....@.....
    ..........
    ..........
    ..........

u+0250:
uni0250:
    ..........
    ..........
    ..........
    ...@.@....
    ...@@.@...
    ...@..@...
    ...@..@...
    ...@@@....
    ..........
    ..........
    ..........
    ..........

u+0251:
uni0251:
    ..........
    ..........
    ..........
    ....@.@...
    ...@.@@...
    ...@..@...
    ...@.@@...
    ....@.@...
    ..........
    ..........
    ..........
    ..........

u+0252:
uni0252:
    ..........
    ..........
    ..........
    ...@.@....
    ...@@.@...
    ...@..@...
    ...@@.@...
    ...@.@....
    ..........
    ..........
    ..........
    ..........

u+0253:
uni0253:
    ..........
    ..........
    ..........
    ...@......
    ...@......
    ...@@@....
    ...@..@...
    ...@..@...
    ...@..@...
    ...@@@....
    ..........
    ..........

u+0254:
uni0254:
    ..........
    ..........
    ..........
    ....@@....
    ...@..@...
    ...@......
    ...@..@...
    ....@@....
    ..........
    ..........
    ..........
    ..........

u+0255:
uni0255:
    ..........
    ..........
    ..........
    ....@@....
    ...@..@...
    ...@......
    ...@.@@...
    ....@@....
    ..........
    ..........
    ..........
    ..........

u+0256:
uni0256:
    ..........
    ..........
    ......@...
    ......@...
    ....@@@...
    ...@..@...
    ...@..@...
    ...@.@@...
    ....@.@...
    .......@..
    ..........
    ..........

u+0257:
uni0257:
    ..........
    ..........
    ..........
    .......@..
    ......@...
    ......@...
    ....@@@...
    ...@..@...
    ...@..@...
    ...@.@@...
    ....@.@...
    ..........

u+0258:
uni0258:
    ..........
    ..........
    ..........
    ....@@....
    ...@..@...
    ...@@@@...
    ......@...
    ...@@@....
    ..........
    ..........
    ..........
    ..........

u+0259:
uni0259:
    ..........
    ..........
    ..........
    ...@@@....
    ......@...
    ...@@@@...
    ...@..@...
    ....@@....
    ..........
    ..........
    ..........
    ..........

u+025a:
uni025A:
    ..........
    ..........
    ..........
    ...@@@.@..
    ......@...
    ...@@@@...
    ...@..@...
    ....@@....
    ..........
    ..........
    ..........
    ..........

u+025b:
uni025B:
    ..........
    ..........
    ..........
    ....@@@...
    ...@......
    ....@@....
    ...@......
    ...@......
    ....@@@...
    ..........
    ..........
    ..........

u+025c:
uni025C:
    ..........
    ..........
    ..........
    ...@@@....
    ......@...
    ....@@....
    ......@...
    ......@...
    ...@@@....
    ..........
    ..........
    ..........

u+025d:
uni025D:
    ..........
    ..........
    ..........
    ...@@@.@..
    ......@...
    ....@@....
    ......@...
    ......@...
    ...@@@....
    ..........
    ..........
    ..........

u+025e:
uni025E:
    ..........
    ..........
    ..........
    ....@@....
    ...@..@...
    ...@.@....
    ...@..@...
    ...@..@...
    ....@@....
    ..........
    ..........
    ..........

u+025f:
uni025F:
    ..........
    ....@@....
    .....@....
    .....@@...
    ....@@....
    .....@....
    .....@....
    ...@@.....
    ..........
    ..........
    ..........
    ..........

u+0260:
uni0260:
    ..........
    .......@..
    ....@@@...
    ...@..@...
    ...@..@...
    ...@.@@...
    ....@.@...
    ......@...
    ....@@....
    ..........
    ..........
    ..........

u+0261:
uni0261:
    ..........
    ....@@@...
    ...@..@...
    ...@..@...
    ...@.@@...
    ....@.@...
    ......@...
    ....@@....
    ..........
    ..........
    ..........
    ..........

u+0262:
uni0262:
    ..........
    ..........
    ..........
    ....@@@...
    ...@......
    ...@.@@...
    ...@..@...
    ....@@@...
    ..........
    ..........
    ..........
    ..........

u+0263:
uni0263:
    ..........
    ...@..@...
    ...@..@...
    ...@..@...
    ....@@....
    ....@@....
    ...@..@...
    ....@@....
    ..........
    ..........
    ..........
    ..........

u+0264:
uni0264:
    ..........
    ..@....@..
    ...@..@...
    ...@..@...
    ....@@....
    ....@@....
    ...@..@...
    ....@@....
    ..........
    ..........
    ..........
    ..........

u+0265:
uni0265:
    ..........
    ..........
    ..........
    ...@..@...
    ...@..@...
    ...@..@...
    ...@..@...
    ....@@@...
    ......@...
    ......@...
    ..........
    ..........

u+0266:
uni0266:
    ..........
    ..........
    ..........
    ....@@....
    ...@......
    ...@......
    ...@@@....
    ...@..@...
    ...@..@...
    ...@..@...
    ...@..@...
    ..........

u+0267:
uni0267:
    ..........
    ..........
    ....@@....
    ...@......
    ...@......
    ...@@@....
    ...@..@...
    ...@..@...
    ...@..@...
    ...@..@...
    .....@....
    ..........

u+0268:
uni0268:
    ..........
    ..........
    ..........
    .....@....
    ..........
    ....@@....
    .....@....
    ....@@@...
    .....@....
    .....@....
    ..........
    ..........

u+0269:
uni0269:
    ..........
    ..........
    ....@@....
    .....@....
    .....@....
    .....@....
    .....@....
    ......@...
    ..........
    ..........
    ..........
    ..........

u+026a:
uni026A:
    ..........
    ..........
    ..........
    ...@@@....
    ....@.....
    ....@.....
    ....@.....
    ...@@@....
    ..........
    ..........
    ..........
    ..........

u+026b:
uni026B:
    ..........
    ..........
    ..........
    ....@@....
    .....@....
    .....@....
    ....@@.@..
    ...@.@@...
    .....@....
    .....@....
    ..........
    ..........

u+026c:
uni026C:
    ..........
    ..........
    ..........
    ....@@....
    .....@....
    ....@@....
    ...@.@....
    ....@@@...
    .....@....
    .....@....
    ..........
    ..........

u+026d:
uni026D:
    ..........
    ..........
    ....@@....
    .....@....
    .....@....
    .....@....
    .....@....
    .....@....
    .....@....
    ......@...
    ..........
    ..........

u+026e:
uni026E:
    ..........
    ..........
    ..@.......
    ..@@@@@...
    ..@...@...
    ..@..@....
    ..@.@@....
    ..@...@...
    ...@..@...
    ....@@....
    ..........
    ..........

u+026f:
uni026F:
    ..........
    ..........
    ..........
    ...@..@...
    ...@..@...
    ...@..@...
    ...@@@@...
    ...@..@...
    ..........
    ..........
    ..........
    ..........

u+0270:
uni0270:
    ..........
    ..........
    ...@..@...
    ...@..@...
    ...@..@...
    ...@@@@...
    ...@..@...
    ......@...
    ..........
    ..........
    ..........
    ..........

u+0271:
uni0271:
    ..........
    ..........
    ...@..@...
    ...@@@@...
    ...@..@...
    ...@..@...
    ...@..@...
    .....@....
    ..........
    ..........
    ..........
    ..........

u+0272:
uni0272:
    ..........
    ..........
    ...@@@....
    ...@..@...
    ...@..@...
    ...@..@...
    ...@..@...
    ..@.......
    ..........
    ..........
    ..........
    ..........

u+0273:
uni0273:
    ..........
    ..........
    ...@@@....
    ...@..@...
    ...@..@...
    ...@..@...
    ...@..@...
    .......@..
    ..........
    ..........
    ..........
    ..........

u+0274:
uni0274:
    ..........
    ..........
    ..........
    ...@..@...
    ...@@.@...
    ...@.@@...
    ...@..@...
    ...@..@...
    ..........
    ..........
    ..........
    ..........

u+0275:
uni0275:
    ..........
    ..........
    ..........
    ....@@....
    ...@..@...
    ...@@@@...
    ...@..@...
    ....@@....
    ..........
    ..........
    ..........
    ..........

u+0276:
uni0276:
    ..........
    ..........
    ..........
    ....@@@@..
    ...@..@.@.
    ...@..@@@.
    ...@..@...
    ....@@@@@.
    ..........
    ..........
    ..........
    ..........

u+0277:
uni0277:
    ..........
    ..........
    ..........
    ...@@@....
    ..@...@...
    ..@...@...
    ..@.@.@...
    ..@@.@@...
    ..........
    ..........
    ..........
    ..........

u+0278:
uni0278:
    ..........
    ..........
    ..........
    ....@.....
    ...@@@....
    ..@.@.@...
    ..@.@.@...
    ..@.@.@...
    ...@@@....
    ....@.....
    ..........
    ..........

u+0279:
uni0279:
    ..........
    ..........
    ..........
    ......@...
    ......@...
    ......@...
    .....@@...
    ...@@.@...
    ..........
    ..........
    ..........
    ..........

u+027a:
uni027A:
    ..........
    ..........
    ..........
    ......@...
    ......@...
    ......@...
    ......@...
    .....@@...
    ...@@.@...
    ..........
    ..........
    ..........

u+027b:
uni027B:
    ..........
    ..........
    ......@...
    ......@...
    ......@...
    .....@@...
    ...@@.@...
    .......@..
    ..........
    ..........
    ..........
    ..........

u+027c:
uni027C:
    ..........
    ..........
    ..........
    ...@.@@...
    ...@@.....
    ...@......
    ...@......
    ...@......
    ...@......
    ..........
    ..........
    ..........

u+027d:
uni027D:
    ..........
    ..........
    ...@.@@...
    ...@@.....
    ...@......
    ...@......
    ...@......
    ...@......
    ....@.....
    ..........
    ..........
    ..........

u+027e:
uni027E:
    ..........
    ..........
    ..........
    ....@@....
    ...@..@...
    ...@......
    ...@......
    ...@......
    ..........
    ..........
    ..........
    ..........

u+027f:
uni027F:
    ..........
    ..........
    ..........
    ....@@....
    ...@..@...
    ......@...
    ......@...
    ......@...
    ..........
    ..........
    ..........
    ..........

u+0280:
uni0280:
    ..........
    ..........
    ..........
    ....@@@...
    ...@..@...
    ...@..@...
    ....@@@...
    ...@..@...
    ...@..@...
    ..........
    ..........
    ..........

u+0281:
uni0281:
    ..........
    ..........
    ..........
    ...@..@...
    ...@..@...
    ...@@@....
    ...@..@...
    ...@..@...
    ...@@@....
    ..........
    ..........
    ..........

u+0282:
uni0282:
    ..........
    ....@@@...
    ...@......
    ....@@....
    ......@...
    ...@@@....
    ...@......
    ....@.....
    ..........
    ..........
    ..........
    ..........

u+0283:
uni0283:
    ..........
    ..........
    .....@@...
    ....@.....
    ....@.....
    ....@.....
    ....@.....
    ....@.....
    ....@.....
    ..@@......
    ..........
    ..........

u+0284:
uni0284:
    ..........
    ..........
    .....@@...
    ....@.....
    ....@.....
    ...@@@....
    ....@.....
    ....@.....
    ....@.....
    ..@@......
    ..........
    ..........

u+0285:
uni0285:
    ..........
    ..........
    ...@......
    ....@.....
    ....@.....
    ....@.....
    ....@.....
    ....@.....
    .....@....
    ..........
    ..........
    ..........

u+0286:
uni0286:
    ..........
    ..........
    .....@....
    ....@.....
    ....@.....
    ....@.....
    ....@.....
    ...@@.....
    ..@.@@....
    ...@..@...
    ..........
    ..........

u+0287:
uni0287:
    ..........
    ..........
    ..........
    ...@@.....
    .....@....
    .....@....
    ....@@@...
    .....@....
    .....@....
    .....@....
    ..........
    ..........

u+0288:
uni0288:
    ..........
    ..........
    ..........
    ...@..@...
    ...@@@@...
    ...@..@...
    ...@..@...
    ....@@@...
    ..........
    ..........
    ..........
    ..........

u+0289:
uni0289:
    ..........
    ..........
    ..........
    ...@..@...
    ....@@....
    ...@..@...
    ...@..@...
    ....@@@...
    ..........
    ..........
    ..........
    ..........

u+028a:
uni028A:
    ..........
    ..........
    ..........
    ...@.@....
    ...@..@...
    ...@..@...
    ....@@....
    ....@@....
    ..........
    ..........
    ..........
    ..........

u+028b:
uni028B:
    ..........
    ..........
    ..........
    ....@@....
    ....@@....
    ...@..@...
    ...@..@...
    ...@..@...
    ..........
    ..........
    ..........
    ..........

u+028c:
uni028C:
    ..........
    ..........
    ..........
    ....@@....
    ....@@....
    ...@..@...
    ...@..@...
    ..@....@..
    ..........
    ..........
    ..........
    ..........

u+028d:
uni028D:
    ..........
    ..........
    ..........
    ...@..@...
    ...@@@@...
    ...@..@...
    ...@..@...
    ...@..@...
    ..........
    ..........
    ..........
    ..........

u+028e:
uni028E:
    ..........
    ....@@....
    ...@......
    ...@@@....
    ...@..@...
    ...@..@...
    ...@..@...
    ...@..@...
    ..........
    ..........
    ..........
    ..........

u+028f:
uni028F:
    ..........
    ..........
    ..........
    ..@...@...
    ...@.@....
    ....@.....
    ....@.....
    ..........
    ..........
    ..........
    ..........
    ..........

u+0290:
uni0290:
    ..........
    ...@@@@...
    .....@....
    ....@.....
    ...@......
    ...@@@@...
    ......@...
    .....@....
    ..........
    ..........
    ..........
    ..........

u+0291:
uni0291:
    ..........
    ..........
    ...@@@@...
    .....@....
    ....@.....
    ...@.@....
    ...@@@@...
    .....@....
    ..........
    ..........
    ..........
    ..........

u+0292:
uni0292:
    ..........
    ...@@@@...
    .....@....
    ....@.....
    .....@....
    ......@...
    ...@..@...
    ....@@....
    ..........
    ..........
    ..........
    ..........

u+0293:
uni0293:
    ..........
    ...@@@@...
    .....@....
    ....@.....
    .....@....
    ....@.@...
    ...@.@@...
    ....@@....
    ..........
    ..........
    ..........
    ..........

u+0294:
uni0294:
    ..........
    ..........
    ..........
    ...@@@....
    ..@...@...
    ......@...
    .....@....
    ....@.....
    ....@.....
    ....@.....
    ..........
    ..........

u+0295:
uni0295:
    ..........
    ..........
    ..........
    ...@@@....
    ..@...@...
    ..@.......
    ...@......
    ....@.....
    ....@.....
    ....@.....
    ..........
    ..........

u+0296:
uni0296:
    ..........
    ..........
    ..........
    ....@.....
    ....@.....
    ....@.....
    .....@....
    ......@...
    ..@...@...
    ...@@@....
    ..........
    ..........

u+0297:
uni0297:
    ..........
    ..........
    ....@@@...
    ...@......
    ...@......
    ...@......
    ...@......
    ...@......
    ....@@@...
    ..........
    ..........
    ..........

u+0298:
uni0298:
    ..........
    ..........
    ..........
    ...@@@....
    ..@...@...
    ..@.@.@...
    ..@...@...
    ...@@@....
    ..........
    ..........
    ..........
    ..........

u+0299:
uni0299:
    ..........
    ..........
    ..........
    ...@@@....
    ...@..@...
    ...@@@....
    ...@..@...
    ...@@@....
    ..........
    ..........
    ..........
    ..........

u+029a:
uni029A:
    ..........
    ..........
    ..........
    ....@@....
    ...@..@...
    ....@@@...
    ...@..@...
    ....@@....
    ..........
    ..........
    ..........
    ..........

u+029b:
uni029B:
    ..........
    ..........
    ..........
    .......@..
    ....@@@...
    ...@......
    ...@.@@...
    ...@..@...
    ....@@@...
    ..........
    ..........
    ..........

u+029c:
uni029C:
    ..........
    ..........
    ..........
    ...@..@...
    ...@..@...
    ...@@@@...
    ...@..@...
    ...@..@...
    ..........
    ..........
    ..........
    ..........

u+029d:
uni029D:
    ..........
    .....@....
    ..........
    ....@@....
    .....@....
    .....@....
    .....@....
    ....@@@...
    ...@.@....
    ...@@.....
    ..........
    ..........

u+029e:
uni029E:
    ..........
    ..........
    ..........
    ...@..@...
    ...@..@...
    ....@@@...
    ....@.@...
    ...@..@...
    ......@...
    ......@...
    ..........
    ..........

u+029f:
uni029F:
    ..........
    ..........
    ..........
    ...@......
    ...@......
    ...@......
    ...@......
    ...@@@@...
    ..........
    ..........
    ..........
    ..........

u+02a0:
uni02A0:
    ..........
    .......@..
    ....@@@...
    ...@..@...
    ...@..@...
    ...@..@...
    ....@@@...
    ......@...
    ......@...
    ..........
    ..........
    ..........

u+02a1:
uni02A1:
    ..........
    ..........
    ..........
    ...@@@....
    ..@...@...
    ......@...
    .....@....
    ....@.....
    ...@@@....
    ....@.....
    ..........
    ..........

u+02a2:
uni02A2:
    ..........
    ..........
    ..........
    ...@@@....
    ..@...@...
    ..@.......
    ...@......
    ....@.....
    ...@@@....
    ....@.....
    ..........
    ..........

u+02a3:
uni02A3:
    ..........
    ..........
    ..........
    ....@.....
    ....@.....
    ...@@@@@..
    ..@.@..@..
    ..@.@.@...
    ..@.@@....
    ...@@@@@..
    ..........
    ..........

u+02a4:
uni02A4:
    ..........
    ..........
    ....@.....
    ....@.....
    ...@@@@@..
    ..@.@..@..
    ..@.@.@...
    ..@.@..@..
    ...@@@.@..
    ......@...
    ..........
    ..........

u+02a5:
uni02A5:
    ..........
    ..........
    ....@.....
    ....@.....
    ...@@@@@..
    ..@.@..@..
    ..@.@.@...
    ..@.@@.@..
    ...@@@@@..
    .....@....
    ..........
    ..........

u+02a6:
uni02A6:
    ..........
    ..........
    ..........
    ...@......
    ..@@@@@@..
    ...@@.....
    ...@.@@...
    ...@...@..
    ....@@@...
    ..........
    ..........
    ..........

u+02a7:
uni02A7:
    ..........
    ......@...
    ...@.@....
    ..@@@@....
    ...@.@....
    ...@.@....
    ...@.@....
    ....@@....
    .....@....
    ....@.....
    ..........
    ..........

u+02a8:
uni02A8:
    ..........
    ..........
    ...@......
    ..@@@.@@..
    ...@.@....
    ...@.@@...
    ...@.@.@..
    ....@@@@..
    .....@....
    ..........
    ..........
    ..........

u+02a9:
uni02A9:
    ..........
    ....@.....
    ...@......
    ...@......
    ..@@@@@...
    ...@.@.@..
    ...@.@.@..
    ...@.@.@..
    ......@...
    .....@....
    ..........
    ..........

u+02aa:
uni02AA:
    ..........
    ..........
    ..........
    ..@.......
    ..@.......
    ..@.@@@...
    ..@@......
    ..@.@@....
    ..@...@...
    ..@@@@....
    ..........
    ..........

u+02ab:
uni02AB:
    ..........
    ..........
    ..........
    ..@.......
    ..@.......
    ..@@@@@...
    ..@..@....
    ..@.@.....
    ..@@......
    ..@@@@@...
    ..........
    ..........

u+02ac:
uni02AC:
    ..........
    ..........
    ..........
    ..@.@.@...
    ..@.@.@...
    ...@.@....
    ..@.@.@...
    ..@.@.@...
    ...@.@....
    ..........
    ..........
    ..........

u+02ad:
uni02AD:
    ..........
    ..........
    ..........
    ..@@@@@...
    ..@...@...
    ..........
    ..@@@@@...
    ..@...@...
    ..........
    ..........
    ..........
    ..........

u+02ae:
uni02AE:
    ..........
    ..........
    ..........
    ..@...@...
    ...@..@...
    ...@..@...
    ...@..@...
    ....@@@...
    ......@...
    ......@...
    ..........
    ..........

u+02af:
uni02AF:
    ..........
    ..........
    ..@...@...
    ...@..@...
    ...@..@...
    ...@..@...
    ....@@@...
    ......@...
    ......@...
    .......@..
    ..........
    ..........

u+02c2:
uni02C2:
    ..........
    ..........
    ..........
    .....@....
    ....@.....
    ...@......
    ....@.....
    .....@....
    ..........
    ..........
    ..........
    ..........

u+02c3:
uni02C3:
    ..........
    ..........
    ..........
    ...@......
    ....@.....
    .....@....
    ....@.....
    ...@......
    ..........
    ..........
    ..........
    ..........

u+02c4:
uni02C4:
    ..........
    ..........
    ..........
    ..........
    ..........
    ..@...@...
    ...@.@....
    ....@.....
    ..........
    ..........
    ..........
    ..........

u+02c5:
uni02C5:
    ..........
    ..........
    ..........
    ..........
    ..........
    ....@.....
    ...@.@....
    ..@...@...
    ..........
    ..........
    ..........
    ..........

u+02c6:
circumflex:
    ..........
    ..........
    ..........
    ..........
    ..........
    ..........
    ..........
    ..........
    ....@.....
    ...@.@....
    ..@...@...
    ..........

u+02c7:
caron:
    ..........
    ..........
    ..........
    ..........
    ..........
    ..........
    ..........
    ..........
    ..........
    ..@...@...
    ...@.@....
    ....@.....

u+02c8:
uni02C8:
    ..........
    ..........
    ..........
    ..........
    ..........
    ..........
    ..........
    ..........
    ....@.....
    ....@.....
    ..........
    ..........

u+02c9:
uni02C9:
    ..........
    ..........
    ..........
    ..........
    ..........
    ..........
    ..........
    ..........
    ..........
    ...@@.....
    ..........
    ..........

u+02ca:
uni02CA:
    ..........
    ..........
    ..........
    ..........
    ..........
    ..........
    ..........
    ..........
    .....@....
    ....@.....
    ..........
    ..........

u+02cb:
uni02CB:
    ..........
    ..........
    ..........
    ..........
    ..........
    ..........
    ..........
    ..........
    ....@.....
    .....@....
    ..........
    ..........

u+02d8:
breve:
    ..........
    ..........
    ..........
    ..........
    ..........
    ..........
    ..........
    ..........
    ..........
    ...@...@..
    ....@@@...
    ..........

u+02d9:
dotaccent:
    ..........
    ..........
    ..........
    ..........
    ..........
    ..........
    ..........
    ..........
    ..........
    ..........
    ....@@....
    ....@@....

u+02da:
ring:
    ..........
    ..........
    ..........
    ..........
    ..........
    ..........
    ..........
    ..........
    ....@.....
    ...@.@....
    ....@.....
    ..........

u+02db:
ogonek:
    ..........
    .....@....
    ....@.....
    .....@....
    ..........
    ..........
    ..........
    ..........
    ..........
    ..........
    ..........
    ..........

u+02dc:
tilde:
    ..........
    ..........
    ..........
    ..........
    ..........
    ..........
    ..........
    ..........
    ..........
    ...@@.@...
    ..@.@@....
    ..........

u+02dd:
hungarumlaut:
    ..........
    ..........
    ..........
    ..........
    ..........
    ..........
    ..........
    ..........
    ..........
    ....@.@...
    ....@.@...
    ...@.@....

u+02ee:
uni02EE:
    ..........
    ..........
    ..........
    ..........
    ..........
    ..........
    ..........
    ...@..@...
    ...@..@...
    ...@..@...
    ..........
    ..........

u+0343:
uni0343:
    ..........
    ..........
    ..........
    ..........
    ..........
    ..........
    ....@.....
    ....@.....
    ....@.....
    ...@......
    ..........
    ..........

u+035c:
uni035C:
    ..........
    ..........
    ..@...@...
    ...@@@....
    ..........
    ..........
    ..........
    ..........
    ..........
    ..........
    ..........
    ..........

u+0361:
uni0361:
    ..........
    ..........
    ..........
    ..........
    ..........
    ..........
    ..........
    ..........
    ..........
    ..........
    ...@@@....
    ..@...@...

u+0370:
uni0370:
    ..........
    ..........
    ..........
    ..@.......
    ..@.......
    ..@.......
    ..@@@@....
    ..@.......
    ..@.......
    ..@.......
    ..........
    ..........

u+0371:
uni0371:
    ..........
    ..........
    ..........
    ..@.......
    ...@......
    ...@......
    ...@@@@...
    ...@......
    ...@......
    ..........
    ..........
    ..........

u+0372:
uni0372:
    ..........
    ..........
    ..........
    ..@@@@@...
    ..@.@.@...
    ....@.....
    ....@.....
    ....@.....
    ....@.....
    ..........
    ..........
    ..........

u+0373:
uni0373:
    ..........
    ..........
    ..........
    ..@@@@@...
    ..@.@.@...
    ....@.....
    ....@.....
    ....@.....
    ..........
    ..........
    ..........
    ..........

u+0374:
uni0374:
    ..........
    ..........
    ..........
    ..........
    ..........
    ..........
    ..........
    ..........
    ..........
    ....@@....
    ...@@.....
    ..........

u+0375:
uni0375:
    ..........
    ..........
    ....@@....
    ...@@.....
    ..@@......
    ..........
    ..........
    ..........
    ..........
    ..........
    ..........
    ..........

u+0376:
uni0376:
    ..........
    ..........
    ..........
    ...@..@...
    ...@.@@...
    ...@.@@...
    ...@@.@...
    ...@@.@...
    ...@..@...
    ..........
    ..........
    ..........

u+0377:
uni0377:
    ..........
    ..........
    ...@..@...
    ...@.@@...
    ...@@.@...
    ...@..@...
    ...@..@...
    .......@..
    ..........
    ..........
    ..........
    ..........

u+037a:
uni037A:
    ..........
    ...@......
    ...@@.....
    ..........
    ..........
    ..........
    ..........
    ..........
    ..........
    ..........
    ..........
    ..........

u+037b:
uni037B:
    ..........
    ..........
    ..........
    ...@@@....
    ..@...@...
    ......@...
    ..@...@...
    ...@@@....
    ..........
    ..........
    ..........
    ..........

u+037c:
uni037C:
    ..........
    ..........
    ..........
    ...@@@....
    ..@...@...
    ..@.@.....
    ..@...@...
    ...@@@....
    ..........
    ..........
    ..........
    ..........

u+037d:
uni037D:
    ..........
    ..........
    ..........
    ...@@@....
    ..@...@...
    ....@.@...
    ..@...@...
    ...@@@....
    ..........
    ..........
    ..........
    ..........

u+037e:
uni037E:
    ..........
    ..........
    ....@.....
    ....@.....
    ..........
    ....@.....
    ....@.....
    ...@......
    ..........
    ..........
    ..........
    ..........

u+037f:
uni037F:
    ..........
    ..........
    ..........
    ..........
    ..@@@@@@..
    ..@@@@@@..
    ..@@@@@@..
    ..........
    ..........
    ..........
    ..........
    ..........

u+0380:
uni0380:
    ..........
    ..........
    ..........
    ..@@@@@...
    ..@@@@@...
    ..@@@@@...
    ..........
    ..........
    ..........
    ..........
    ..........
    ..........

u+0381:
uni0381:
    ..........
    ..........
    ..........
    ..@.@.@...
    ...@.@....
    ..@.@.@...
    ..........
    ..........
    ..........
    ..........
    ..........
    ..........

u+0384:
tonos:
    ..........
    ..........
    ..........
    ..........
    ..........
    ..........
    ..........
    ..........
    .....@....
    ....@@....
    ....@.....
    ..........

u+0385:
dieresistonos:
    ..........
    ..........
    ..........
    ..........
    ..........
    ..........
    ..........
    ..........
    .....@....
    ..@.@@.@..
    ....@.....
    ..........

u+0386:
Alphatonos:
    ..........
    ..........
    ..........
    .....@....
    ....@.....
    ..........
    ....@@....
    ...@..@...
    ...@..@...
    ...@@@@...
    ...@..@...
    ...@..@...

u+0387:
anoteleia:
    ..........
    ..........
    ..........
    ..........
    ..........
    ..........
    ....@@....
    ....@@....
    ..........
    ..........
    ..........
    ..........

u+0388:
Epsilontonos:
    ..........
    ..........
    ..........
    .....@....
    ....@.....
    ...@@@@...
    ...@......
    ...@@@....
    ...@......
    ...@......
    ...@@@@...
    ..........

u+0389:
Etatonos:
    ..........
    ..........
    ..........
    ....@.....
    ...@..@...
    ..@@..@...
    ...@@@@...
    ...@..@...
    ...@..@...
    ...@..@...
    ..........
    ..........

u+038a:
Iotatonos:
    ..........
    ..........
    ..........
    ....@.....
    ...@@@....
    ..@.@.....
    ....@.....
    ....@.....
    ....@.....
    ...@@@....
    ..........
    ..........

u+038c:
Omicrontonos:
    ..........
    ..........
    ..........
    ...@......
    ..@.......
    ....@@....
    ...@..@...
    ...@..@...
    ...@..@...
    ...@..@...
    ....@@....
    ..........

u+038e:
Upsilontonos:
    ..........
    ..........
    ..........
    ...@......
    ..@.@.@...
    ....@.@...
    ....@.@...
    .....@....
    .....@....
    .....@....
    ..........
    ..........

u+038f:
Omegatonos:
    ..........
    ..........
    ..........
    ...@......
    ..@.......
    ...@@@....
    ..@...@...
    ..@...@...
    ..@...@...
    ...@.@....
    ..@@.@@...
    ..........

u+0390:
iotadieresistonos:
    ..........
    ..........
    ..........
    .....@....
    ..@.@@.@..
    ....@.....
    ..........
    ....@.....
    ....@.....
    ....@.....
    ....@.....
    ....@.....

u+0391:
Alpha:
    ..........
    ..........
    ..........
    ....@@....
    ...@..@...
    ...@..@...
    ...@@@@...
    ...@..@...
    ...@..@...
    ..........
    ..........
    ..........

u+0392:
Beta:
    ..........
    ..........
    ..........
    ...@@@....
    ...@..@...
    ...@@@....
    ...@..@...
    ...@..@...
    ...@@@....
    ..........
    ..........
    ..........

u+0393:
Gamma:
    ..........
    ..........
    ..........
    ...@@@@...
    ...@......
    ...@......
    ...@......
    ...@......
    ..........
    ..........
    ..........
    ..........

u+0394:
Delta:
    ..........
    ..........
    ..........
    ....@.....
    ....@.....
    ...@.@....
    ...@.@....
    ..@...@...
    ..@@@@@...
    ..........
    ..........
    ..........

u+0395:
Epsilon:
    ..........
    ..........
    ..........
    ...@@@@...
    ...@......
    ...@@@....
    ...@......
    ...@......
    ...@@@@...
    ..........
    ..........
    ..........

u+0396:
Zeta:
    ..........
    ..........
    ..........
    ...@@@@...
    ......@...
    .....@....
    ....@.....
    ...@......
    ...@@@@...
    ..........
    ..........
    ..........

u+0397:
Eta:
    ..........
    ..........
    ..........
    ...@..@...
    ...@..@...
    ...@@@@...
    ...@..@...
    ...@..@...
    ...@..@...
    ..........
    ..........
    ..........

u+0398:
Theta:
    ..........
    ..........
    ..........
    ....@@....
    ...@..@...
    ...@.@@...
    ...@@.@...
    ...@..@...
    ....@@....
    ..........
    ..........
    ..........

u+0399:
Iota:
    ..........
    ..........
    ..........
    ...@@@....
    ....@.....
    ....@.....
    ....@.....
    ....@.....
    ...@@@....
    ..........
    ..........
    ..........

u+039a:
Kappa:
    ..........
    ..........
    ..........
    ...@..@...
    ...@.@....
    ...@@.....
    ...@.@....
    ...@..@...
    ...@..@...
    ..........
    ..........
    ..........

u+039b:
Lambda:
    ..........
    ..........
    ..........
    ....@.....
    ....@.....
    ...@.@....
    ...@.@....
    ..@...@...
    ..@...@...
    ..........
    ..........
    ..........

u+039c:
Mu:
    ..........
    ..........
    ..........
    ...@..@...
    ...@@@@...
    ...@..@...
    ...@..@...
    ...@..@...
    ...@..@...
    ..........
    ..........
    ..........

u+039d:
Nu:
    ..........
    ..........
    ..........
    ...@..@...
    ...@@.@...
    ...@@.@...
    ...@.@@...
    ...@.@@...
    ...@..@...
    ..........
    ..........
    ..........

u+039e:
Xi:
    ..........
    ..........
    ..........
    ..@@@@@...
    ..........
    ...@@@....
    ..........
    ..@@@@@...
    ..........
    ..........
    ..........
    ..........

u+039f:
Omicron:
    ..........
    ..........
    ..........
    ....@@....
    ...@..@...
    ...@..@...
    ...@..@...
    ...@..@...
    ....@@....
    ..........
    ..........
    ..........

u+03a0:
Pi:
    ..........
    ..........
    ..........
    ...@@@@...
    ...@..@...
    ...@..@...
    ...@..@...
    ...@..@...
    ...@..@...
    ..........
    ..........
    ..........

u+03a1:
Rho:
    ..........
    ..........
    ..........
    ...@@@....
    ...@..@...
    ...@..@...
    ...@@@....
    ...@......
    ...@......
    ..........
    ..........
    ..........

u+03a3:
Sigma:
    ..........
    ..........
    ..........
    ..@@@@@...
    ...@......
    ....@.....
    ...@......
    ..@.......
    ..@@@@@...
    ..........
    ..........
    ..........

u+03a4:
Tau:
    ..........
    ..........
    ..........
    ..@@@@@...
    ....@.....
    ....@.....
    ....@.....
    ....@.....
    ....@.....
    ..........
    ..........
    ..........

u+03a5:
Upsilon:
    ..........
    ..........
    ..........
    ..@...@...
    ..@...@...
    ...@.@....
    ....@.....
    ....@.....
    ....@.....
    ..........
    ..........
    ..........

u+03a6:
Phi:
    ..........
    ..........
    ..........
    ....@.....
    ...@@@....
    ..@.@.@...
    ..@.@.@...
    ..@.@.@...
    ...@@@....
    ....@.....
    ..........
    ..........

u+03a7:
Chi:
    ..........
    ..........
    ..........
    ...@..@...
    ...@..@...
    ....@@....
    ...@..@...
    ...@..@...
    ...@..@...
    ..........
    ..........
    ..........

u+03a8:
Psi:
    ..........
    ..........
    ..........
    ..@.@.@...
    ..@.@.@...
    ..@.@.@...
    ...@@@....
    ....@.....
    ....@.....
    ..........
    ..........
    ..........

u+03a9:
Omega:
    ..........
    ..........
    ..........
    ...@@@....
    ..@...@...
    ..@...@...
    ..@...@...
    ...@.@....
    ..@@.@@...
    ..........
    ..........
    ..........

u+03aa:
Iotadieresis:
    ..........
    ..........
    ..........
    ...@.@....
    ..........
    ....@.....
    ....@.....
    ....@.....
    ....@.....
    ....@.....
    ....@.....
    ..........

u+03ab:
Upsilondieresis:
    ..........
    ..........
    ..........
    ...@.@....
    ..........
    ..@...@...
    ..@...@...
    ...@.@....
    ....@.....
    ....@.....
    ....@.....
    ..........

u+03ac:
alphatonos:
    ..........
    ..........
    ..........
    .....@....
    ....@.....
    ..........
    ....@@@...
    ...@..@...
    ...@..@...
    ...@.@@...
    ....@.@...
    ..........

u+03ad:
epsilontonos:
    ..........
    ..........
    ..........
    ....@.....
    ...@......
    ..........
    ...@@@....
    ..@.......
    ..@@@.....
    ..@.......
    ...@@@....
    ..........

u+03ae:
etatonos:
    ..........
    ..........
    .....@....
    ....@.....
    ..........
    ...@@@....
    ...@..@...
    ...@..@...
    ...@..@...
    ...@..@...
    ......@...
    ..........

u+03af:
iotatonos:
    ..........
    ..........
    ..........
    .....@....
    ....@.....
    ..........
    ...@@.....
    ....@.....
    ....@.....
    ....@.....
    ....@.....
    ..........

u+03b0:
upsilondieresistonos:
    ..........
    ..........
    ..........
    .....@....
    ..@.@@.@..
    ....@.....
    ...@..@...
    ...@..@...
    ...@..@...
    ...@..@...
    ....@@@...
    ..........

u+03b1:
alpha:
    ..........
    ..........
    ..........
    ....@@@...
    ...@..@...
    ...@..@...
    ...@.@@...
    ....@.@...
    ..........
    ..........
    ..........
    ..........

u+03b2:
beta:
    ..........
    ..........
    ...@@.....
    ..@..@....
    ..@.@.....
    ..@..@....
    ..@..@....
    ..@.@.....
    ..@.......
    ..........
    ..........
    ..........

u+03b3:
gamma:
    ..........
    ...@..@...
    ...@..@...
    ....@.@...
    ....@@....
    ....@.@...
    ....@.@...
    .....@....
    ..........
    ..........
    ..........
    ..........

u+03b4:
delta:
    ..........
    ..........
    ..........
    ...@@@@...
    ...@......
    ....@@....
    ...@..@...
    ...@..@...
    ...@..@...
    ....@@....
    ..........
    ..........

u+03b5:
epsilon:
    ..........
    ..........
    ..........
    ...@@@....
    ..@.......
    ..@@@.....
    ..@.......
    ...@@@....
    ..........
    ..........
    ..........
    ..........

u+03b6:
zeta:
    ..........
    ..........
    ..@@@@....
    ....@.....
    ...@......
    ..@.......
    ..@.......
    ...@@@@...
    .....@....
    ..........
    ..........
    ..........

u+03b7:
eta:
    ..........
    ..........
    ...@@@....
    ...@..@...
    ...@..@...
    ...@..@...
    ...@..@...
    ......@...
    ..........
    ..........
    ..........
    ..........

u+03b8:
theta:
    ..........
    ..........
    ..........
    ...@@.....
    ..@..@....
    ..@@@@....
    ..@..@....
    ...@@.....
    ..........
    ..........
    ..........
    ..........

u+03b9:
iota:
    ..........
    ..........
    ..........
    ....@@....
    .....@....
    .....@....
    .....@....
    .....@....
    ..........
    ..........
    ..........
    ..........

u+03ba:
kappa:
    ..........
    ..........
    ..........
    ...@..@...
    ...@.@....
    ...@@@....
    ...@..@...
    ...@..@...
    ..........
    ..........
    ..........
    ..........

u+03bb:
lambda:
    ..........
    ..........
    ..........
    ...@......
    ...@......
    ....@.....
    ....@@....
    ....@@....
    ...@..@...
    ...@..@...
    ..........
    ..........

u+03bc:
mu:
    ..........
    ..........
    ...@..@...
    ...@..@...
    ...@..@...
    ...@..@...
    ...@@@.@..
    ...@......
    ..........
    ..........
    ..........
    ..........

u+03bd:
nu:
    ..........
    ..........
    ..........
    ...@..@...
    ...@..@...
    ...@..@...
    ....@@....
    ....@@....
    ..........
    ..........
    ..........
    ..........

u+03be:
xi:
    ..........
    ...@@.....
    ..@..@....
    ...@......
    ..@.......
    ..@.......
    ...@@.....
    .....@....
    ....@.....
    ..........
    ..........
    ..........

u+03bf:
omicron:
    ..........
    ..........
    ..........
    ....@@....
    ...@..@...
    ...@..@...
    ...@..@...
    ....@@....
    ..........
    ..........
    ..........
    ..........

u+03c0:
pi:
    ..........
    ..........
    ..........
    ...@@@@@..
    ....@.@...
    ....@.@...
    ....@.@...
    ....@.@...
    ..........
    ..........
    ..........
    ..........

u+03c1:
rho:
    ....@@....
    ...@..@...
    ...@..@...
    ...@..@...
    ...@@@....
    ...@......
    ...@......
    ...@......
    ..........
    ..........
    ..........
    ..........

u+03c2:
sigma1:
    ..........
    ....@@@...
    ...@......
    ...@......
    ...@......
    ....@@@...
    .....@....
    ....@.....
    ..........
    ..........
    ..........
    ..........

u+03c3:
sigma:
    ..........
    ..........
    ..........
    ....@@@@..
    ...@..@...
    ...@..@...
    ...@..@...
    ....@@....
    ..........
    ..........
    ..........
    ..........

u+03c4:
tau:
    ..........
    ..........
    ..........
    ...@@@@...
    ..@.@.....
    ....@.....
    ....@.....
    .....@....
    ..........
    ..........
    ..........
    ..........

u+03c5:
upsilon:
    ..........
    ..........
    ..........
    ...@..@...
    ...@..@...
    ...@..@...
    ...@..@...
    ....@@@...
    ..........
    ..........
    ..........
    ..........

u+03c6:
phi:
    ..........
    ...@.@@...
    ...@.@.@..
    ...@.@.@..
    ...@.@.@..
    ....@@@...
    .....@....
    .....@....
    ..........
    ..........
    ..........
    ..........

u+03c7:
chi:
    ..........
    ..........
    ..........
    ...@..@...
    ...@..@...
    ....@@....
    ...@..@...
    ...@..@...
    ..........
    ..........
    ..........
    ..........

u+03c8:
psi:
    ..........
    ...@.@.@..
    ...@.@.@..
    ...@.@.@..
    ....@@@...
    .....@....
    .....@....
    .....@....
    ..........
    ..........
    ..........
    ..........

u+03c9:
omega:
    ..........
    ..........
    ..........
    ...@.@....
    ..@...@...
    ..@.@.@...
    ..@.@.@...
    ...@.@....
    ..........
    ..........
    ..........
    ..........

u+03ca:
iotadieresis:
    ..........
    ..........
    ..........
    ....@.@...
    ..........
    ....@@....
    .....@....
    .....@....
    .....@....
    .....@....
    ..........
    ..........

u+03cb:
upsilondieresis:
    ..........
    ..........
    ..........
    ...@.@....
    ..........
    ...@..@...
    ...@..@...
    ...@..@...
    ...@..@...
    ....@@@...
    ..........
    ..........

u+03cc:
omicrontonos:
    ..........
    ..........
    ..........
    ......@...
    .....@....
    ..........
    ....@@....
    ...@..@...
    ...@..@...
    ...@..@...
    ....@@....
    ..........

u+03cd:
upsilontonos:
    ..........
    ..........
    ..........
    .....@....
    ....@.....
    ..........
    ...@..@...
    ...@..@...
    ...@..@...
    ...@..@...
    ....@@@...
    ..........

u+03ce:
omegatonos:
    ..........
    ..........
    ..........
    ....@.....
    ...@......
    ..........
    ...@.@....
    ..@...@...
    ..@.@.@...
    ..@@.@@...
    ..@...@...
    ..........

u+03cf:
uni03CF:
    ..........
    ..........
    ...@..@...
    ...@.@....
    ...@@.....
    ...@.@....
    ...@..@...
    ...@..@...
    .....@....
    ..........
    ..........
    ..........

u+03d0:
uni03D0:
    ..........
    ..........
    ..........
    ...@@.....
    ..@..@....
    ..@@@.....
    ..@..@....
    ..@..@....
    ...@@.....
    ..........
    ..........
    ..........

u+03d1:
theta1:
    ..........
    ..........
    ..........
    ....@@....
    ...@..@...
    ...@.@@@..
    ..@@@.@...
    ...@..@...
    ....@@....
    ..........
    ..........
    ..........

u+03d2:
Upsilon1:
    ..........
    ..........
    ..........
    ..@...@...
    ..@...@@..
    ...@.@....
    ....@.....
    ....@.....
    ....@.....
    ..........
    ..........
    ..........

u+03d3:
uni03D3:
    ..........
    ..........
    ..........
    ...@......
    ..@...@...
    ..@...@@..
    ...@.@....
    ....@.....
    ....@.....
    ....@.....
    ..........
    ..........

u+03d4:
uni03D4:
    ..........
    ..........
    ..........
    ...@.@....
    ..........
    ..@...@...
    ..@...@@..
    ...@.@....
    ....@.....
    ....@.....
    ....@.....
    ..........

u+03d5:
phi1:
    ..........
    ....@.....
    ....@.....
    ...@@@....
    ..@.@.@...
    ..@.@.@...
    ..@.@.@...
    ...@@@....
    ....@.....
    ....@.....
    ..........
    ..........

u+03d6:
omega1:
    ..........
    ..........
    ..........
    ..@@@@@...
    ..@...@...
    ..@.@.@...
    ..@@.@@...
    ..@...@...
    ..........
    ..........
    ..........
    ..........

u+03d7:
uni03D7:
    ..........
    ..........
    ...@..@...
    ...@..@...
    ....@@....
    ...@..@...
    ...@..@@..
    .....@....
    ..........
    ..........
    ..........
    ..........

u+03d8:
uni03D8:
    ..........
    ...@@@....
    ..@...@...
    ..@...@...
    ..@...@...
    ..@...@...
    ...@@@....
    ....@.....
    ....@.....
    ..........
    ..........
    ..........

u+03d9:
uni03D9:
    ..........
    ...@@@....
    ..@...@...
    ..@...@...
    ..@...@...
    ...@@@....
    ....@.....
    ....@.....
    ..........
    ..........
    ..........
    ..........

u+03da:
uni03DA:
    ..........
    ....@@@...
    ...@......
    ...@......
    ...@......
    ...@......
    ....@@@...
    .......@..
    .....@@...
    ..........
    ..........
    ..........

u+03db:
uni03DB:
    ..........
    ....@@@...
    ...@......
    ...@......
    ...@......
    ....@@@...
    .......@..
    .....@@...
    ..........
    ..........
    ..........
    ..........

u+03dc:
uni03DC:
    ..........
    ..........
    ..........
    ...@@@@...
    ...@......
    ...@@@@...
    ...@..@...
    ...@......
    ...@......
    ..........
    ..........
    ..........

u+03dd:
uni03DD:
    ..........
    ..........
    ...@@@@...
    ...@......
    ...@@@....
    ...@.@....
    ...@......
    ...@......
    ..........
    ..........
    ..........
    ..........

u+03de:
uni03DE:
    ..........
    ..........
    ..@.......
    ...@..@...
    ...@.@@...
    ...@@.@...
    ...@..@...
    .......@..
    ..........
    ..........
    ..........
    ..........

u+03df:
uni03DF:
    ..........
    ..........
    ....@.....
    ...@......
    ..@.......
    ..@@@.....
    ....@.....
    ...@......
    ..@.......
    ..........
    ..........
    ..........

u+03e0:
uni03E0:
    ..........
    ..........
    ...@......
    ....@.....
    ...@@.....
    ..@..@....
    ....@@....
    ...@.@....
    .....@....
    ..........
    ..........
    ..........

u+03e1:
uni03E1:
    ..........
    ..........
    ...@......
    ....@.....
    ...@@.....
    ..@..@....
    ....@@....
    ...@.@....
    .....@....
    ..........
    ..........
    ..........

u+03e2:
uni03E2:
    ..........
    ..........
    ...@.@.@..
    ...@.@.@..
    ...@.@.@..
    ...@.@.@..
    ....@.@@..
    .......@..
    ...@@@@...
    ..........
    ..........
    ..........

u+03e3:
uni03E3:
    ..........
    ...@.@.@..
    ...@.@.@..
    ...@.@.@..
    ...@.@.@..
    ....@.@@..
    .......@..
    ...@@@@...
    ..........
    ..........
    ..........
    ..........

u+03e4:
uni03E4:
    ..........
    ..........
    ..........
    ...@.@....
    ..@..@....
    ..@..@....
    ...@@@....
    .....@....
    .....@....
    .....@....
    ..........
    ..........

u+03e5:
uni03E5:
    ..........
    ..........
    ..........
    ...@.@....
    ..@..@....
    ..@..@....
    ...@@@....
    .....@....
    .....@....
    ..........
    ..........
    ..........

u+03e6:
uni03E6:
    ..........
    ..@.......
    ..@.......
    ..@.......
    ..@@@.....
    ..@..@....
    ..@..@....
    ..@..@....
    .....@....
    ..@@@.....
    ..........
    ..........

u+03e7:
uni03E7:
    ..........
    ..........
    .....@....
    ...@@@....
    ..@.@.@...
    ...@..@...
    ......@...
    ...@@@....
    ..@.......
    ..........
    ..........
    ..........

u+03e8:
uni03E8:
    ..........
    ..........
    ..........
    ...@@@....
    ......@...
    ....@@....
    ...@......
    ...@..@...
    ....@@....
    ..........
    ..........
    ..........

u+03e9:
uni03E9:
    ..........
    ..........
    ..........
    ...@@@....
    ......@...
    ....@@....
    ...@......
    ...@......
    ....@@@...
    ..........
    ..........
    ..........

u+03ea:
uni03EA:
    ..........
    ..........
    ..........
    ...@.@....
    ..@.@.@...
    ....@.....
    ...@.@....
    ...@.@....
    ..@...@...
    ..@@@@@...
    ..........
    ..........

u+03eb:
uni03EB:
    ..........
    ..........
    ..........
    ...@.@....
    ..@.@.@...
    ....@.....
    ...@.@....
    ...@@@....
    ..........
    ..........
    ..........
    ..........

u+03ec:
uni03EC:
    ..........
    ..........
    ..........
    ...@@@....
    ..@.......
    ..@@@.....
    ..@..@....
    ..@..@....
    ..@..@....
    ...@@.....
    ..........
    ..........

u+03ed:
uni03ED:
    ..........
    ..........
    ..........
    ...@@.....
    ..@.......
    ..@.@.....
    ..@..@....
    ..@..@....
    ...@@.....
    ..........
    ..........
    ..........

u+03ee:
uni03EE:
    ..........
    ..........
    ..........
    ....@.....
    ...@@@....
    ..@.@.@...
    ....@.....
    ....@.....
    ....@.....
    ..........
    ..........
    ..........

u+03ef:
uni03EF:
    ..........
    ..........
    ..........
    ....@@....
    ....@.....
    ..@@@@@...
    ..@.@.....
    ....@.....
    ...@@.....
    ..........
    ..........
    ..........

u+03f0:
uni03F0:
    ..........
    ..........
    ..........
    ...@..@...
    ...@.@....
    ....@@....
    ....@.@...
    ...@..@...
    ..........
    ..........
    ..........
    ..........

u+03f1:
uni03F1:
    ...@@.....
    ..@..@....
    ..@..@....
    ..@..@....
    ..@@@.....
    ..@.......
    ...@@.....
    .....@....
    ..........
    ..........
    ..........
    ..........

u+03f2:
uni03F2:
    ..........
    ..........
    ..........
    ....@@@...
    ...@......
    ...@......
    ...@......
    ....@@@...
    ..........
    ..........
    ..........
    ..........

u+03f3:
uni03F3:
    ..........
    .....@....
    ..........
    ....@@....
    .....@....
    .....@....
    .....@....
    .....@....
    .....@....
    ...@@.....
    ..........
    ..........

u+03f4:
uni03F4:
    ..........
    ..........
    ..........
    ....@@....
    ...@..@...
    ...@.@@...
    ...@@.@...
    ...@..@...
    ....@@....
    ..........
    ..........
    ..........

u+03f5:
uni03F5:
    ..........
    ..........
    ..........
    ...@@@....
    ..@.......
    ..@@@.....
    ..@.......
    ...@@@....
    ..........
    ..........
    ..........
    ..........

u+03f6:
uni03F6:
    ..........
    ..........
    ..........
    ..@@@.....
    .....@....
    ...@@@....
    .....@....
    ..@@@.....
    ..........
    ..........
    ..........
    ..........

u+03f7:
uni03F7:
    ..........
    ..........
    ..........
    ..@.......
    ..@@@.....
    ..@..@....
    ..@..@....
    ..@@@.....
    ..@.......
    ..........
    ..........
    ..........

u+03f8:
uni03F8:
    ..........
    ..........
    ..@.......
    ..@@@.....
    ..@..@....
    ..@..@....
    ..@@@.....
    ..@.......
    ..@.......
    ..........
    ..........
    ..........

u+03f9:
uni03F9:
    ..........
    ..........
    ..........
    ....@@@...
    ...@......
    ...@......
    ...@......
    ...@......
    ....@@@...
    ..........
    ..........
    ..........

u+03fa:
uni03FA:
    ..........
    ..........
    ..........
    ...@..@...
    ...@@@@...
    ...@..@...
    ...@..@...
    ...@..@...
    ...@..@...
    ..........
    ..........
    ..........

u+03fb:
uni03FB:
    ..........
    ...@..@...
    ...@@@@...
    ...@..@...
    ...@..@...
    ...@......
    ...@......
    ..........
    ..........
    ..........
    ..........
    ..........

u+03fc:
uni03FC:
    ....@@....
    ...@..@...
    ...@..@...
    ...@..@...
    ...@@@....
    ...@......
    ...@@.....
    ...@......
    ..........
    ..........
    ..........
    ..........

u+03fd:
uni03FD:
    ..........
    ..........
    ..........
    ....@@@...
    ...@...@..
    .......@..
    .......@..
    ...@...@..
    ....@@@...
    ..........
    ..........
    ..........

u+03fe:
uni03FE:
    ..........
    ..........
    ..........
    ....@@@...
    ...@......
    ...@.@....
    ...@......
    ...@......
    ....@@@...
    ..........
    ..........
    ..........

u+03ff:
uni03FF:
    ..........
    ..........
    ..........
    ...@@@....
    ......@...
    ....@.@...
    ......@...
    ......@...
    ...@@@....
    ..........
    ..........
    ..........

u+0401:
afii10023:
    ..........
    ..........
    ..........
    ...@.@....
    ..........
    ...@@@@...
    ...@......
    ...@@@....
    ...@......
    ...@......
    ...@@@@...
    ..........

u+0402:
afii10051:
    ..........
    ..........
    ..@@@.....
    ...@......
    ...@@@....
    ...@..@...
    ...@..@...
    ...@..@...
    ...@..@...
    .....@....
    ..........
    ..........

u+0403:
afii10052:
    ..........
    ..........
    ..........
    .....@....
    ....@.....
    ...@@@@...
    ...@......
    ...@......
    ...@......
    ...@......
    ...@......
    ..........

u+0404:
afii10053:
    ..........
    ..........
    ..........
    ...@@.....
    ..@..@....
    ..@@......
    ..@.......
    ..@..@....
    ...@@.....
    ..........
    ..........
    ..........

u+0405:
afii10054:
    ..........
    ..........
    ..........
    ....@@@...
    ...@......
    ....@@....
    ......@...
    ......@...
    ...@@@....
    ..........
    ..........
    ..........

u+0406:
afii10055:
    ..........
    ..........
    ..........
    ....@.....
    ....@.....
    ....@.....
    ....@.....
    ....@.....
    ....@.....
    ..........
    ..........
    ..........

u+0407:
afii10056:
    ..........
    ..........
    ..........
    ...@.@....
    ....@.....
    ....@.....
    ....@.....
    ....@.....
    ....@.....
    ....@.....
    ..........
    ..........

u+0408:
afii10057:
    ..........
    ..........
    ..........
    ....@@@...
    ......@...
    ......@...
    ......@...
    ...@..@...
    ....@@....
    ..........
    ..........
    ..........

u+0409:
afii10058:
    ..........
    ..........
    ..........
    ....@@....
    ...@.@....
    ...@.@@...
    ...@.@.@..
    ...@.@.@..
    ..@..@@...
    ..........
    ..........
    ..........

u+040a:
afii10059:
    ..........
    ..........
    ..........
    ...@.@....
    ...@.@....
    ...@@@@...
    ...@.@.@..
    ...@.@.@..
    ...@.@@...
    ..........
    ..........
    ..........

u+040b:
afii10060:
    ..........
    ..........
    ..........
    ..@@@@....
    ...@......
    ...@@@....
    ...@..@...
    ...@..@...
    ...@..@...
    ...@..@...
    ..........
    ..........

u+040c:
afii10061:
    ..........
    ..........
    ..........
    .....@....
    ...@@.@...
    ...@.@....
    ...@@.....
    ...@.@....
    ...@..@...
    ...@..@...
    ..........
    ..........

u+040e:
afii10062:
    ..........
    ..........
    ..........
    ....@.@...
    .....@....
    ...@..@...
    ...@..@...
    ...@..@...
    ....@@@...
    ......@...
    ....@@....
    ..........

u+040f:
afii10145:
    ..........
    ..........
    ..@...@...
    ..@...@...
    ..@...@...
    ..@...@...
    ..@@@@@...
    ....@.....
    ....@.....
    ..........
    ..........
    ..........

u+0410:
afii10017:
    ..........
    ..........
    ..........
    ...@@.....
    ..@..@....
    ..@..@....
    ..@@@@....
    ..@..@....
    ..@..@....
    ..........
    ..........
    ..........

u+0411:
afii10018:
    ..........
    ..........
    ..........
    ...@@@....
    ...@......
    ...@@@....
    ...@..@...
    ...@..@...
    ...@..@...
    ...@@@....
    ..........
    ..........

u+0412:
afii10019:
    ..........
    ..........
    ..........
    ...@@@....
    ...@..@...
    ...@@@....
    ...@..@...
    ...@..@...
    ...@@@....
    ..........
    ..........
    ..........

u+0413:
afii10020:
    ..........
    ..........
    ..........
    ...@@@@...
    ...@......
    ...@......
    ...@......
    ...@......
    ...@......
    ..........
    ..........
    ..........

u+0414:
afii10021:
    ..........
    ..........
    ....@@....
    ...@.@....
    ...@.@....
    ...@.@....
    ...@.@....
    ..@@@@@...
    ..@...@...
    ..........
    ..........
    ..........

u+0415:
afii10022:
    ..........
    ..........
    ..........
    ...@@@@...
    ...@......
    ...@@@....
    ...@......
    ...@......
    ...@@@@...
    ..........
    ..........
    ..........

u+0416:
afii10024:
    ..........
    ..........
    ..........
    ..@.@.@...
    ..@.@.@...
    ...@@@....
    ..@.@.@...
    ..@.@.@...
    ..@.@.@...
    ..........
    ..........
    ..........

u+0417:
afii10025:
    ..........
    ..........
    ..........
    ....@@....
    ...@..@...
    .....@....
    ......@...
    ...@..@...
    ....@@....
    ..........
    ..........
    ..........

u+0418:
afii10026:
    ..........
    ..........
    ..........
    ...@..@...
    ...@.@@...
    ...@.@@...
    ...@@.@...
    ...@@.@...
    ...@..@...
    ..........
    ..........
    ..........

u+0419:
afii10027:
    ..........
    ..........
    ..........
    ....@.@...
    .....@....
    ...@..@...
    ...@.@@...
    ...@.@@...
    ...@@.@...
    ...@@.@...
    ...@..@...
    ..........

u+041a:
afii10028:
    ..........
    ..........
    ..........
    ...@..@...
    ...@.@....
    ...@@.....
    ...@.@....
    ...@..@...
    ...@..@...
    ..........
    ..........
    ..........

u+041b:
afii10029:
    ..........
    ..........
    ..........
    .....@@...
    ....@.@...
    ....@.@...
    ....@.@...
    ....@.@...
    ...@..@...
    ..........
    ..........
    ..........

u+041c:
afii10030:
    ..........
    ..........
    ..........
    ...@..@...
    ...@@@@...
    ...@..@...
    ...@..@...
    ...@..@...
    ...@..@...
    ..........
    ..........
    ..........

u+041d:
afii10031:
    ..........
    ..........
    ..........
    ...@..@...
    ...@..@...
    ...@@@@...
    ...@..@...
    ...@..@...
    ...@..@...
    ..........
    ..........
    ..........

u+041e:
afii10032:
    ..........
    ..........
    ..........
    ....@@....
    ...@..@...
    ...@..@...
    ...@..@...
    ...@..@...
    ....@@....
    ..........
    ..........
    ..........

u+041f:
afii10033:
    ..........
    ..........
    ..........
    ...@@@@...
    ...@..@...
    ...@..@...
    ...@..@...
    ...@..@...
    ...@..@...
    ..........
    ..........
    ..........

u+0421:
afii10035:
    ..........
    ..........
    ..........
    ....@@@...
    ...@......
    ...@......
    ...@......
    ...@......
    ....@@@...
    ..........
    ..........
    ..........

u+0422:
afii10036:
    ..........
    ..........
    ..........
    ....@@@...
    .....@....
    .....@....
    .....@....
    .....@....
    .....@....
    ..........
    ..........
    ..........

u+0423:
afii10037:
    ..........
    ..........
    ..........
    ...@..@...
    ...@..@...
    ...@..@...
    ....@@@...
    ......@...
    ....@@....
    ..........
    ..........
    ..........

u+0424:
afii10038:
    ..........
    ..........
    ....@.....
    ...@@@....
    ..@.@.@...
    ..@.@.@...
    ..@.@.@...
    ..@.@.@...
    ...@@@....
    ....@.....
    ..........
    ..........

u+0425:
afii10039:
    ..........
    ..........
    ..........
    ...@..@...
    ...@..@...
    ....@@....
    ...@..@...
    ...@..@...
    ...@..@...
    ..........
    ..........
    ..........

u+0426:
afii10040:
    ..........
    ..........
    ...@.@....
    ...@.@....
    ...@.@....
    ...@.@....
    ...@.@....
    ...@@@@...
    ......@...
    ..........
    ..........
    ..........

u+0427:
afii10041:
    ..........
    ..........
    ..........
    ..@..@....
    ..@..@....
    ...@@@....
    .....@....
    .....@....
    .....@....
    ..........
    ..........
    ..........

u+0428:
afii10042:
    ..........
    ..........
    ..........
    ..@.@.@...
    ..@.@.@...
    ..@.@.@...
    ..@.@.@...
    ..@.@.@...
    ..@@@@....
    ..........
    ..........
    ..........

u+0429:
afii10043:
    ..........
    ..........
    ..@.@.@...
    ..@.@.@...
    ..@.@.@...
    ..@.@.@...
    ..@.@.@...
    ..@@@@@@..
    .......@..
    ..........
    ..........
    ..........

u+042a:
afii10044:
    ..........
    ..........
    ..........
    ..@@......
    ...@......
    ...@......
    ...@@.....
    ...@.@....
    ...@@.....
    ..........
    ..........
    ..........

u+042b:
afii10045:
    ..........
    ..........
    ..........
    ...@..@...
    ...@..@...
    ...@..@...
    ...@@.@...
    ...@.@@...
    ...@@.@...
    ..........
    ..........
    ..........

u+042c:
afii10046:
    ..........
    ..........
    ..........
    ...@......
    ...@......
    ...@......
    ...@@@....
    ...@..@...
    ...@@@....
    ..........
    ..........
    ..........

u+042d:
afii10047:
    ..........
    ..........
    ..........
    ....@@....
    ...@..@...
    .....@@...
    ......@...
    ...@..@...
    ....@@....
    ..........
    ..........
    ..........

u+042e:
afii10048:
    ..........
    ..........
    ..........
    ...@..@...
    ...@.@.@..
    ...@@@.@..
    ...@.@.@..
    ...@.@.@..
    ...@..@...
    ..........
    ..........
    ..........

u+042f:
afii10049:
    ..........
    ..........
    ..........
    ....@@@...
    ...@..@...
    ...@..@...
    ....@@@...
    ...@..@...
    ...@..@...
    ..........
    ..........
    ..........

u+0430:
afii10065:
    ..........
    ..........
    ..........
    ....@@@...
    ...@..@...
    ...@..@...
    ...@.@@...
    ....@.@...
    ..........
    ..........
    ..........
    ..........

u+0431:
afii10066:
    ..........
    ..........
    ..........
    ......@...
    ....@@....
    ...@......
    ...@@@....
    ...@..@...
    ...@..@...
    ...@@@....
    ..........
    ..........

u+0432:
afii10067:
    ..........
    ..........
    ..........
    ...@@@....
    ...@..@...
    ...@@@....
    ...@..@...
    ...@@@....
    ..........
    ..........
    ..........
    ..........

u+0433:
afii10068:
    ..........
    ..........
    ..........
    ...@@@@...
    ...@......
    ...@......
    ...@......
    ...@......
    ..........
    ..........
    ..........
    ..........

u+0434:
afii10069:
    ..........
    ..........
    ....@@....
    ...@.@....
    ...@.@....
    ...@.@....
    ...@.@....
    ..@@@@@...
    ..@...@...
    ..........
    ..........
    ..........

u+0435:
afii10070:
    ..........
    ..........
    ..........
    ....@@....
    ...@..@...
    ...@@@@...
    ...@......
    ....@@@...
    ..........
    ..........
    ..........
    ..........

u+0436:
afii10072:
    ..........
    ..........
    ..........
    ..@.@.@...
    ..@.@.@...
    ...@@@....
    ..@.@.@...
    ..@.@.@...
    ..........
    ..........
    ..........
    ..........

u+0437:
afii10073:
    ..........
    ..........
    ..........
    ....@@....
    ...@..@...
    .....@....
    ...@..@...
    ....@@....
    ..........
    ..........
    ..........
    ..........

u+0438:
afii10074:
    ..........
    ..........
    ..........
    ...@..@...
    ...@.@@...
    ...@@@@...
    ...@@.@...
    ...@..@...
    ..........
    ..........
    ..........
    ..........

u+0439:
afii10075:
    ..........
    ..........
    ..........
    ....@.@...
    .....@....
    ...@..@...
    ...@.@@...
    ...@@@@...
    ...@@.@...
    ...@..@...
    ..........
    ..........

u+043a:
afii10076:
    ..........
    ..........
    ..........
    ...@..@...
    ...@.@....
    ...@@@....
    ...@..@...
    ...@..@...
    ..........
    ..........
    ..........
    ..........

u+043b:
afii10077:
    ..........
    ..........
    ..........
    .....@@...
    ....@.@...
    ....@.@...
    ....@.@...
    ...@..@...
    ..........
    ..........
    ..........
    ..........

u+043c:
afii10078:
    ..........
    ..........
    ..........
    ...@..@...
    ...@@@@...
    ...@..@...
    ...@..@...
    ...@..@...
    ..........
    ..........
    ..........
    ..........

u+043d:
afii10079:
    ..........
    ..........
    ..........
    ...@..@...
    ...@..@...
    ...@@@@...
    ...@..@...
    ...@..@...
    ..........
    ..........
    ..........
    ..........

u+043e:
afii10080:
    ..........
    ..........
    ..........
    ....@@....
    ...@..@...
    ...@..@...
    ...@..@...
    ....@@....
    ..........
    ..........
    ..........
    ..........

u+043f:
afii10081:
    ..........
    ..........
    ..........
    ...@@@@...
    ...@..@...
    ...@..@...
    ...@..@...
    ...@..@...
    ..........
    ..........
    ..........
    ..........

u+0440:
afii10082:
    ..........
    ...@@@....
    ...@..@...
    ...@..@...
    ...@..@...
    ...@@@....
    ...@......
    ...@......
    ..........
    ..........
    ..........
    ..........

u+0441:
afii10083:
    ..........
    ..........
    ..........
    ....@@@...
    ...@......
    ...@......
    ...@......
    ....@@@...
    ..........
    ..........
    ..........
    ..........

u+0442:
afii10084:
    ..........
    ..........
    ..........
    ....@@@...
    .....@....
    .....@....
    .....@....
    .....@....
    ..........
    ..........
    ..........
    ..........

u+0443:
afii10085:
    ..........
    ...@..@...
    ...@..@...
    ...@..@...
    ...@..@...
    ....@@@...
    ......@...
    ....@@....
    ..........
    ..........
    ..........
    ..........

u+0444:
afii10086:
    ..........
    ..........
    ....@.....
    ...@@@....
    ..@.@.@...
    ..@.@.@...
    ..@.@.@...
    ...@@@....
    ....@.....
    ..........
    ..........
    ..........

u+0445:
afii10087:
    ..........
    ..........
    ..........
    ...@..@...
    ...@..@...
    ....@@....
    ...@..@...
    ...@..@...
    ..........
    ..........
    ..........
    ..........

u+0446:
afii10088:
    ..........
    ..........
    ...@.@....
    ...@.@....
    ...@.@....
    ...@.@....
    ...@@@@...
    ......@...
    ..........
    ..........
    ..........
    ..........

u+0447:
afii10089:
    ..........
    ..........
    ..........
    ..@..@....
    ..@..@....
    ...@@@....
    .....@....
    .....@....
    ..........
    ..........
    ..........
    ..........

u+0448:
afii10090:
    ..........
    ..........
    ..........
    ..@.@.@...
    ..@.@.@...
    ..@.@.@...
    ..@.@.@...
    ..@@@@....
    ..........
    ..........
    ..........
    ..........

u+0449:
afii10091:
    ..........
    ..........
    ..@.@.@...
    ..@.@.@...
    ..@.@.@...
    ..@.@.@...
    ..@@@@@@..
    .......@..
    ..........
    ..........
    ..........
    ..........

u+044a:
afii10092:
    ..........
    ..........
    ..........
    ...@@.....
    ....@.....
    ....@@....
    ....@.@...
    ....@@....
    ..........
    ..........
    ..........
    ..........

u+044b:
afii10093:
    ..........
    ..........
    ..........
    ...@..@...
    ...@..@...
    ...@@.@...
    ...@.@@...
    ...@@.@...
    ..........
    ..........
    ..........
    ..........

u+044c:
afii10094:
    ..........
    ..........
    ..........
    ...@......
    ...@......
    ...@@@....
    ...@..@...
    ...@@@....
    ..........
    ..........
    ..........
    ..........

u+044d:
afii10095:
    ..........
    ..........
    ..........
    ....@@....
    ...@..@...
    .....@@...
    ...@..@...
    ....@@....
    ..........
    ..........
    ..........
    ..........

u+044e:
afii10096:
    ..........
    ..........
    ..........
    ...@..@...
    ...@.@.@..
    ...@@@.@..
    ...@.@.@..
    ...@..@...
    ..........
    ..........
    ..........
    ..........

u+044f:
afii10097:
    ..........
    ..........
    ..........
    ....@@@...
    ...@..@...
    ....@@@...
    ...@..@...
    ...@..@...
    ..........
    ..........
    ..........
    ..........

u+0451:
afii10071:
    ..........
    ..........
    ..........
    ...@.@....
    ..........
    ....@@....
    ...@..@...
    ...@@@@...
    ...@......
    ....@@@...
    ..........
    ..........

u+0452:
afii10099:
    ..........
    ..........
    ...@......
    ..@@@.....
    ...@......
    ...@@@....
    ...@..@...
    ...@..@...
    .....@....
    ..........
    ..........
    ..........

u+0453:
afii10100:
    ..........
    ..........
    ..........
    .....@....
    ....@.....
    ...@@@@...
    ...@......
    ...@......
    ...@......
    ...@......
    ..........
    ..........

u+0454:
afii10101:
    ..........
    ..........
    ..........
    ...@@.....
    ..@..@....
    ..@@......
    ..@..@....
    ...@@.....
    ..........
    ..........
    ..........
    ..........

u+0455:
afii10102:
    ..........
    ..........
    ..........
    ....@@@...
    ...@......
    ....@@....
    ......@...
    ...@@@....
    ..........
    ..........
    ..........
    ..........

u+0456:
afii10103:
    ..........
    ..........
    ..........
    .....@....
    ..........
    ....@@....
    .....@....
    .....@....
    .....@....
    .....@....
    ..........
    ..........

u+0457:
afii10104:
    ..........
    ..........
    ..........
    ....@.@...
    ..........
    ....@@....
    .....@....
    .....@....
    .....@....
    .....@....
    ..........
    ..........

u+0458:
afii10105:
    ..........
    .....@....
    ..........
    ....@@....
    .....@....
    .....@....
    .....@....
    .....@....
    .....@....
    ...@@.....
    ..........
    ..........

u+045e:
afii10110:
    ..........
    ...@..@...
    ...@..@...
    ...@..@...
    ...@..@...
    ....@@@...
    ......@...
    ....@@....
    ..........
    ..........
    ..........
    ..........

u+0490:
afii10050:
    ..........
    ..........
    ..........
    ......@...
    ...@@@@...
    ...@......
    ...@......
    ...@......
    ...@......
    ...@......
    ..........
    ..........

u+0491:
afii10098:
    ..........
    ..........
    ..........
    ......@...
    ...@@@@...
    ...@......
    ...@......
    ...@......
    ...@......
    ..........
    ..........
    ..........

u+07c0:
uni07C0:
    ..........
    ..........
    ..@@@@@@..
    ..@@@@@@..
    ..........
    ..........
    ..........
    ..........
    ..........
    ..........
    ..........
    ..........

u+07c1:
uni07C1:
    ..........
    ..........
    ..@.@.@...
    ...@.@.@..
    ..........
    ..........
    ..........
    ..........
    ..........
    ..........
    ..........
    ..........

u+07c2:
uni07C2:
    ..........
    ..........
    ..@@@@@@..
    ..........
    ..........
    ..........
    ..........
    ..........
    ..........
    ..........
    ..........
    ..........

u+07c3:
uni07C3:
    ..........
    ..........
    ....@.@.@.
    ..........
    ..........
    ..........
    ..........
    ..........
    ..........
    ..........
    ..........
    ..........

u+0ca0:
uni0CA0:
    ..........
    ..........
    ..........
    .....@@...
    .......@..
    ..@@@@@...
    ...@...@..
    ...@.@.@..
    ...@...@..
    ....@@@...
    ..........
    ..........

u+1f00:
uni1F00:
    ..........
    ..........
    ..........
    ...@......
    ..@.......
    ....@@@...
    ...@..@...
    ...@..@...
    ...@.@@...
    ....@.@...
    ..........
    ..........

u+1f08:
uni1F08:
    ..........
    ..........
    ..........
    ...@......
    ..@.......
    ....@@....
    ...@..@...
    ...@..@...
    ...@@@@...
    ...@..@...
    ...@..@...
    ..........

u+2018:
quoteleft:
    ..........
    ..........
    ..........
    ..........
    ..........
    ..........
    ..........
    ....@.....
    ....@.....
    ....@.....
    ..........
    ..........

u+2019:
quoteright:
    ..........
    ..........
    ..........
    ..........
    ..........
    ..........
    ..........
    ....@.....
    ....@.....
    ....@.....
    ..........
    ..........

u+201a:
quotesinglbase:
    ..........
    ..........
    .....@....
    .....@....
    ....@.....
    ..........
    ..........
    ..........
    ..........
    ..........
    ..........
    ..........

u+201c:
quotedblleft:
    ..........
    ..........
    ..........
    ..........
    ..........
    ..........
    ....@.@...
    ...@.@....
    ...@@@@...
    ..........
    ..........
    ..........

u+201d:
quotedblright:
    ..........
    ..........
    ..........
    ..........
    ..........
    ..........
    ...@@@@...
    ....@.@...
    ...@.@....
    ..........
    ..........
    ..........

u+201e:
quotedblbase:
    ..........
    ..........
    ...@@@@...
    ....@.@...
    ...@.@....
    ..........
    ..........
    ..........
    ..........
    ..........
    ..........
    ..........

u+201f:
uni201F:
    ..........
    ..........
    ..........
    ..........
    ..........
    ..........
    ...@@@@...
    ...@.@....
    ....@.@...
    ..........
    ..........
    ..........

u+2024:
onedotenleader:
    ..........
    ..........
    ..........
    ....@.....
    ..........
    ..........
    ..........
    ..........
    ..........
    ..........
    ..........
    ..........

u+2025:
twodotenleader:
    ..........
    ..........
    ..........
    ...@.@....
    ..........
    ..........
    ..........
    ..........
    ..........
    ..........
    ..........
    ..........

u+2026:
ellipsis:
    ..........
    ..........
    ..........
    ...@.@.@..
    ..........
    ..........
    ..........
    ..........
    ..........
    ..........
    ..........
    ..........

u+2027:
uni2027:
    ..........
    ..........
    ..........
    ..........
    ..........
    ....@.....
    ..........
    ..........
    ..........
    ..........
    ..........
    ..........

u+20ac:
Euro:
    ..........
    ..........
    ..........
    ....@@....
    ...@..@...
    ..@@@.....
    ...@......
    ..@@@.....
    ...@..@...
    ....@@....
    ..........
    ..........

u+2122:
trademark:
    ..........
    ..........
    ..........
    ..........
    ..........
    ..@@@@.@..
    ...@.@@@..
    ...@.@.@..
    ..........
    ..........
    ..........
    ..........

u+2190:
arrowleft:
    ..........
    ..........
    ..........
    ....@.....
    ...@@.....
    ..@@@@@@..
    ...@@.....
    ....@.....
    ..........
    ..........
    ..........
    ..........

u+2191:
arrowup:
    ..........
    ..........
    ..........
    ....@.....
    ...@@@....
    ..@@@@@...
    ....@.....
    ....@.....
    ....@.....
    ..........
    ..........
    ..........

u+2192:
arrowright:
    ..........
    ..........
    ..........
    .....@....
    .....@@...
    ..@@@@@@..
    .....@@...
    .....@....
    ..........
    ..........
    ..........
    ..........

u+2193:
arrowdown:
    ..........
    ..........
    ..........
    ....@.....
    ....@.....
    ....@.....
    ..@@@@@...
    ...@@@....
    ....@.....
    ..........
    ..........
    ..........

u+2194:
arrowboth:
    ..........
    ..........
    ..........
    ..........
    ...@..@...
    ..@@@@@@..
    ...@..@...
    ..........
    ..........
    ..........
    ..........
    ..........

u+2195:
arrowupdn:
    ..........
    ..........
    ....@.....
    ...@@@....
    ..@@@@@...
    ....@.....
    ....@.....
    ..@@@@@...
    ...@@@....
    ....@.....
    ..........
    ..........

u+2196:
uni2196:
    ..........
    ..........
    ..........
    ..........
    ..@@@.....
    ..@@......
    ..@.@.....
    .....@....
    ..........
    ..........
    ..........
    ..........

u+2197:
uni2197:
    ..........
    ..........
    ..........
    ..........
    ....@@@...
    .....@@...
    ....@.@...
    ...@......
    ..........
    ..........
    ..........
    ..........

u+2198:
uni2198:
    ..........
    ..........
    ..........
    ...@......
    ....@.@...
    .....@@...
    ....@@@...
    ..........
    ..........
    ..........
    ..........
    ..........

u+2199:
uni2199:
    ..........
    ..........
    ..........
    .....@....
    ..@.@.....
    ..@@......
    ..@@@.....
    ..........
    ..........
    ..........
    ..........
    ..........

u+21b0:
uni21B0:
    ..........
    ..........
    ..........
    ...@......
    ..@@@@....
    ...@.@....
    .....@....
    .....@....
    ..........
    ..........
    ..........
    ..........

u+21b1:
uni21B1:
    ..........
    ..........
    ..........
    ....@.....
    ..@@@@....
    ..@.@.....
    ..@.......
    ..@.......
    ..........
    ..........
    ..........
    ..........

u+21b2:
uni21B2:
    ..........
    ..........
    .....@....
    .....@....
    ...@.@....
    ..@@@@....
    ...@......
    ..........
    ..........
    ..........
    ..........
    ..........

u+21b3:
uni21B3:
    ..........
    ..........
    ..@.......
    ..@.......
    ..@.@.....
    ..@@@@....
    ....@.....
    ..........
    ..........
    ..........
    ..........
    ..........

u+21b4:
uni21B4:
    ..........
    ..........
    ..@@@.....
    ....@.....
    ...@@@....
    ....@.....
    ..........
    ..........
    ..........
    ..........
    ..........
    ..........

u+21b5:
carriagereturn:
    ..........
    ..........
    .....@....
    .....@....
    ...@.@....
    ..@@@@....
    ...@......
    ..........
    ..........
    ..........
    ..........
    ..........

u+21b6:
uni21B6:
    ..........
    ..........
    ..........
    ....@.....
    ...@.@....
    ...@......
    ..@@@.....
    ...@......
    ..........
    ..........
    ..........
    ..........

u+21b7:
uni21B7:
    ..........
    ..........
    ..........
    ....@.....
    ...@.@....
    .....@....
    ....@@@...
    .....@....
    ..........
    ..........
    ..........
    ..........

u+21f1:
uni21F1:
    ..........
    ..........
    ..........
    ..@@@@@...
    ..@.......
    ..@.@@@...
    ..@.@@....
    ..@.@.@...
    .......@..
    ..........
    ..........
    ..........

u+21f2:
uni21F2:
    ..........
    ..........
    ...@......
    ....@.@.@.
    .....@@.@.
    ....@@@.@.
    ........@.
    ....@@@@@.
    ..........
    ..........
    ..........
    ..........

u+21f5:
uni21F5:
    ..........
    ..........
    ..........
    ...@..@...
    ..@@@.@...
    ...@..@...
    ...@..@...
    ...@.@@@..
    ...@..@...
    ..........
    ..........
    ..........

u+21f6:
uni21F6:
    ..........
    ..........
    ......@...
    ...@@@@@..
    ......@...
    ...@@@@@..
    ......@...
    ...@@@@@..
    ......@...
    ..........
    ..........
    ..........

u+21f7:
uni21F7:
    ..........
    ..........
    ..........
    ...@.@....
    ..@@@@@@..
    ...@.@....
    ..........
    ..........
    ..........
    ..........
    ..........
    ..........

u+21f8:
uni21F8:
    ..........
    ..........
    ..........
    ....@.@...
    ..@@@@@@..
    ....@.@...
    ..........
    ..........
    ..........
    ..........
    ..........
    ..........

u+21fd:
uni21FD:
    ..........
    ..........
    ..........
    ..........
    ...@......
    ..@.@@@@..
    ...@......
    ..........
    ..........
    ..........
    ..........
    ..........

u+21fe:
uni21FE:
    ..........
    ..........
    ..........
    ..........
    ......@...
    ..@@@@.@..
    ......@...
    ..........
    ..........
    ..........
    ..........
    ..........

u+21ff:
uni21FF:
    ..........
    ..........
    ..........
    ..........
    ...@..@...
    ..@.@@.@..
    ...@..@...
    ..........
    ..........
    ..........
    ..........
    ..........

u+2200:
universal:
    ..........
    ..........
    ...@...@..
    ...@...@..
    ....@@@...
    ....@.@...
    .....@....
    .....@....
    ..........
    ..........
    ..........
    ..........

u+2201:
uni2201:
    ..........
    ..........
    ....@@@...
    ...@...@..
    ...@...@..
    ...@......
    ...@...@..
    ...@...@..
    ....@@@...
    ..........
    ..........
    ..........

u+2202:
partialdiff:
    ..........
    ..........
    ..........
    ...@......
    ....@.....
    .....@....
    ....@.@...
    ...@..@...
    ...@..@...
    ....@@....
    ..........
    ..........

u+2203:
existential:
    ..........
    ..........
    ..........
    ...@@@@@..
    .......@..
    ....@@@@..
    .......@..
    .......@..
    ...@@@@@..
    ..........
    ..........
    ..........

u+2204:
uni2204:
    ..........
    ..........
    ......@...
    ...@@@@@..
    .....@.@..
    ....@@@@..
    .....@.@..
    ....@..@..
    ...@@@@@..
    ....@.....
    ..........
    ..........

u+2205:
emptyset:
    ..........
    ..........
    ..........
    ....@@@...
    ...@...@@.
    ...@..@@..
    ...@@@.@..
    ..@@...@..
    ....@@@...
    ..........
    ..........
    ..........

u+2206:
uni2206:
    ..........
    ..........
    ..........
    .....@....
    ....@.@...
    ....@.@...
    ...@...@..
    ...@@@@@..
    ..........
    ..........
    ..........
    ..........

u+2207:
gradient:
    ..........
    ..........
    ..........
    ...@@@@@..
    ...@...@..
    ....@.@...
    ....@.@...
    .....@....
    ..........
    ..........
    ..........
    ..........

u+2208:
element:
    ..........
    ..........
    .....@@@..
    ....@.....
    ...@......
    ...@@@@...
    ...@......
    ....@.....
    .....@@@..
    ..........
    ..........
    ..........

u+2209:
notelement:
    ..........
    ..........
    .......@..
    .....@@@..
    ....@.@...
    ...@.@....
    ...@@@@...
    ...@.@....
    ....@.....
    ....@@@@..
    ..........
    ..........

u+220a:
uni220A:
    ..........
    ..........
    ..........
    ....@@@...
    ...@......
    ...@@@....
    ...@......
    ....@@@...
    ..........
    ..........
    ..........
    ..........

u+220b:
suchthat:
    ..........
    ..........
    ...@@@....
    ......@...
    .......@..
    ....@@@@..
    .......@..
    ......@...
    ...@@@....
    ..........
    ..........
    ..........

u+220c:
uni220C:
    ..........
    ..........
    ..@.......
    ...@@@....
    ...@..@...
    ....@..@..
    ....@@@@..
    .....@.@..
    ......@...
    ...@@@.@..
    ..........
    ..........

u+220d:
uni220D:
    ..........
    ..........
    ..........
    ....@@@...
    .......@..
    .....@@@..
    .......@..
    ....@@@...
    ..........
    ..........
    ..........
    ..........

u+220f:
product:
    ..........
    ..........
    ..........
    ...@@@@@..
    ....@.@...
    ....@.@...
    ....@.@...
    ....@.@...
    ..........
    ..........
    ..........
    ..........

u+2210:
uni2210:
    ..........
    ..........
    ..........
    ....@.@...
    ....@.@...
    ....@.@...
    ....@.@...
    ...@@@@@..
    ..........
    ..........
    ..........
    ..........

u+2211:
summation:
    ..........
    ..........
    ..@@@@@...
    ..@...@...
    ...@......
    ....@.....
    ...@......
    ..@...@...
    ..@@@@@...
    ..........
    ..........
    ..........

u+2212:
minus:
    ..........
    ..........
    ..........
    ..........
    ..........
    ..@@@.....
    ..........
    ..........
    ..........
    ..........
    ..........
    ..........

u+2213:
uni2213:
    ..........
    ..........
    ..@@@.....
    ..........
    ...@......
    ..@@@.....
    ...@......
    ..........
    ..........
    ..........
    ..........
    ..........

u+2214:
uni2214:
    ..........
    ..........
    ....@.....
    ...@@@....
    ....@.....
    ....@.....
    ....@.....
    ..@@@@@...
    ....@.....
    ....@.....
    ..........
    ..........

u+221a:
radical:
    ..........
    ..........
    ........@.
    ........@.
    .......@..
    ..@@...@..
    ....@.@...
    ....@.@...
    .....@....
    ..........
    ..........
    ..........

u+221b:
uni221B:
    ..........
    ..........
    ....@@....
    ....@@..@.
    .....@..@.
    ....@@.@..
    ..@@...@..
    ....@.@...
    ....@.@...
    .....@....
    ..........
    ..........

u+221c:
uni221C:
    ..........
    ..........
    .....@..@.
    ....@@..@.
    .....@.@..
    ..@@...@..
    ....@.@...
    ....@.@...
    .....@....
    ..........
    ..........
    ..........

u+221d:
proportional:
    ..........
    ..........
    ..........
    ..........
    ..@@.@....
    ..@.@.....
    ..@@.@....
    ..........
    ..........
    ..........
    ..........
    ..........

u+221e:
infinity:
    ..........
    ..........
    ..........
    ...@..@...
    ..@.@@.@..
    ..@.@@.@..
    ...@..@...
    ..........
    ..........
    ..........
    ..........
    ..........

u+2248:
approxequal:
    ..........
    ..........
    ..........
    ......@...
    ...@@@....
    ..@...@...
    ...@@@....
    ..@.......
    ..........
    ..........
    ..........
    ..........

u+2256:
uni2256:
    ..........
    ..........
    ..........
    ..........
    ..@@@@@...
    ...@.@....
    ..@@@@@...
    ..........
    ..........
    ..........
    ..........
    ..........

u+2260:
notequal:
    ..........
    ..........
    ..........
    ..........
    ......@...
    ....@@@...
    .....@....
    ....@@@...
    ....@.....
    ..........
    ..........
    ..........

u+2264:
lessequal:
    ..........
    ..........
    .....@....
    ....@.....
    ...@......
    ....@.....
    .....@....
    ..........
    ...@@@@...
    ..........
    ..........
    ..........

u+2265:
greaterequal:
    ..........
    ..........
    ....@.....
    .....@....
    ......@...
    .....@....
    ....@.....
    ..........
    ...@@@@...
    ..........
    ..........
    ..........

u+2312:
uni2312:
    ..........
    ..........
    ..........
    ..........
    ..........
    ...@@.....
    ..@..@....
    ..........
    ..........
    ..........
    ..........
    ..........

u+2322:
uni2322:
    ..........
    ..........
    ..........
    ..........
    ..........
    ...@@@....
    ..@...@...
    ..........
    ..........
    ..........
    ..........
    ..........

u+2588:
block:
    ..........
    ..........
    ...@@@@@..
    ...@@@@@..
    ...@@@@@..
    ...@@@@@..
    ...@@@@@..
    ...@@@@@..
    ...@@@@@..
    ...@@@@@..
    ..........
    ..........

u+2596:
uni2596:
    ..........
    ..........
    ..........
    ..@@@.....
    ..@@@.....
    ..@@@.....
    ..........
    ..........
    ..........
    ..........
    ..........
    ..........

u+2597:
uni2597:
    ..........
    ..........
    ..........
    .....@@@..
    .....@@@..
    .....@@@..
    ..........
    ..........
    ..........
    ..........
    ..........
    ..........

u+2598:
uni2598:
    ..........
    ..........
    ..........
    ..........
    ..........
    ..........
    ..@@@.....
    ..@@@.....
    ..@@@.....
    ..........
    ..........
    ..........

u+2599:
uni2599:
    ..........
    ..........
    ..........
    ..@@@.....
    ..@@@.....
    ..@@@.....
    ..@@@@@@..
    ..@@@@@@..
    ..@@@@@@..
    ..........
    ..........
    ..........

u+259a:
uni259A:
    ..........
    ..........
    ..........
    ..@@@.....
    ..@@@.....
    ..@@@.....
    .....@@@..
    .....@@@..
    .....@@@..
    ..........
    ..........
    ..........

u+259b:
uni259B:
    ..........
    ..........
    ..........
    ..@@@@@@..
    ..@@@@@@..
    ..@@@@@@..
    ..@@@.....
    ..@@@.....
    ..@@@.....
    ..........
    ..........
    ..........

u+259c:
uni259C:
    ..........
    ..........
    ..........
    ..@@@@@@..
    ..@@@@@@..
    ..@@@@@@..
    .....@@@..
    .....@@@..
    .....@@@..
    ..........
    ..........
    ..........

u+259d:
uni259D:
    ..........
    ..........
    ..........
    ..........
    ..........
    ..........
    .....@@@..
    .....@@@..
    .....@@@..
    ..........
    ..........
    ..........

u+259e:
uni259E:
    ..........
    ..........
    ..........
    .....@@@..
    .....@@@..
    .....@@@..
    ..@@@.....
    ..@@@.....
    ..@@@.....
    ..........
    ..........
    ..........

u+259f:
uni259F:
    ..........
    ..........
    ..........
    .....@@@..
    .....@@@..
    .....@@@..
    ..@@@@@@..
    ..@@@@@@..
    ..@@@@@@..
    ..........
    ..........
    ..........

u+25a0:
filledbox:
    ..........
    ..........
    ..........
    ..@@@@@@..
    ..@@@@@@..
    ..@@@@@@..
    ..@@@@@@..
    ..@@@@@@..
    ..@@@@@@..
    ..........
    ..........
    ..........

u+25a1:
H22073:
    ..........
    ..........
    ..........
    ..@@@@@@..
    ..@....@..
    ..@....@..
    ..@....@..
    ..@....@..
    ..@@@@@@..
    ..........
    ..........
    ..........

u+25a2:
uni25A2:
    ..........
    ..........
    ..........
    ...@@@@...
    ..@....@..
    ..@....@..
    ..@....@..
    ..@....@..
    ...@@@@...
    ..........
    ..........
    ..........

u+25a3:
uni25A3:
    ..........
    ..........
    ..........
    ..@@@@@...
    ..@...@...
    ..@.@.@...
    ..@...@...
    ..@@@@@...
    ..........
    ..........
    ..........
    ..........

u+25a4:
uni25A4:
    ..........
    ..........
    ..........
    ..@@@@@...
    ..@...@...
    ..@@@@@...
    ..@...@...
    ..@@@@@...
    ..........
    ..........
    ..........
    ..........

u+25a5:
uni25A5:
    ..........
    ..........
    ..........
    ..@@@@@...
    ..@.@.@...
    ..@.@.@...
    ..@.@.@...
    ..@@@@@...
    ..........
    ..........
    ..........
    ..........

u+25a6:
uni25A6:
    ..........
    ..........
    ..........
    ..@@@@@...
    ..@.@.@...
    ..@@@@@...
    ..@.@.@...
    ..@@@@@...
    ..........
    ..........
    ..........
    ..........

u+25a7:
uni25A7:
    ..........
    ..........
    ..........
    ..@@@@@...
    ..@@..@...
    ..@.@.@...
    ..@..@@...
    ..@@@@@...
    ..........
    ..........
    ..........
    ..........

u+25a8:
uni25A8:
    ..........
    ..........
    ..........
    ..@@@@@...
    ..@..@@...
    ..@.@.@...
    ..@@..@...
    ..@@@@@...
    ..........
    ..........
    ..........
    ..........

u+25a9:
uni25A9:
    ..........
    ..........
    ..........
    ..@@@@@...
    ..@.@.@...
    ..@@.@@...
    ..@.@.@...
    ..@@@@@...
    ..........
    ..........
    ..........
    ..........

u+25aa:
H18543:
    ..........
    ..........
    ..........
    ..@@@@@...
    ..@@@@@...
    ..@@@@@...
    ..@@@@@...
    ..@@@@@...
    ..........
    ..........
    ..........
    ..........

u+25ab:
H18551:
    ..........
    ..........
    ..........
    ..@@@@@...
    ..@...@...
    ..@...@...
    ..@...@...
    ..@@@@@...
    ..........
    ..........
    ..........
    ..........

u+25ac:
filledrect:
    ..........
    ..........
    ..........
    ..@@@@@...
    ..@@@@@...
    ..@@@@@...
    ..........
    ..........
    ..........
    ..........
    ..........
    ..........

u+25ad:
uni25AD:
    ..........
    ..........
    ..........
    ..@@@@@...
    ..@...@...
    ..@@@@@...
    ..........
    ..........
    ..........
    ..........
    ..........
    ..........

u+25ae:
uni25AE:
    ..........
    ..........
    ..........
    ..@@@@....
    ..@@@@....
    ..@@@@....
    ..@@@@....
    ..@@@@....
    ..@@@@....
    ..@@@@....
    ..........
    ..........

u+25af:
uni25AF:
    ..........
    ..........
    ..........
    ..@@@@....
    ..@..@....
    ..@..@....
    ..@..@....
    ..@..@....
    ..@..@....
    ..@@@@....
    ..........
    ..........

u+25b0:
uni25B0:
    ..........
    ..........
    ..........
    ...@@@@@..
    ..@@@@@@..
    ..@@@@@...
    ..........
    ..........
    ..........
    ..........
    ..........
    ..........

u+25b1:
uni25B1:
    ..........
    ..........
    ..........
    ...@@@@@..
    ..@....@..
    ..@@@@@...
    ..........
    ..........
    ..........
    ..........
    ..........
    ..........

u+25b2:
triagup:
    ..........
    ..........
    ..........
    ..........
    ......@...
    .....@@@..
    ....@@@@@.
    ...@@@@@@@
    ..........
    ..........
    ..........
    ..........

u+25b3:
uni25B3:
    ..........
    ..........
    ..........
    ..........
    ......@...
    .....@.@..
    ....@...@.
    ...@@@@@@@
    ..........
    ..........
    ..........
    ..........

u+25b4:
uni25B4:
    ..........
    ..........
    ..........
    ..........
    ....@.....
    ...@@@....
    ..@@@@@...
    ..........
    ..........
    ..........
    ..........
    ..........

u+25b5:
uni25B5:
    ..........
    ..........
    ..........
    ..........
    ....@.....
    ...@.@....
    ..@@@@@...
    ..........
    ..........
    ..........
    ..........
    ..........

u+25b6:
uni25B6:
    ..........
    ..........
    ...@......
    ...@@.....
    ...@@@....
    ...@@@@...
    ...@@@....
    ...@@.....
    ...@......
    ..........
    ..........
    ..........

u+25b7:
uni25B7:
    ..........
    ..........
    ...@......
    ...@@.....
    ...@.@....
    ...@..@...
    ...@.@....
    ...@@.....
    ...@......
    ..........
    ..........
    ..........

u+25b8:
uni25B8:
    ..........
    ..........
    ..........
    ...@......
    ...@@.....
    ...@@@....
    ...@@.....
    ...@......
    ..........
    ..........
    ..........
    ..........

u+25b9:
uni25B9:
    ..........
    ..........
    ..........
    ...@......
    ...@@.....
    ...@.@....
    ...@@.....
    ...@......
    ..........
    ..........
    ..........
    ..........

u+25ba:
triagrt:
    ..........
    ..........
    ..........
    .@@.......
    .@@@@@....
    .@@@@@@@..
    .@@@@@....
    .@@.......
    ..........
    ..........
    ..........
    ..........

u+25bb:
uni25BB:
    ..........
    ..........
    ..........
    .@@.......
    .@.@@@....
    .@....@@..
    .@.@@@....
    .@@.......
    ..........
    ..........
    ..........
    ..........

u+25bc:
triagdn:
    ..........
    ..........
    ..........
    ..........
    ...@@@@@@@
    ....@@@@@.
    .....@@@..
    ......@...
    ..........
    ..........
    ..........
    ..........

u+25bd:
uni25BD:
    ..........
    ..........
    ..........
    ..........
    ...@@@@@@@
    ....@...@.
    .....@.@..
    ......@...
    ..........
    ..........
    ..........
    ..........

u+25be:
uni25BE:
    ..........
    ..........
    ..........
    ..........
    ..@@@@@...
    ...@@@....
    ....@.....
    ..........
    ..........
    ..........
    ..........
    ..........

u+25bf:
uni25BF:
    ..........
    ..........
    ..........
    ..........
    ..@@@@@...
    ...@.@....
    ....@.....
    ..........
    ..........
    ..........
    ..........
    ..........

u+25c0:
uni25C0:
    ..........
    ..........
    ......@...
    .....@@...
    ....@@@...
    ...@@@@...
    ....@@@...
    .....@@...
    ......@...
    ..........
    ..........
    ..........

u+25c1:
uni25C1:
    ..........
    ..........
    ......@...
    .....@@...
    ....@.@...
    ...@..@...
    ....@.@...
    .....@@...
    ......@...
    ..........
    ..........
    ..........

u+25c2:
uni25C2:
    ..........
    ..........
    ..........
    .....@....
    ....@@....
    ...@@@....
    ....@@....
    .....@....
    ..........
    ..........
    ..........
    ..........

u+25c3:
uni25C3:
    ..........
    ..........
    ..........
    .....@....
    ....@@....
    ...@.@....
    ....@@....
    .....@....
    ..........
    ..........
    ..........
    ..........

u+25c4:
triaglf:
    ..........
    ..........
    ..........
    ......@@..
    ...@@@@@..
    .@@@@@@@..
    ...@@@@@..
    ......@@..
    ..........
    ..........
    ..........
    ..........

u+25c5:
uni25C5:
    ..........
    ..........
    ..........
    ......@@..
    ...@@@.@..
    .@@....@..
    ...@@@.@..
    ......@@..
    ..........
    ..........
    ..........
    ..........

u+25c6:
uni25C6:
    ..........
    ..........
    ..........
    ..........
    ....@.....
    ...@@@....
    ..@@@@@...
    ...@@@....
    ....@.....
    ..........
    ..........
    ..........

u+25c7:
uni25C7:
    ..........
    ..........
    ..........
    ..........
    ....@.....
    ...@.@....
    ..@...@...
    ...@.@....
    ....@.....
    ..........
    ..........
    ..........

u+25c8:
uni25C8:
    ..........
    ..........
    ..........
    ..........
    ....@.....
    ...@.@....
    ..@.@.@...
    ...@.@....
    ....@.....
    ..........
    ..........
    ..........

u+25c9:
uni25C9:
    ..........
    ..........
    ..........
    ..........
    ...@@@....
    ..@...@...
    ..@.@.@...
    ..@...@...
    ...@@@....
    ..........
    ..........
    ..........

u+25ca:
lozenge:
    ..........
    ..........
    ..........
    ....@.....
    ...@.@....
    ...@.@....
    ..@...@...
    ...@.@....
    ...@.@....
    ....@.....
    ..........
    ..........

u+25cb:
circle:
    ..........
    ..........
    ..........
    ..........
    ...@@@....
    ..@...@...
    ..@...@...
    ..@...@...
    ...@@@....
    ..........
    ..........
    ..........

u+25cc:
uni25CC:
    ..........
    ..........
    ..........
    ..........
    ...@.@....
    ..@...@...
    ..........
    ..@...@...
    ...@.@....
    ..........
    ..........
    ..........

u+25cd:
uni25CD:
    ..........
    ..........
    ..........
    ...@@@....
    ..@.@.@...
    ..@.@.@...
    ..@.@.@...
    ...@@@....
    ..........
    ..........
    ..........
    ..........

u+25ce:
uni25CE:
    ..........
    ..........
    ..........
    ...@@@....
    ..@...@...
    ..@.@.@...
    ..@...@...
    ...@@@....
    ..........
    ..........
    ..........
    ..........

u+25cf:
H18533:
    ..........
    ..........
    ..........
    ..........
    ..........
    ....@@....
    ...@@@@...
    ...@@@@...
    ....@@....
    ..........
    ..........
    ..........

u+25d0:
uni25D0:
    ..........
    ..........
    ..........
    ..........
    ..........
    ....@@....
    ...@@.@...
    ...@@.@...
    ....@@....
    ..........
    ..........
    ..........

u+25d1:
uni25D1:
    ..........
    ..........
    ..........
    ..........
    ..........
    ....@@....
    ...@.@@...
    ...@.@@...
    ....@@....
    ..........
    ..........
    ..........

u+25d2:
uni25D2:
    ..........
    ..........
    ..........
    ..........
    ..........
    ....@@....
    ...@@@@...
    ...@..@...
    ....@@....
    ..........
    ..........
    ..........

u+25d3:
uni25D3:
    ..........
    ..........
    ..........
    ..........
    ..........
    ....@@....
    ...@..@...
    ...@@@@...
    ....@@....
    ..........
    ..........
    ..........

u+25d4:
uni25D4:
    ..........
    ..........
    ..........
    ..........
    ..........
    ....@@....
    ...@.@@...
    ...@..@...
    ....@@....
    ..........
    ..........
    ..........

u+25d5:
uni25D5:
    ..........
    ..........
    ..........
    ..........
    ..........
    ....@@....
    ...@.@@...
    ...@@@@...
    ....@@....
    ..........
    ..........
    ..........

u+25d6:
uni25D6:
    ..........
    ..........
    ..........
    ..........
    ..........
    ....@.....
    ...@@.....
    ...@@.....
    ....@.....
    ..........
    ..........
    ..........

u+25d7:
uni25D7:
    ..........
    ..........
    ..........
    ..........
    ..........
    .....@....
    .....@@...
    .....@@...
    .....@....
    ..........
    ..........
    ..........

u+25d8:
invbullet:
    ..........
    ..@@@@@@..
    ..@@@@@@..
    ..@@@@@@..
    ..@@@@@@..
    ..@@..@@..
    ..@....@..
    ..@....@..
    ..@@..@@..
    ..@@@@@@..
    ..@@@@@@..
    ..@@@@@@..

u+25d9:
invcircle:
    ..........
    ..........
    ..........
    .@@@@@@@..
    .@@...@@..
    .@.@@@.@..
    .@.@@@.@..
    .@.@@@.@..
    .@@...@@..
    .@@@@@@@..
    ..........
    ..........

u+25da:
uni25DA:
    ..........
    ..........
    ..........
    ..........
    ..........
    ..........
    .@@@@@@@..
    .@@...@@..
    .@.@@@.@..
    .@.@@@.@..
    ..........
    ..........

u+25db:
uni25DB:
    ..........
    ..........
    ..........
    .@.@@@.@..
    .@.@@@.@..
    .@@...@@..
    .@@@@@@@..
    ..........
    ..........
    ..........
    ..........
    ..........

u+25dc:
uni25DC:
    ..........
    ..........
    ..........
    ..........
    ..........
    ..........
    ...@@.....
    ..@.......
    ..@.......
    ..........
    ..........
    ..........

u+25dd:
uni25DD:
    ..........
    ..........
    ..........
    ..........
    ..........
    ..........
    ....@@....
    ......@...
    ......@...
    ..........
    ..........
    ..........

u+25de:
uni25DE:
    ..........
    ..........
    ..........
    ..........
    ......@...
    ......@...
    ....@@....
    ..........
    ..........
    ..........
    ..........
    ..........

u+25df:
uni25DF:
    ..........
    ..........
    ..........
    ..........
    ..@.......
    ..@.......
    ...@@.....
    ..........
    ..........
    ..........
    ..........
    ..........

u+25e0:
uni25E0:
    ..........
    ..........
    ..........
    ..........
    ..........
    ..........
    ...@@@....
    ..@...@...
    ..@...@...
    ..........
    ..........
    ..........

u+25e1:
uni25E1:
    ..........
    ..........
    ..........
    ..........
    ..@....@..
    ...@...@..
    ....@@@...
    ..........
    ..........
    ..........
    ..........
    ..........

u+25e2:
uni25E2:
    ..........
    ..........
    ..........
    .......@..
    ......@@..
    .....@@@..
    ....@@@@..
    ...@@@@@..
    ..@@@@@@..
    ..........
    ..........
    ..........

u+25e3:
uni25E3:
    ..........
    ..........
    ..........
    ..@.......
    ..@@......
    ..@@@.....
    ..@@@@....
    ..@@@@@...
    ..@@@@@@..
    ..........
    ..........
    ..........

u+25e4:
uni25E4:
    ..........
    ..........
    ..........
    ..@@@@@@..
    ..@@@@@...
    ..@@@@....
    ..@@@.....
    ..@@......
    ..@.......
    ..........
    ..........
    ..........

u+25e5:
uni25E5:
    ..........
    ..........
    ..........
    ..@@@@@@..
    ...@@@@@..
    ....@@@@..
    .....@@@..
    ......@@..
    .......@..
    ..........
    ..........
    ..........

u+25e6:
openbullet:
    ..........
    ..........
    ..........
    ..........
    ...@@@....
    ..@...@...
    ..@...@...
    ..@...@...
    ...@@@....
    ..........
    ..........
    ..........

u+25e7:
uni25E7:
    ..........
    ..........
    ..........
    ..@@@@@...
    ..@@..@...
    ..@@..@...
    ..@@..@...
    ..@@@@@...
    ..........
    ..........
    ..........
    ..........

u+25e8:
uni25E8:
    ..........
    ..........
    ..........
    ..@@@@@...
    ..@..@@...
    ..@..@@...
    ..@..@@...
    ..@@@@@...
    ..........
    ..........
    ..........
    ..........

u+25e9:
uni25E9:
    ..........
    ..........
    ..........
    ..@@@@@...
    ..@@@.@...
    ..@@..@...
    ..@...@...
    ..@@@@@...
    ..........
    ..........
    ..........
    ..........

u+25ea:
uni25EA:
    ..........
    ..........
    ..........
    ..@@@@@...
    ..@...@...
    ..@..@@...
    ..@.@@@...
    ..@@@@@...
    ..........
    ..........
    ..........
    ..........

u+25eb:
uni25EB:
    ..........
    ..........
    ..........
    ..@@@@@...
    ..@.@.@...
    ..@.@.@...
    ..@.@.@...
    ..@@@@@...
    ..........
    ..........
    ..........
    ..........

u+25ec:
uni25EC:
    ..........
    ..........
    ..........
    ....@.....
    ....@.....
    ...@.@....
    ...@.@....
    ..@.@.@...
    ..@...@...
    ..@@@@@...
    ..........
    ..........

u+25ed:
uni25ED:
    ..........
    ..........
    ..........
    ....@.....
    ....@.....
    ...@@@....
    ...@@@....
    ..@@@.@...
    ..@@@@@...
    ..........
    ..........
    ..........

u+25ee:
uni25EE:
    ..........
    ..........
    ..........
    ....@.....
    ....@.....
    ...@@@....
    ...@@@....
    ..@.@@@...
    ..@@@@@...
    ..........
    ..........
    ..........

u+25ef:
uni25EF:
    ..........
    ..........
    ..........
    ...@@@....
    ..@...@...
    ..@...@...
    ..@...@...
    ...@@@....
    ..........
    ..........
    ..........
    ..........

u+25f0:
uni25F0:
    ..........
    ..........
    ..........
    ..@@@@@...
    ..@.@.@...
    ..@@@.@...
    ..@...@...
    ..@@@@@...
    ..........
    ..........
    ..........
    ..........

u+25f1:
uni25F1:
    ..........
    ..........
    ..........
    ..@@@@@...
    ..@...@...
    ..@@@.@...
    ..@.@.@...
    ..@@@@@...
    ..........
    ..........
    ..........
    ..........

u+25f2:
uni25F2:
    ..........
    ..........
    ..........
    ..@@@@@...
    ..@...@...
    ..@.@@@...
    ..@.@.@...
    ..@@@@@...
    ..........
    ..........
    ..........
    ..........

u+25f3:
uni25F3:
    ..........
    ..........
    ..........
    ..@@@@@...
    ..@.@.@...
    ..@.@@@...
    ..@...@...
    ..@@@@@...
    ..........
    ..........
    ..........
    ..........

u+25f4:
uni25F4:
    ..........
    ..........
    ..........
    ...@@@....
    ..@.@.@...
    ..@@@.@...
    ..@...@...
    ...@@@....
    ..........
    ..........
    ..........
    ..........

u+25f5:
uni25F5:
    ..........
    ..........
    ..........
    ...@@@....
    ..@...@...
    ..@@@.@...
    ..@.@.@...
    ...@@@....
    ..........
    ..........
    ..........
    ..........

u+25f6:
uni25F6:
    ..........
    ..........
    ..........
    ...@@@....
    ..@...@...
    ..@.@@@...
    ..@.@.@...
    ...@@@....
    ..........
    ..........
    ..........
    ..........

u+25f7:
uni25F7:
    ..........
    ..........
    ..........
    ...@@@....
    ..@.@.@...
    ..@.@@@...
    ..@...@...
    ...@@@....
    ..........
    ..........
    ..........
    ..........

u+25f8:
uni25F8:
    ..........
    ..........
    ..........
    ..........
    ..........
    ..........
    ..@@@@....
    ..@.@.....
    ..@@......
    ..@.......
    ..........
    ..........

u+25f9:
uni25F9:
    ..........
    ..........
    ..........
    ..........
    ..........
    ..........
    ....@@@@..
    .....@.@..
    ......@@..
    .......@..
    ..........
    ..........

u+25fa:
uni25FA:
    ..........
    ..........
    ..........
    ..@.......
    ..@@......
    ..@.@.....
    ..@@@@....
    ..........
    ..........
    ..........
    ..........
    ..........

u+25fb:
uni25FB:
    ..........
    ..........
    ..........
    ..@@@@@@..
    ..@....@..
    ..@....@..
    ..@....@..
    ..@....@..
    ..@@@@@@..
    ..........
    ..........
    ..........

u+25fc:
uni25FC:
    ..........
    ..........
    ..........
    ..@@@@@@..
    ..@@@@@@..
    ..@@@@@@..
    ..@@@@@@..
    ..@@@@@@..
    ..@@@@@@..
    ..........
    ..........
    ..........

u+25fd:
uni25FD:
    ..........
    ..........
    ..........
    ..........
    ..@@@@@...
    ..@...@...
    ..@...@...
    ..@...@...
    ..@@@@@...
    ..........
    ..........
    ..........

u+25fe:
uni25FE:
    ..........
    ..........
    ..........
    ..........
    ..@@@@@...
    ..@@@@@...
    ..@@@@@...
    ..@@@@@...
    ..@@@@@...
    ..........
    ..........
    ..........

u+25ff:
uni25FF:
    ..........
    ..........
    ..........
    .......@..
    ......@@..
    .....@.@..
    ....@@@@..
    ..........
    ..........
    ..........
    ..........
    ..........

u+2600:
uni2600:
    ..........
    ..........
    ....@.....
    ..........
    ..@.@.@...
    ...@@@....
    ..@.@.@...
    ..........
    ....@.....
    ..........
    ..........
    ..........

u+2601:
uni2601:
    ..........
    ..........
    ..........
    ..........
    ..........
    ...@.@....
    ...@@@@...
    ..@@@@@...
    ..........
    ..........
    ..........
    ..........

u+2602:
uni2602:
    ..........
    ..........
    ..........
    ...@@@....
    ..@@@@@...
    ....@.....
    ....@.....
    ...@......
    ..........
    ..........
    ..........
    ..........

u+2604:
uni2604:
    ..........
    ..........
    ..........
    ....@.....
    ...@..@...
    .....@....
    ...@...@..
    ..@.@.@...
    ...@......
    ..........
    ..........
    ..........

u+2605:
uni2605:
    ..........
    ..........
    ..........
    ....@.....
    ....@.....
    ..@@@@@...
    ...@@@....
    ...@@@....
    ..@...@...
    ..........
    ..........
    ..........

u+2606:
uni2606:
    ..........
    ..........
    ..........
    ....@.....
    ....@.....
    ..@@.@@...
    ...@.@....
    ...@@@....
    ..@...@...
    ..........
    ..........
    ..........

u+2660:
spade:
    ..........
    ..........
    ....@.....
    ....@.....
    ...@@@....
    ..@@@@@...
    ..@@@@@...
    ...@@@....
    ....@.....
    ...@@@....
    ..........
    ..........

u+2661:
uni2661:
    ..........
    ..........
    ..........
    ...@.@....
    ..@.@.@...
    ..@...@...
    ...@.@....
    ....@.....
    ..........
    ..........
    ..........
    ..........

u+2662:
uni2662:
    ..........
    ..........
    ..........
    ....@.....
    ...@.@....
    ..@...@...
    ..@...@...
    ...@.@....
    ....@.....
    ..........
    ..........
    ..........

u+2663:
club:
    ..........
    ..........
    ...@@@....
    ...@@@....
    ....@.....
    ..@@@@@...
    ..@@@@@...
    ..@@@@@...
    ....@.....
    ...@@@....
    ..........
    ..........

u+2664:
uni2664:
    ..........
    ..........
    ....@.....
    ....@.....
    ...@.@....
    ..@...@...
    ..@...@...
    ...@@@....
    ....@.....
    ...@@@....
    ..........
    ..........

u+2665:
heart:
    ..........
    ..........
    ..........
    ...@@.@@..
    ..@@@@@@@.
    ..@@@@@@@.
    ...@@@@@..
    ....@@@...
    .....@....
    ..........
    ..........
    ..........

u+2666:
diamond:
    ..........
    ....@.....
    ....@.....
    ...@@@....
    ...@@@....
    ..@@@@@...
    ...@@@....
    ...@@@....
    ....@.....
    ....@.....
    ..........
    ..........

u+2667:
uni2667:
    ..........
    ..........
    ...@@@....
    ...@.@....
    ....@.....
    ..@@@@@...
    ..@.@.@...
    ..@@@@@...
    ....@.....
    ...@@@....
    ..........
    ..........

u+2669:
uni2669:
    ..........
    ..........
    ..........
    ....@.....
    ....@.....
    ....@.....
    ....@.....
    ...@@.....
    ...@@.....
    ..........
    ..........
    ..........

u+266a:
musicalnote:
    ..........
    ..........
    ..........
    ....@@....
    ....@.@...
    ....@.@...
    ....@.....
    ...@@.....
    ...@@.....
    ..........
    ..........
    ..........

u+266b:
musicalnotedbl:
    ..........
    ..........
    ..........
    ...@@@@@..
    ...@...@..
    ...@...@..
    ...@...@..
    ..@@..@@..
    ..@@..@@..
    ..........
    ..........
    ..........

u+266c:
uni266C:
    ..........
    ..........
    ..........
    ...@@@@@..
    ...@...@..
    ...@@@@@..
    ...@...@..
    ..@@..@@..
    ..@@..@@..
    ..........
    ..........
    ..........

u+266d:
uni266D:
    ..........
    ..........
    ..........
    ..@.......
    ..@.......
    ..@.......
    ..@@@.....
    ..@.@.....
    ..@@......
    ..........
    ..........
    ..........

u+266e:
uni266E:
    ..........
    ..........
    ..........
    ..@.......
    ..@.@@....
    ..@@.@....
    ..@.@@....
    ..@@.@....
    .....@....
    ..........
    ..........
    ..........

u+266f:
uni266F:
    ..........
    ..........
    ..........
    .....@....
    ...@.@@...
    ..@@.@....
    ...@.@@...
    ..@@.@....
    ...@......
    ..........
    ..........
    ..........

u+2713:
uni2713:
    ..........
    ..........
    ......@...
    .....@....
    .....@....
    ..@.@.....
    ..@.@.....
    ...@......
    ...@......
    ..........
    ..........
    ..........

u+2714:
uni2714:
    ..........
    ..........
    .......@..
    ......@...
    ......@...
    ..@@.@....
    ...@.@....
    ...@.@....
    ....@.....
    ....@.....
    ..........
    ..........

u+2715:
uni2715:
    ..........
    ..........
    ..........
    ..@...@...
    ...@.@....
    ....@.....
    ...@.@....
    ..@...@...
    ..........
    ..........
    ..........
    ..........

u+2716:
uni2716:
    ..........
    ..........
    ..........
    ..@@.@@...
    ...@.@....
    ....@.....
    ...@.@....
    ..@@.@@...
    ..........
    ..........
    ..........
    ..........

u+2717:
uni2717:
    ..........
    ..........
    ..........
    ......@...
    ...@..@...
    ...@.@....
    ....@.....
    ...@.@....
    ..@..@....
    ..@.......
    ..........
    ..........

u+2718:
uni2718:
    ..........
    ..........
    ..........
    ......@...
    ...@.@@...
    ...@@@....
    ....@.....
    ...@@@....
    ..@@.@....
    ..@.......
    ..........
    ..........

u+271a:
uni271A:
    ..........
    ..........
    ..........
    ....@@....
    ....@@....
    ..@@@@@@..
    ..@@@@@@..
    ....@@....
    ....@@....
    ..........
    ..........
    ..........

u+271b:
uni271B:
    ..........
    ..........
    ..........
    ..........
    ....@.....
    ....@.....
    ..@@.@@...
    ....@.....
    ....@.....
    ..........
    ..........
    ..........

u+271c:
uni271C:
    ..........
    ..........
    ..........
    ....@@....
    ....@@....
    ..@@..@@..
    ..@@..@@..
    ....@@....
    ....@@....
    ..........
    ..........
    ..........

u+271d:
uni271D:
    ..........
    ..........
    ..........
    ....@.....
    ....@.....
    ..@@@@@...
    ....@.....
    ....@.....
    ....@.....
    ..........
    ..........
    ..........

u+271e:
uni271E:
    ..........
    ..........
    ..........
    ....@@....
    ....@@....
    ..@@@@@@..
    ..@@@@@@..
    ....@@....
    ....@@....
    ....@@....
    ..........
    ..........

u+272a:
uni272A:
    ..........
    ..........
    ..@@@@@...
    .@@@.@@@..
    .@@@.@@@..
    .@.....@..
    .@@...@@..
    .@.@@@.@..
    .@@@@@@@..
    ..@@@@@...
    ..........
    ..........

u+272b:
uni272B:
    ..........
    ..........
    ..........
    ..........
    ..........
    ....@.....
    ....@.....
    ..@@.@@...
    ...@@@....
    ..@...@...
    ..........
    ..........

u+2733:
uni2733:
    ..........
    ..........
    ....@.....
    ..@.@.@...
    ...@@@....
    ..@@@@@...
    ...@@@....
    ..@.@.@...
    ....@.....
    ..........
    ..........
    ..........

u+2736:
uni2736:
    ..........
    ..........
    ..........
    ....@.....
    ..@.@.@...
    ...@@@....
    ...@@@....
    ..@.@.@...
    ....@.....
    ..........
    ..........
    ..........

u+274f:
uni274F:
    ..........
    ..........
    ..........
    ..........
    ..@@@@@...
    ..@...@@..
    ..@...@@..
    ..@...@@..
    ..@@@@@@..
    ...@@@@@..
    ..........
    ..........

u+2750:
uni2750:
    ..........
    ..........
    ..........
    ..........
    ...@@@@@..
    ..@@@@@@..
    ..@...@@..
    ..@...@@..
    ..@...@@..
    ..@@@@@...
    ..........
    ..........

u+2751:
uni2751:
    ..........
    ..........
    ..........
    ..........
    ..@@@@@...
    ..@...@@..
    ..@...@@..
    ..@...@@..
    ..@@@@@@..
    ...@@@@@..
    ..........
    ..........

u+2752:
uni2752:
    ..........
    ..........
    ..........
    ..........
    ...@@@@@..
    ..@@@@@@..
    ..@...@@..
    ..@...@@..
    ..@...@@..
    ..@@@@@...
    ..........
    ..........

u+275b:
uni275B:
    ..........
    ..........
    ..........
    ..........
    ..........
    ..........
    .....@....
    ....@.....
    ....@@....
    ....@@....
    ..........
    ..........

u+275c:
uni275C:
    ..........
    ..........
    ..........
    ..........
    ..........
    ..........
    ....@@....
    ....@@....
    .....@....
    ....@.....
    ..........
    ..........

u+275d:
uni275D:
    ..........
    ..........
    ..........
    ..........
    ..........
    ..........
    ....@..@..
    ...@..@...
    ...@@.@@..
    ...@@.@@..
    ..........
    ..........

u+275e:
uni275E:
    ..........
    ..........
    ..........
    ..........
    ..........
    ..........
    ...@@.@@..
    ...@@.@@..
    ....@..@..
    ...@..@...
    ..........
    ..........

u+2760:
uni2760:
    ..........
    ..@@.@@...
    ..@@.@@...
    ...@..@...
    ..@..@....
    ..........
    ..........
    ..........
    ..........
    ..........
    ..........
    ..........

u+2764:
uni2764:
    ..........
    ..........
    ..........
    ...@@.@@..
    ..@@@@@@@.
    ..@@@@@@@.
    ...@@@@@..
    ....@@@...
    .....@....
    ..........
    ..........
    ..........

u+276c:
uni276C:
    ..........
    ..........
    ..........
    .....@@...
    ....@@....
    ...@@.....
    ..@@......
    ...@@.....
    ....@@....
    .....@@...
    ..........
    ..........

u+276d:
uni276D:
    ..........
    ..........
    ..........
    ..@@......
    ...@@.....
    ....@@....
    .....@@...
    ....@@....
    ...@@.....
    ..@@......
    ..........
    ..........

u+276e:
uni276E:
    ..........
    ..........
    .....@@@..
    ....@@@...
    ...@@@....
    ..@@@.....
    ..@@@.....
    ...@@@....
    ....@@@...
    .....@@@..
    ..........
    ..........

u+276f:
uni276F:
    ..........
    ..........
    ..@@@.....
    ...@@@....
    ....@@@...
    .....@@@..
    .....@@@..
    ....@@@...
    ...@@@....
    ..@@@.....
    ..........
    ..........

u+2770:
uni2770:
    ..........
    ..........
    ....@@@@..
    ...@@@@...
    ..@@@@....
    ..@@@.....
    ..@@@.....
    ..@@@@....
    ...@@@@...
    ....@@@@..
    ..........
    ..........

u+2771:
uni2771:
    ..........
    ..........
    ..@@@@....
    ...@@@@...
    ....@@@@..
    .....@@@..
    .....@@@..
    ....@@@@..
    ...@@@@...
    ..@@@@....
    ..........
    ..........

u+2776:
uni2776:
    ..........
    ..........
    ..@@@@....
    ...@@@@...
    ....@@@@..
    .....@@@..
    .....@@@..
    ....@@@@..
    ...@@@@...
    ..@@@@....
    ..........
    ..........

u+278a:
uni278A:
    ..........
    ..........
    ...@@@@...
    ..@@..@@..
    ..@@@.@@..
    ..@@@.@@..
    ..@@@.@@..
    ..@@@.@@..
    ..@@...@..
    ...@@@@...
    ..........
    ..........

u+278b:
uni278B:
    ..........
    ..........
    ...@@@@...
    ..@@..@@..
    ..@.@@.@..
    ..@@@@.@..
    ..@@@.@@..
    ..@@.@@@..
    ..@....@..
    ...@@@@...
    ..........
    ..........

u+278c:
uni278C:
    ..........
    ..........
    ...@@@@...
    ..@...@@..
    ..@@@@.@..
    ..@@..@@..
    ..@@@@.@..
    ..@@@@.@..
    ..@...@@..
    ...@@@@...
    ..........
    ..........

u+278d:
uni278D:
    ..........
    ..........
    ...@@@@...
    ..@@@..@..
    ..@@.@.@..
    ..@.@@.@..
    ..@....@..
    ..@@@@.@..
    ..@@@@.@..
    ...@@@@...
    ..........
    ..........

u+278e:
uni278E:
    ..........
    ..........
    ...@@@@...
    ..@....@..
    ..@.@@@@..
    ..@...@@..
    ..@@@@.@..
    ..@@@@.@..
    ..@...@@..
    ...@@@@...
    ..........
    ..........

u+278f:
uni278F:
    ..........
    ..........
    ...@@@@...
    ..@@..@@..
    ..@.@@@@..
    ..@...@@..
    ..@.@@.@..
    ..@.@@.@..
    ..@@..@@..
    ...@@@@...
    ..........
    ..........

u+2790:
uni2790:
    ..........
    ..........
    ...@@@@...
    ..@....@..
    ..@@@@.@..
    ..@@@.@@..
    ..@@@.@@..
    ..@@.@@@..
    ..@@.@@@..
    ...@@@@...
    ..........
    ..........

u+2791:
uni2791:
    ..........
    ..........
    ...@@@@...
    ..@@..@@..
    ..@.@@.@..
    ..@@..@@..
    ..@.@@.@..
    ..@.@@.@..
    ..@@..@@..
    ...@@@@...
    ..........
    ..........

u+2792:
uni2792:
    ..........
    ..........
    ...@@@@...
    ..@@..@@..
    ..@.@@.@..
    ..@.@@.@..
    ..@@...@..
    ..@@@@.@..
    ..@@..@@..
    ...@@@@...
    ..........
    ..........

u+2793:
uni2793:
    ..........
    ..........
    ...@@@@@..
    ..@.@@.@@.
    ..@.@.@.@.
    ..@.@.@.@.
    ..@.@.@.@.
    ..@.@.@.@.
    ..@.@@.@@.
    ...@@@@@..
    ..........
    ..........

u+2794:
uni2794:
    ..........
    ..........
    ..........
    ....@.....
    .....@....
    ..@@@@@...
    .....@....
    ....@.....
    ..........
    ..........
    ..........
    ..........

u+2795:
uni2795:
    ..........
    ..........
    ..........
    ....@@....
    ....@@....
    ..@@@@@@..
    ..@@@@@@..
    ....@@....
    ....@@....
    ..........
    ..........
    ..........

u+2796:
uni2796:
    ..........
    ..........
    ..........
    ..........
    ..........
    ..@@@@@@..
    ..@@@@@@..
    ..........
    ..........
    ..........
    ..........
    ..........

u+2797:
uni2797:
    ..........
    ..........
    ..........
    ....@@....
    ..........
    ..@@@@@@..
    ..@@@@@@..
    ..........
    ....@@....
    ..........
    ..........
    ..........

u+2798:
uni2798:
    ..........
    ..........
    ..........
    ..@.......
    ...@......
    ....@.@...
    .....@@...
    ....@@@...
    ..........
    ..........
    ..........
    ..........

u+2799:
uni2799:
    ..........
    ..........
    ..........
    ..........
    .....@....
    ..@@@@@...
    .....@....
    ..........
    ..........
    ..........
    ..........
    ..........

u+279a:
uni279A:
    ..........
    ..........
    ..........
    ....@@@...
    .....@@...
    ....@.@...
    ...@......
    ..@.......
    ..........
    ..........
    ..........
    ..........

u+279b:
uni279B:
    ..........
    ..........
    ..........
    ...@......
    ....@@....
    @@@@@@@@..
    ....@@....
    ...@......
    ..........
    ..........
    ..........
    ..........

u+f329:
uniF329:
    ..........
    ..........
    ...@..@...
    ...@.@@@..
    ...@..@...
    ...@..@...
    ...@@@....
    ...@......
    ...@......
    ...@......
    ..........
    ..........

u+f32a:
uniF32A:
    ..........
    ..........
    ...@......
    ...@......
    ...@......
    ...@@@@...
    ..........
    ...@..@...
    ...@@.@...
    ...@.@@...
    ...@..@...
    ..........

u+f32b:
uniF32B:
    ..........
    ..........
    ....@@@@..
    ...@......
    ...@..@@..
    ...@..@@..
    ...@......
    ...@..@@..
    ...@...@..
    ...@@.....
    ..........
    ..........

u+f32c:
uniF32C:
    ..........
    ..........
    ..@@@@@...
    .......@..
    ..@..@@...
    ..@..@....
    ..@..@....
    ..@..@....
    ..@..@....
    ...@@.....
    ..........
    ..........

u+f32d:
uniF32D:
    ..........
    ..........
    ....@@....
    ...@..@...
    ...@..@...
    ...@..@...
    ..@@@@@@..
    ..@@..@@..
    ..@@..@@..
    ..@@@@@@..
    ...@@@@...
    ..........

u+f32e:
uniF32E:
    ..........
    ..........
    ..@.......
    ..@@......
    ..@@@.....
    ..@@@@....
    ..@@@@@...
    ..@@@@....
    ..@@@.....
    ..@@......
    ..@.......
    ..........

u+f32f:
uniF32F:
    ..........
    ..........
    ..@.......
    ...@......
    ....@.....
    .....@....
    ......@...
    .....@....
    ....@.....
    ...@......
    ..@.......
    ..........

u+f330:
uniF330:
    ..........
    ..........
    ......@...
    .....@@...
    ....@@@...
    ...@@@@...
    ..@@@@@...
    ...@@@@...
    ....@@@...
    .....@@...
    ......@...
    ..........

u+f331:
uniF331:
    ..........
    ..........
    .......@..
    ......@...
    .....@....
    ....@.....
    ...@......
    ....@.....
    .....@....
    ......@...
    .......@..
    ..........

u+f332:
uniF332:
    ..........
    ..........
    .....@....
    ...@@@@@..
    ...@.@.@..
    ...@...@..
    ...@...@..
    ...@@.@@..
    ...@@.@@..
    ...@@@@@..
    ..........
    ..........

u+f333:
uniF333:
    ..........
    ..........
    .....@....
    ...@@@@@..
    ...@...@..
    ...@.@.@..
    ...@.@.@..
    ...@.@.@..
    ...@...@..
    ...@@@@@..
    ..........
    ..........

u+f334:
uniF334:
    ..........
    ..........
    .....@....
    ...@@@@@..
    ...@...@..
    ...@...@..
    ...@...@..
    ...@...@..
    ...@...@..
    ...@@@@@..
    ..........
    ..........

u+f335:
uniF335:
    ..........
    ..........
    .....@....
    ...@@@@@..
    ...@...@..
    ...@...@..
    ...@.@.@..
    ...@.@.@..
    ...@...@..
    ...@@@@@..
    ..........
    ..........

u+f336:
uniF336:
    ..........
    ..........
    .....@....
    ...@@@@@..
    ...@@@.@..
    ...@@.@@..
    ...@...@..
    ...@@.@@..
    ...@.@@@..
    ...@@@@@..
    ..........
    ..........

u+f337:
uniF337:
    ..........
    ..........
    ...@......
    ...@@.....
    ...@@@....
    ...@@@@...
    ...@@@....
    ...@@.....
    ...@......
    ..........
    ..........
    ..........

u+f338:
uniF338:
    ..........
    ..........
    ...@@.@@..
    ...@@.@@..
    ...@@.@@..
    ...@@.@@..
    ...@@.@@..
    ...@@.@@..
    ...@@.@@..
    ..........
    ..........
    ..........

u+f339:
uniF339:
    ..........
    ..........
    ..........
    ...@@@@@..
    ...@...@..
    ...@...@..
    ...@...@..
    ..@@..@@..
    ..@@..@@..
    ..........
    ..........
    ..........

u+f33a:
uniF33A:
    ..........
    ..........
    ..........
    ...@@@@...
    ..@@.@@@..
    ..@@.@@@..
    ..@@...@..
    ..@@@@@@..
    ...@@@@...
    ..........
    ..........
    ..........

u+f33b:
uniF33B:
    ..........
    ..........
    ..........
    .....@....
    .....@....
    ....@@@...
    ....@@@...
    ....@.@...
    ...@@.@@..
    ...@...@..
    ..........
    ..........

u+f33c:
uniF33C:
    ..........
    ..........
    ..........
    ..@@@.@@..
    ..@@@.@@..
    ..@@@.@@..
    ..@@@.....
    ..@@@.@@..
    ..@@@.@@..
    ..........
    ..........
    ..........

u+f33d:
uniF33D:
    ..........
    ..........
    ..........
    ..@@.@@@..
    ..@@.@@@..
    ..@@.@@@..
    .....@@@..
    ..@@.@@@..
    ..@@.@@@..
    ..........
    ..........
    ..........

u+f33e:
uniF33E:
    ..........
    ..........
    ..........
    ..@@@@@@..
    ..@@@@@@..
    ..@@@@@@..
    ..........
    ..@@@.@@..
    ..@@@.@@..
    ..........
    ..........
    ..........

u+f33f:
uniF33F:
    ..........
    ..........
    ..........
    ..@@@@....
    ..@@@@....
    ..@@@@.@..
    ..@@@@.@..
    .......@..
    ....@@@@..
    ..........
    ..........
    ..........

u+f340:
uniF340:
    ..........
    ..........
    ..........
    ....@@@...
    ...@...@..
    ...@...@..
    ...@...@..
    ...@@.@@..
    ....@.@...
    ..........
    ..........
    ..........

u+f341:
uniF341:
    ..........
    ..........
    ..........
    ..@..@....
    ...@.@....
    ..@.@.....
    ..@@.@....
    ....@@@...
    .....@.@..
    ..........
    ..........
    ..........

u+f342:
uniF342:
    ..........
    ..........
    ..........
    .....@....
    ....@@.@..
    ..@@@@.@..
    ..@@@@.@..
    ....@@.@..
    .....@....
    ..........
    ..........
    ..........

u+f343:
uniF343:
    ..........
    ..........
    ..........
    .....@....
    ....@@....
    ..@@@@....
    ..@@@@....
    ....@@....
    .....@....
    ..........
    ..........
    ..........

u+f344:
uniF344:
    ..........
    ..........
    ..........
    ....@.@...
    ...@@@@@..
    ...@@@@@..
    ....@@@...
    .....@....
    ..........
    ..........
    ..........
    ..........

u+f345:
uniF345:
    ..........
    ..........
    ..........
    ...@.@.@..
    ..........
    ...@@@@@..
    ...@@@@@..
    ..........
    ...@.@.@..
    ..........
    ..........
    ..........

u+f346:
uniF346:
    ..........
    ..........
    ..........
    ....@@@...
    ...@@.@@..
    ...@@@@@..
    ...@@.....
    ....@@@...
    ..........
    ..........
    ..........
    ..........

u+f347:
uniF347:
    ..........
    ..........
    ..........
    ...@@@@@..
    ....@@@...
    ...@.@.@..
    ...@@.@@..
    ...@@@@@..
    ..........
    ..........
    ..........
    ..........

u+f348:
uniF348:
    ..........
    ..........
    ..........
    ..@@@@@@..
    ..@....@..
    ..@....@..
    ..@.@@@@..
    ..@.@.@@..
    ...@@@@@..
    ..........
    ..........
    ..........

u+f349:
uniF349:
    ..........
    ..........
    ..@@..@...
    .@.@@@.@..
    ..@@@@@@..
    ..@@.@@...
    .@@@@@@...
    .@.@@@.@..
    ..@..@@...
    ..........
    ..........
    ..........

u+f34a:
uniF34A:
    ..........
    ..........
    ..@@.@.@@.
    ..@.....@.
    ....@@@...
    ..@.@@@.@.
    ....@@@...
    ..@.....@.
    ..@@.@.@@.
    ..........
    ..........
    ..........

u+f34b:
uniF34B:
    ..........
    ..........
    ..........
    ..@@.@@...
    ..@@.@@...
    ..........
    ..@@.@@...
    ..@@.@@...
    ..........
    ..........
    ..........
    ..........

u+f34c:
uniF34C:
    ..........
    ..........
    ..........
    ..@@@.@@..
    ..@@@.....
    ..@@@.@@..
    ..@@@.....
    ..@@@.@@..
    ..@@@.@@..
    ..........
    ..........
    ..........

u+f34d:
uniF34D:
    ..........
    ..........
    ..........
    ..@@@@@@..
    ..@.@@@@..
    ..@@.@@@..
    ..@.@..@..
    ..@@@@@@..
    ..@@@@@@..
    ..........
    ..........
    ..........

u+f34e:
uniF34E:
    ..........
    ..........
    ....@@@...
    ....@.@...
    ....@.@...
    ...@@@@@..
    ...@@.@@..
    ...@@@@@..
    ....@@@...
    ..........
    ..........
    ..........

u+f34f:
uniF34F:
    ..........
    ..........
    ..........
    ..........
    ..........
    ..........
    ..@@@@....
    ..........
    ..........
    ..........
    ..........
    ..........

u+f350:
uniF350:
    ..........
    ..........
    ..........
    ..........
    ..........
    ..@@@@....
    ..........
    ..@@@@....
    ..........
    ..........
    ..........
    ..........

u+f351:
uniF351:
    ..........
    ..........
    ..........
    ..........
    ..@@@@@...
    ..........
    ...@@@....
    ..........
    ..@@@@@...
    ..........
    ..........
    ..........

u+f352:
uniF352:
    ..........
    ..........
    ..........
    ..........
    ..@@@@@...
    ..@.@.@...
    ..@@@@@...
    ..@...@...
    ..@@@@@...
    ..........
    ..........
    ..........

u+f353:
uniF353:
    ..........
    ..........
    ..........
    ..........
    ..@@@@....
    ...@......
    ...@@@....
    ...@.@....
    ..@@@@@...
    ..........
    ..........
    ..........

u+f354:
uniF354:
    ..........
    ..........
    ..........
    ...@@@@@..
    ....@.@...
    ....@.@...
    ....@.@...
    ..........
    ..........
    ..........
    ..........
    ..........

u+f355:
uniF355:
    ..........
    ..........
    ..........
    .....@.@..
    ....@.@...
    ..........
    .....@.@..
    ....@.@...
    ..........
    ..........
    ..........
    ..........

u+f356:
uniF356:
    ..........
    ..........
    ...@....@.
    ...@@...@.
    ...@@@..@.
    ...@@@@.@.
    ...@@@..@.
    ...@@...@.
    ...@....@.
    ..........
    ..........
    ..........

u+f357:
uniF357:
    ..........
    ..........
    ...@....@.
    ...@...@@.
    ...@..@@@.
    ...@.@@@@.
    ...@..@@@.
    ...@...@@.
    ...@....@.
    ..........
    ..........
    ..........

u+f358:
uniF358:
    ..........
    ..........
    .....@....
    ....@@@...
    ...@@@@@..
    ..@@@@@@@.
    ....@@@...
    ....@@@...
    ....@@@...
    ...@@@....
    ..........
    ..........

u+f359:
uniF359:
    ..........
    ..........
    .....@@@..
    ....@@@...
    ....@@@...
    ....@@@...
    ..@@@@@@@.
    ...@@@@@..
    ....@@@...
    .....@....
    ..........
    ..........

u+f35a:
uniF35A:
    ..........
    ..........
    ..........
    ..........
    ..........
    ...@@@@@..
    ..........
    ..........
    ..........
    ..........
    ..........
    ..........

u+f35b:
uniF35B:
    ..........
    ..........
    ..........
    .......@..
    .......@..
    .....@.@..
    .....@.@..
    ...@.@.@..
    ...@.@.@..
    ..........
    ..........
    ..........

u+f35c:
uniF35C:
    ..........
    ..........
    ..........
    .....@....
    .....@....
    ...@.@....
    ...@.@.@..
    ..........
    ..........
    ..........
    ..........
    ..........

u+f35d:
uniF35D:
    ..........
    ..........
    ..........
    ...@......
    ...@.@.@..
    ..........
    ..........
    ..........
    ..........
    ..........
    ..........
    ..........

u+f35e:
uniF35E:
    ..........
    ..........
    .....@....
    .......@@.
    ...@..@@@.
    .....@.@..
    ...@@.@...
    ..@..@....
    ..@..@....
    ...@@.....
    ..........
    ..........

u+f35f:
uniF35F:
    ..........
    ..........
    .......@@.
    .....@@@@.
    ....@@@@..
    ....@@@@..
    ...@@@@...
    ..@.@.....
    ..@@......
    ..........
    ..........
    ..........

